SplineFontDB: 3.2
FontName: SeriousShannsBold
FullName: Serious Shanns Bold
FamilyName: Serious Shanns
Weight: Bold
Copyright: https://github.com/kaBeech/serious-shanns/blob/main/LICENSE
Version: 6.0.0
ItalicAngle: 0
UnderlinePosition: 0
UnderlineWidth: 0
Ascent: 800
Descent: 200
InvalidEm: 0
sfntRevision: 0x00003333
LayerCount: 2
Layer: 0 0 "Back" 1
Layer: 1 0 "Fore" 0
XUID: [1021 45 630387186 1689187]
StyleMap: 0x0040
FSType: 0
OS2Version: 3
OS2_WeightWidthSlopeOnly: 0
OS2_UseTypoMetrics: 0
CreationTime: 1532631502
ModificationTime: 315532800
PfmFamily: 49
TTFWeight: 700
TTFWidth: 5
LineGap: 0
VLineGap: 0
Panose: 0 0 0 0 0 0 0 0 0 0
OS2TypoAscent: 613
OS2TypoAOffset: 0
OS2TypoDescent: -188
OS2TypoDOffset: 0
OS2TypoLinegap: 98
OS2WinAscent: 778
OS2WinAOffset: 0
OS2WinDescent: 308
OS2WinDOffset: 0
HheadAscent: 796
HheadAOffset: 0
HheadDescent: -317
HheadDOffset: 0
OS2SubXSize: 317
OS2SubYSize: 293
OS2SubXOff: 0
OS2SubYOff: 37
OS2SupXSize: 317
OS2SupYSize: 293
OS2SupXOff: 0
OS2SupYOff: 171
OS2StrikeYSize: 0
OS2StrikeYPos: 132
OS2CapHeight: 576
OS2XHeight: 485
OS2Vendor: 'NONE'
OS2CodePages: 00000001.00000000
OS2UnicodeRanges: 00000001.00000000.00000000.00000000
MarkAttachClasses: 1
DEI: 91125
LangName: 1033 "" "" "Normal" "" "" "Version 0.2.0"
Encoding: UnicodeBmp
Compacted: 1
UnicodeInterp: none
NameList: AGL For New Fonts
DisplaySize: -48
AntiAlias: 1
FitToEm: 0
WinInfo: 0 16 9
BeginPrivate: 9
BlueValues 32 [-39 -6 502 523 708 718 765 769]
OtherBlues 11 [-297 -287]
BlueScale 9 0.0291667
BlueShift 1 2
StdHW 5 [110]
StdVW 5 [128]
StemSnapH 5 [110]
StemSnapV 9 [128 134]
ForceBold 4 true
EndPrivate
BeginChars: 65537 107

StartChar: .notdef
Encoding: 65536 -1 0
Width: 550
VWidth: 886
GlyphClass: 1
Flags: W
HStem: -201.925 66.2998<172.2 423.8> 616.625 66.2998<172.2 423.8>
VStem: 105.9 66.2998<-135.625 616.625> 423.8 66.2998<-135.625 616.625>
LayerCount: 2
Fore
SplineSet
105.900390625 -201.924804688 m 1
 105.900390625 682.924804688 l 1
 490.099609375 682.924804688 l 1
 490.099609375 -201.924804688 l 1
 105.900390625 -201.924804688 l 1
172.200195312 616.625 m 1
 172.200195312 -135.625 l 1
 423.799804688 -135.625 l 1
 423.799804688 616.625 l 1
 172.200195312 616.625 l 1
EndSplineSet
Validated: 524289
EndChar

StartChar: exclam
Encoding: 33 33 1
Width: 550
VWidth: 907
GlyphClass: 2
Flags: W
HStem: 25.9229 152.151<245.182 352.342>
VStem: 218.029 158.981<52.3986 151.517> 253.728 97.751<287.195 724.144>
LayerCount: 2
Fore
SplineSet
357.427734375 684.674804688 m 0xa0
 357.427734375 679.575195312 356.295898438 647.83984375 354.029296875 589.473632812 c 0
 352.329101562 531.106445312 351.478515625 484.356445312 351.478515625 449.223632812 c 0
 351.478515625 432.790039062 351.76171875 415.506835938 352.329101562 397.374023438 c 0
 352.895507812 379.806640625 353.178710938 364.506835938 353.178710938 351.473632812 c 0
 353.178710938 338.44140625 352.612304688 329.658203125 351.478515625 325.125 c 0
 350.912109375 320.591796875 350.62890625 314.641601562 350.62890625 307.274414062 c 0
 350.62890625 299.908203125 350.912109375 293.107421875 351.478515625 286.875 c 0
 349.779296875 271.0078125 343.545898438 258.825195312 332.779296875 250.325195312 c 0
 323.145507812 242.391601562 311.529296875 238.141601562 297.928710938 237.575195312 c 2
 294.529296875 237.575195312 l 2
 280.362304688 237.575195312 268.745117188 242.674804688 259.677734375 252.875 c 0
 251.177734375 261.375 246.927734375 272.708007812 246.927734375 286.875 c 0
 246.927734375 293.674804688 248.061523438 302.458007812 250.328125 313.224609375 c 0
 252.028320312 324.557617188 253.161132812 332.774414062 253.727539062 337.875 c 0
 254.294921875 342.974609375 254.578125 351.7578125 254.578125 364.224609375 c 2
 254.578125 399.075195312 l 2
 254.578125 410.408203125 254.294921875 427.69140625 253.727539062 450.923828125 c 0
 252.594726562 478.124023438 252.028320312 504.19140625 252.028320312 529.124023438 c 2
 252.028320312 587.774414062 l 2
 252.594726562 601.94140625 253.162109375 619.5078125 253.728515625 640.474609375 c 0
 254.295898438 661.44140625 254.579101562 675.325195312 254.579101562 682.125 c 1
 255.145507812 700.2578125 260.529296875 714.424804688 270.728515625 724.625 c 0
 280.362304688 734.2578125 292.544921875 739.075195312 307.278320312 739.075195312 c 2
 309.828125 739.075195312 l 2
 323.427734375 739.075195312 334.760742188 734.541992188 343.828125 725.474609375 c 0
 352.89453125 716.408203125 357.427734375 702.807617188 357.427734375 684.674804688 c 0xa0
291.12890625 25.9228515625 m 2
 271.295898438 25.9228515625 254.580078125 32.7236328125 240.979492188 46.32421875 c 0
 225.6796875 62.19140625 218.029296875 81.173828125 218.029296875 103.274414062 c 0
 218.029296875 123.673828125 226.529296875 140.95703125 243.529296875 155.124023438 c 0
 261.096679688 170.423828125 280.646484375 178.07421875 302.1796875 178.07421875 c 0
 323.712890625 178.07421875 341.5625 171.274414062 355.729492188 157.673828125 c 0
 369.916992188 143.487304688 377.010742188 126.409179688 377.010742188 106.442382812 c 0xc0
 377.010742188 95.34765625 376.526367188 72.2021484375 356.579101562 51.4228515625 c 0
 342.412109375 37.255859375 323.711914062 28.755859375 300.478515625 25.9228515625 c 2
 291.12890625 25.9228515625 l 2
EndSplineSet
Validated: 524289
EndChar

StartChar: quotedbl
Encoding: 34 34 2
Width: 550
VWidth: 941
GlyphClass: 2
Flags: W
HStem: 450.974 317.052<191.384 270.786 328.208 407.251>
VStem: 177.225 107.95<464.098 759.08> 310.676 110.5<464.098 759.436>
LayerCount: 2
Fore
SplineSet
421.17578125 718.724609375 m 2
 421.17578125 702.575195312 l 2
 421.17578125 673.674804688 420.89453125 636.841796875 420.327148438 592.075195312 c 0
 419.194335938 545.041992188 417.494140625 512.174804688 415.227539062 493.474609375 c 0
 412.9609375 479.307617188 406.443359375 468.541015625 395.676757812 461.173828125 c 0
 386.609375 454.374023438 376.692382812 450.973632812 365.92578125 450.973632812 c 0
 351.758789062 450.973632812 339.008789062 455.223632812 327.67578125 463.723632812 c 0
 316.909179688 471.657226562 311.526367188 482.423828125 311.526367188 496.024414062 c 2
 311.526367188 501.124023438 l 2
 312.659179688 520.390625 313.225585938 543.624023438 313.225585938 570.82421875 c 0
 313.225585938 628.057617188 312.375976562 678.774414062 310.67578125 722.973632812 c 2
 310.67578125 725.524414062 l 2
 310.67578125 733.45703125 312.659179688 740.682617188 316.625976562 747.19921875 c 0
 320.592773438 753.715820312 326.259765625 758.390625 333.626953125 761.223632812 c 0
 343.827148438 765.19140625 354.026367188 767.458007812 364.2265625 768.025390625 c 0
 372.7265625 768.025390625 379.668945312 767.174804688 385.051757812 765.474609375 c 0
 390.434570312 763.775390625 395.676757812 761.5078125 400.776367188 758.674804688 c 0
 407.009765625 755.275390625 411.967773438 750.033203125 415.651367188 742.950195312 c 0
 419.333984375 735.8671875 421.17578125 727.791992188 421.17578125 718.724609375 c 2
285.174804688 719.575195312 m 2
 285.174804688 683.875 l 2
 285.174804688 667.44140625 284.609375 636.841796875 283.475585938 592.075195312 c 0
 282.342773438 545.041992188 280.642578125 512.174804688 278.375976562 493.474609375 c 0
 276.109375 479.307617188 269.875976562 468.541015625 259.67578125 461.173828125 c 0
 250.609375 454.374023438 240.692382812 450.973632812 229.924804688 450.973632812 c 0
 215.7578125 450.973632812 202.724609375 455.223632812 190.825195312 463.723632812 c 0
 180.05859375 471.657226562 174.674804688 482.423828125 174.674804688 496.024414062 c 0
 174.674804688 497.723632812 174.958007812 499.70703125 175.525390625 501.973632812 c 0
 176.799804688 518.548828125 177.4375 537.83203125 177.4375 559.825195312 c 0
 177.4375 567.157226562 177.3671875 574.790039062 177.224609375 582.723632812 c 2
 177.224609375 611.624023438 l 2
 176.658203125 668.857421875 175.525390625 707.107421875 173.825195312 726.374023438 c 0
 173.825195312 733.741210938 175.80859375 740.541015625 179.775390625 746.774414062 c 0
 184.30859375 753.57421875 189.974609375 758.390625 196.775390625 761.223632812 c 0
 206.974609375 765.19140625 217.458007812 767.458007812 228.224609375 768.025390625 c 0
 236.724609375 768.025390625 243.666992188 767.174804688 249.049804688 765.474609375 c 0
 254.43359375 763.775390625 259.958007812 761.224609375 265.625 757.825195312 c 0
 271.291992188 754.424804688 275.825195312 749.325195312 279.224609375 742.525390625 c 0
 282.625 735.724609375 284.608398438 728.075195312 285.174804688 719.575195312 c 2
EndSplineSet
Validated: 524289
EndChar

StartChar: numbersign
Encoding: 35 35 3
Width: 550
VWidth: 904
GlyphClass: 2
Flags: W
HStem: 206.368 90.9531<70.8242 128 253.803 315.85 439.1 502.641> 422.271 92.6494<103.94 171.35 296.299 354.952 477.35 525.197>
VStem: 103.35 107.1<56.8193 184.967> 292.899 107.101<54.3361 196.002> 392.352 107.099<592.441 664.382>
LayerCount: 2
Fore
SplineSet
354.952148438 422.271484375 m 1xe0
 278.452148438 422.271484375 l 1
 253.802734375 297.321289062 l 1
 274.202148438 297.887695312 300.26953125 298.169921875 332.002929688 298.169921875 c 1
 339.935546875 338.40234375 347.5859375 379.771484375 354.952148438 422.271484375 c 1xe0
61.7001953125 248.017578125 m 2
 61.7001953125 258.19921875 65.4228515625 290.767578125 112.700195312 293.91796875 c 0
 117.233398438 293.91796875 123.182617188 294.201171875 130.549804688 294.767578125 c 2
 146.700195312 294.767578125 l 1
 171.349609375 420.567382812 l 1
 156.049804688 420.000976562 147.552734375 420.000976562 145.852539062 420.567382812 c 0
 136.626953125 420.567382812 96.63671875 422.9375 94.8525390625 463.919921875 c 1
 94.8525390625 466.469726562 l 2
 94.8525390625 482.284179688 105.303710938 510.962890625 147.552734375 512.370117188 c 0
 157.185546875 512.9375 171.068359375 513.220703125 189.201171875 513.220703125 c 1
 212.151367188 637.3203125 l 1
 216.868164062 653.565429688 229.677734375 678.525390625 264.001953125 680.669921875 c 0
 282.453125 680.669921875 318.401367188 667.962890625 318.401367188 629.670898438 c 0
 318.401367188 624.571289062 317.834960938 619.470703125 316.701171875 614.37109375 c 2
 296.298828125 514.920898438 l 1
 371.1015625 514.920898438 l 1
 392.3515625 630.521484375 l 1
 396.522460938 645.352539062 409.201171875 674.720703125 444.201171875 674.720703125 c 0
 460.421875 674.720703125 497.223632812 665.453125 499.450195312 625.421875 c 0xe8
 499.450195312 608.797851562 494.690429688 610.47265625 477.349609375 515.771484375 c 1
 512.836914062 514.458007812 533.297851562 490.9140625 534.299804688 469.872070312 c 0
 534.299804688 460.206054688 531.111328125 423.864257812 483.299804688 422.271484375 c 1
 460.349609375 422.271484375 l 1
 439.099609375 297.321289062 l 1
 462.049804688 297.321289062 l 2
 472.41015625 297.321289062 504.834960938 297.321289062 508.799804688 255.670898438 c 1
 508.799804688 254.821289062 l 2
 508.799804688 235.208984375 501.831054688 207.220703125 462.049804688 207.220703125 c 2
 423.799804688 207.220703125 l 1
 413.033203125 147.154296875 405.099609375 105.787109375 400 83.1201171875 c 0
 388.666015625 52.5205078125 360.653320312 42.2333984375 345.767578125 42.2333984375 c 2
 343.048828125 42.318359375 l 1
 301.146484375 42.318359375 293.836914062 81.0400390625 292.899414062 94.1689453125 c 0xf0
 292.899414062 98.9052734375 315.627929688 205.244140625 315.849609375 206.368164062 c 1
 275.899414062 206.368164062 l 2
 259.465820312 206.368164062 246.149414062 206.0859375 235.94921875 205.518554688 c 1
 220.649414062 129.018554688 212.149414062 89.068359375 210.44921875 85.6689453125 c 0
 200.056640625 56.796875 170.068359375 42.318359375 152.649414062 42.318359375 c 0
 108.543945312 42.318359375 103.349609375 86.6064453125 103.349609375 95.0185546875 c 0
 103.349609375 110.939453125 103.875 95.3935546875 128 204.66796875 c 1
 115.25 204.66796875 l 2
 102.859375 204.66796875 61.7001953125 207.5234375 61.7001953125 245.467773438 c 2
 61.7001953125 248.017578125 l 2
EndSplineSet
Validated: 524289
EndChar

StartChar: dollar
Encoding: 36 36 4
Width: 550
VWidth: 901
GlyphClass: 2
Flags: W
HStem: 23.9473 90.9482<191.933 245.301>
VStem: 84.6514 100.3<460.688 548.901> 249.551 99.4512<-23.1391 23.9473 130.197 321.447 439.598 574.747> 426.378 100.272<172.193 287.919>
LayerCount: 2
Fore
SplineSet
328.174804688 -59.3505859375 m 0
 317.125 -67.8505859375 304.234375 -72.1025390625 289.500976562 -72.1025390625 c 2
 287.80078125 -72.1025390625 l 2
 272.500976562 -72.1025390625 260.883789062 -67.0029296875 252.951171875 -56.802734375 c 0
 246.717773438 -49.435546875 243.600585938 -39.5185546875 243.600585938 -27.0517578125 c 0
 243.600585938 -24.21875 243.883789062 -19.2607421875 244.451171875 -12.177734375 c 0
 245.017578125 -5.0947265625 245.30078125 6.947265625 245.30078125 23.947265625 c 1
 224.901367188 24.513671875 205.350585938 27.34765625 186.651367188 32.447265625 c 0
 167.951171875 37.546875 151.80078125 44.34765625 138.201171875 52.84765625 c 0
 111.000976562 69.84765625 90.8837890625 90.2470703125 77.8505859375 114.046875 c 0
 72.18359375 126.513671875 69.3505859375 137.84765625 69.3505859375 148.046875 c 0
 69.3505859375 151.447265625 69.6337890625 154.564453125 70.201171875 157.397460938 c 0
 73.0341796875 170.430664062 80.966796875 179.780273438 94 185.447265625 c 0
 101.3671875 188.84765625 107.034179688 190.97265625 111.000976562 191.822265625 c 0
 114.967773438 192.671875 118.368164062 193.09765625 121.201171875 193.09765625 c 0
 124.034179688 193.09765625 126.583984375 192.814453125 128.850585938 192.247070312 c 0
 135.651367188 191.680664062 141.883789062 188.98828125 147.55078125 184.170898438 c 0
 153.217773438 179.354492188 159.16796875 172.979492188 165.401367188 165.046875 c 0
 176.734375 149.1796875 189.484375 136.712890625 203.651367188 127.645507812 c 0
 215.55078125 120.278320312 230.284179688 116.028320312 247.850585938 114.895507812 c 1
 248.984375 199.328125 249.55078125 275.26171875 249.55078125 342.694335938 c 1
 247.850585938 342.694335938 244.734375 343.26171875 240.201171875 344.39453125 c 0
 236.80078125 344.961914062 232.267578125 345.245117188 226.600585938 345.245117188 c 0
 203.368164062 347.51171875 182.118164062 353.178710938 162.850585938 362.245117188 c 0
 145.284179688 371.3125 130.833984375 382.079101562 119.500976562 394.546875 c 0
 108.16796875 407.013671875 99.5263671875 420.330078125 93.576171875 434.497070312 c 0
 87.6259765625 448.6640625 84.6513671875 463.114257812 84.6513671875 477.84765625 c 0
 84.6513671875 498.814453125 87.9091796875 518.930664062 94.42578125 538.198242188 c 0
 100.942382812 557.46484375 111.000976562 575.45703125 124.600585938 592.173828125 c 0
 138.201171875 608.890625 156.333984375 623.19921875 179.000976562 635.098632812 c 0
 200.534179688 645.866210938 224.6171875 653.798828125 251.25 658.8984375 c 1
 251.817382812 670.232421875 252.099609375 683.548828125 252.099609375 698.848632812 c 1
 252.666992188 726.048828125 262.016601562 743.33203125 280.150390625 750.69921875 c 0
 286.3828125 752.965820312 294.033203125 754.098632812 303.099609375 754.098632812 c 0
 321.799804688 754.098632812 335.400390625 748.1484375 343.900390625 736.249023438 c 0
 350.1328125 727.749023438 353.533203125 716.131835938 354.099609375 701.3984375 c 2
 354.099609375 666.548828125 l 1
 367.1328125 665.416015625 384.416015625 662.298828125 405.94921875 657.19921875 c 0
 427.482421875 652.666015625 443.915039062 648.416015625 455.248046875 644.44921875 c 0
 468.28125 639.916015625 477.9140625 632.265625 484.147460938 621.499023438 c 0
 488.680664062 613.565429688 490.947265625 605.348632812 490.947265625 596.848632812 c 0
 490.947265625 594.015625 490.6640625 591.182617188 490.09765625 588.349609375 c 0
 488.96484375 579.849609375 485.706054688 572.908203125 480.323242188 567.524414062 c 0
 474.940429688 562.141601562 468.282226562 558.883789062 460.349609375 557.750976562 c 0
 456.381835938 557.18359375 452.982421875 556.900390625 450.149414062 556.900390625 c 0
 447.31640625 556.900390625 444.05859375 557.04296875 440.375 557.325195312 c 0
 436.692382812 557.608398438 432.016601562 558.600585938 426.349609375 560.30078125 c 0
 420.1171875 561.43359375 412.75 563.983398438 404.25 567.950195312 c 0
 387.25 575.317382812 369.966796875 579.567382812 352.400390625 580.700195312 c 1
 351.266601562 525.733398438 350.416992188 473.600585938 349.849609375 424.30078125 c 1
 375.349609375 420.333984375 398.8671875 414.383789062 420.400390625 406.450195312 c 0
 440.799804688 397.950195312 457.658203125 387.750976562 470.974609375 375.850585938 c 0
 484.291992188 363.950195312 495.341796875 350.350585938 504.125 335.05078125 c 0
 512.908203125 319.750976562 518.858398438 304.733398438 521.974609375 290.000976562 c 0
 525.091796875 275.267578125 526.650390625 259.967773438 526.650390625 244.100585938 c 0
 526.650390625 217.467773438 521.974609375 192.392578125 512.625 168.875976562 c 0
 503.275390625 145.358398438 490.2421875 124.81640625 473.525390625 107.25 c 0
 456.80859375 89.6826171875 437.400390625 74.666015625 415.299804688 62.19921875 c 0
 394.333007812 50.8662109375 371.3828125 42.0830078125 346.450195312 35.849609375 c 1
 346.450195312 6.94921875 347.016601562 -12.8837890625 348.150390625 -23.650390625 c 0
 345.8828125 -38.9501953125 339.224609375 -50.8505859375 328.174804688 -59.3505859375 c 0
206.201171875 548.397460938 m 0
 192.034179688 535.364257812 184.951171875 520.064453125 184.951171875 502.497070312 c 0
 184.951171875 487.197265625 191.467773438 473.879882812 204.500976562 462.546875 c 0
 215.833984375 452.34765625 230.850585938 444.697265625 249.55078125 439.59765625 c 1
 250.118164062 474.73046875 250.401367188 519.780273438 250.401367188 574.747070312 c 1
 232.833984375 567.947265625 218.100585938 559.1640625 206.201171875 548.397460938 c 0
400.850585938 167.59765625 m 0
 417.869140625 184.615234375 426.377929688 204.026367188 426.377929688 225.830078125 c 0
 426.377929688 233.450195312 426.05859375 243.42578125 422.952148438 254.297851562 c 0
 420.684570312 262.231445312 416.434570312 271.013671875 410.202148438 280.647460938 c 0
 399.434570312 296.513671875 379.03515625 310.114257812 349.001953125 321.447265625 c 1
 348.434570312 256.280273438 348.009765625 213.780273438 347.7265625 193.947265625 c 0
 347.443359375 174.114257812 347.018554688 152.864257812 346.452148438 130.197265625 c 1
 367.984375 140.397460938 386.118164062 152.864257812 400.850585938 167.59765625 c 0
EndSplineSet
Validated: 524289
EndChar

StartChar: percent
Encoding: 37 37 5
Width: 550
VWidth: 899
GlyphClass: 2
Flags: W
HStem: 15.0469 85.8506<391.302 446.535> 184.197 83.2998<393.119 452.507> 406.05 84.1465<146.065 202.531> 565.847 82.4531<146.881 207.263>
VStem: 57.4482 81.6006<499.788 556.149> 213.848 87.5508<499.017 556.64> 294.598 89.25<110.954 172.747> 457.799 80.749<109.745 171.977>
LayerCount: 2
Fore
SplineSet
69.7744140625 466.825195312 m 0xfd
 61.5576171875 484.108398438 57.4482421875 502.3828125 57.4482421875 521.650390625 c 2
 57.4482421875 523.349609375 l 2
 57.4482421875 559.049804688 68.0732421875 588.799804688 89.3232421875 612.599609375 c 0
 110.573242188 636.400390625 141.315429688 648.299804688 181.547851562 648.299804688 c 0
 216.115234375 648.299804688 244.732421875 638.099609375 267.3984375 617.700195312 c 0
 279.298828125 606.932617188 288.366210938 593.049804688 294.598632812 576.049804688 c 0
 299.131835938 562.450195312 301.3984375 547.150390625 301.3984375 530.150390625 c 0
 301.3984375 487.650390625 289.215820312 455.6328125 264.848632812 434.099609375 c 0
 243.315429688 415.400390625 211.298828125 406.049804688 168.798828125 406.049804688 c 0
 145.565429688 406.049804688 125.307617188 411.858398438 108.024414062 423.474609375 c 0
 90.7412109375 435.091796875 77.9912109375 449.541992188 69.7744140625 466.825195312 c 0xfd
98.248046875 10.7998046875 m 0
 90.880859375 14.2001953125 84.9306640625 18.4462890625 80.3984375 23.546875 c 0
 74.1650390625 30.3466796875 71.0478515625 38.421875 71.0478515625 47.771484375 c 0
 71.0478515625 57.1220703125 73.880859375 67.1796875 79.5478515625 77.9462890625 c 0
 91.4482421875 101.747070312 119.78125 151.330078125 164.547851562 226.696289062 c 0
 260.880859375 378.563476562 309.047851562 454.780273438 309.047851562 455.34765625 c 0
 357.21484375 531.84765625 389.514648438 586.814453125 405.948242188 620.247070312 c 1
 405.948242188 614.014648438 406.231445312 614.297851562 406.797851562 621.09765625 c 1
 415.865234375 633.564453125 427.482421875 640.931640625 441.6484375 643.198242188 c 0
 445.616210938 644.331054688 449.583007812 644.8984375 453.549804688 644.8984375 c 0
 462.616210938 644.8984375 471.399414062 642.631835938 479.899414062 638.098632812 c 0
 492.932617188 631.865234375 500.299804688 623.08203125 502 611.749023438 c 0
 502.56640625 609.482421875 502.849609375 607.21484375 502.849609375 604.948242188 c 0
 502.849609375 595.315429688 499.166992188 584.83203125 491.799804688 573.499023438 c 0
 470.833007812 540.06640625 418.416015625 454.783203125 334.548828125 317.650390625 c 0
 248.982421875 180.516601562 192.315429688 87.8671875 164.547851562 39.7001953125 c 0
 151.514648438 17.033203125 136.21484375 5.7001953125 118.6484375 5.7001953125 c 0
 112.415039062 5.7001953125 105.615234375 7.400390625 98.248046875 10.7998046875 c 0
204.073242188 556.921875 m 0
 197.555664062 562.872070312 187.498046875 565.846679688 173.8984375 565.846679688 c 0
 163.130859375 565.846679688 155.198242188 562.729492188 150.09765625 556.497070312 c 0
 143.865234375 549.129882812 140.181640625 538.646484375 139.048828125 525.046875 c 2
 139.048828125 522.497070312 l 2
 139.048828125 512.296875 141.315429688 504.646484375 145.848632812 499.546875 c 0
 150.381835938 494.446289062 160.865234375 491.330078125 177.297851562 490.196289062 c 2
 178.1484375 490.196289062 l 2
 188.915039062 490.196289062 197.131835938 493.029296875 202.798828125 498.696289062 c 0
 209.032226562 505.497070312 212.71484375 514.563476562 213.84765625 525.896484375 c 2
 213.84765625 528.446289062 l 2
 213.84765625 541.479492188 210.58984375 550.971679688 204.073242188 556.921875 c 0
307.7734375 78.3720703125 m 0
 298.990234375 96.2216796875 294.59765625 115.34765625 294.59765625 135.747070312 c 2
 294.59765625 137.447265625 l 2xfb
 294.59765625 174.84765625 306.21484375 205.872070312 329.448242188 230.522460938 c 0
 352.680664062 255.172851562 384.981445312 267.497070312 426.34765625 267.497070312 c 0
 458.6484375 267.497070312 485.84765625 257.014648438 507.948242188 236.047851562 c 0
 519.28125 225.280273438 527.498046875 210.547851562 532.59765625 191.84765625 c 0
 536.565429688 178.247070312 538.547851562 163.23046875 538.547851562 146.797851562 c 0
 538.547851562 141.130859375 538.264648438 135.463867188 537.698242188 129.796875 c 0
 535.998046875 92.396484375 525.231445312 63.921875 505.3984375 44.3720703125 c 0
 485.565429688 24.8212890625 455.815429688 15.046875 416.1484375 15.046875 c 2
 411.8984375 15.046875 l 2
 388.09765625 15.61328125 366.990234375 21.8466796875 348.573242188 33.7470703125 c 0
 330.15625 45.646484375 316.555664062 60.521484375 307.7734375 78.3720703125 c 0
422.09765625 100.897460938 m 0
 422.665039062 100.897460938 423.516601562 100.614257812 424.649414062 100.047851562 c 0
 434.849609375 100.047851562 442.216796875 103.1640625 446.75 109.397460938 c 0
 452.982421875 116.764648438 456.666015625 126.96484375 457.798828125 139.997070312 c 2
 457.798828125 141.697265625 l 2
 457.798828125 155.297851562 455.249023438 165.497070312 450.1484375 172.297851562 c 0
 444.482421875 180.23046875 434.565429688 184.197265625 420.3984375 184.197265625 c 0
 409.630859375 184.197265625 401.4140625 180.514648438 395.747070312 173.147460938 c 0
 388.947265625 164.647460938 384.98046875 153.314453125 383.84765625 139.147460938 c 2
 383.84765625 136.59765625 l 2
 383.84765625 125.264648438 386.254882812 116.622070312 391.072265625 110.672851562 c 0
 395.888671875 104.72265625 406.231445312 101.46484375 422.09765625 100.897460938 c 0
EndSplineSet
Validated: 524289
EndChar

StartChar: ampersand
Encoding: 38 38 6
Width: 550
VWidth: 901
GlyphClass: 2
Flags: W
HStem: 5.25684 100.3<199.114 314.256> 589.205 87.5498<249.473 327.326>
VStem: 67.6484 105.4<132.585 288.834> 141.599 101.15<474.607 579.961> 340.499 91.7998<480.245 577.151>
LayerCount: 2
Fore
SplineSet
516.450195312 60.5009765625 m 0xd8
 516.450195312 57.66796875 516.166015625 54.5546875 515.598632812 51.1552734375 c 0
 513.33203125 31.322265625 506.532226562 18.2890625 495.19921875 12.0556640625 c 0
 484.432617188 8.0888671875 477.631835938 6.10546875 474.798828125 6.10546875 c 2
 473.94921875 6.10546875 l 2
 466.58203125 6.10546875 458.649414062 8.0888671875 450.149414062 12.0556640625 c 0
 435.416015625 19.4228515625 422.94921875 32.1728515625 412.749023438 50.3056640625 c 0
 411.048828125 53.138671875 408.357421875 59.513671875 404.673828125 69.4306640625 c 0
 400.991210938 79.34765625 398.298828125 86.5732421875 396.598632812 91.10546875 c 1
 383.848632812 74.53125 l 2
 381.015625 70.84765625 376.19921875 65.46484375 369.399414062 58.3818359375 c 0
 362.598632812 51.298828125 356.791015625 45.7734375 351.973632812 41.806640625 c 0
 347.157226562 37.83984375 340.640625 33.1650390625 332.422851562 27.78125 c 0
 324.206054688 22.3984375 316.130859375 18.431640625 308.198242188 15.8818359375 c 0
 300.265625 13.33203125 291.198242188 10.923828125 280.998046875 8.65625 c 0
 270.797851562 6.3896484375 260.315429688 5.2568359375 249.547851562 5.2568359375 c 0
 215.547851562 5.2568359375 184.5234375 13.8984375 156.473632812 31.181640625 c 0
 128.422851562 48.46484375 106.606445312 71.2724609375 91.0234375 99.60546875 c 0
 75.4404296875 127.938476562 67.6484375 158.5390625 67.6484375 191.40625 c 0xe8
 67.6484375 240.706054688 76.71484375 282.922851562 94.8486328125 318.055664062 c 0
 116.380859375 359.422851562 150.098632812 391.72265625 195.998046875 414.956054688 c 1
 181.123046875 438.331054688 l 2
 175.172851562 447.680664062 170.640625 454.90625 167.5234375 460.005859375 c 0
 164.40625 465.10546875 160.723632812 471.763671875 156.473632812 479.98046875 c 0
 152.223632812 488.198242188 149.248046875 495.422851562 147.547851562 501.65625 c 0
 143.581054688 518.65625 141.598632812 535.373046875 141.598632812 551.805664062 c 0
 141.598632812 562.573242188 143.015625 573.48046875 145.848632812 584.53125 c 0
 148.681640625 595.581054688 153.78125 606.772460938 161.1484375 618.10546875 c 0
 168.515625 629.438476562 177.58203125 639.497070312 188.348632812 648.280273438 c 0
 199.116210938 657.063476562 212.999023438 664.004882812 229.999023438 669.10546875 c 0
 246.999023438 674.205078125 265.982421875 676.754882812 286.94921875 676.754882812 c 0
 304.515625 676.754882812 321.798828125 674.063476562 338.798828125 668.6796875 c 0
 355.798828125 663.296875 371.381835938 655.221679688 385.548828125 644.455078125 c 0
 399.715820312 633.688476562 411.048828125 619.521484375 419.548828125 601.954101562 c 0
 428.048828125 584.387695312 432.298828125 564.836914062 432.298828125 543.303710938 c 0
 432.298828125 524.037109375 429.749023438 506.044921875 424.649414062 489.328125 c 0
 419.548828125 472.611328125 413.173828125 458.5859375 405.524414062 447.252929688 c 0
 397.874023438 435.919921875 388.381835938 425.294921875 377.048828125 415.377929688 c 0
 365.715820312 405.4609375 356.083007812 397.953125 348.150390625 392.853515625 c 0
 340.216796875 387.752929688 332 383.220703125 323.5 379.252929688 c 1
 333.700195312 362.252929688 348.0078125 340.861328125 366.424804688 315.078125 c 0
 384.841796875 289.294921875 398.299804688 270.169921875 406.799804688 257.703125 c 1
 408.5 261.103515625 410.908203125 266.345703125 414.025390625 273.428710938 c 0
 417.141601562 280.51171875 420.258789062 287.453125 423.375976562 294.252929688 c 0
 426.493164062 301.053710938 429.184570312 306.153320312 431.451171875 309.553710938 c 0
 442.784179688 326.553710938 454.118164062 337.036132812 465.451171875 341.002929688 c 0
 469.983398438 342.703125 474.80078125 343.553710938 479.900390625 343.553710938 c 0
 487.833984375 343.553710938 495.766601562 341.5703125 503.700195312 337.603515625 c 0
 516.733398438 331.370117188 524.3828125 320.603515625 526.650390625 305.303710938 c 0
 527.216796875 301.903320312 527.784179688 298.220703125 528.350585938 294.252929688 c 0
 528.350585938 282.353515625 524.951171875 269.88671875 518.150390625 256.853515625 c 0
 515.317382812 251.186523438 507.100585938 239.994140625 493.500976562 223.27734375 c 0
 479.900390625 206.560546875 468.850585938 191.96875 460.350585938 179.501953125 c 1
 466.583984375 169.301757812 474.94140625 154.993164062 485.424804688 136.577148438 c 0
 495.908203125 118.16015625 502.283203125 106.967773438 504.549804688 103.000976562 c 0
 512.483398438 89.400390625 516.450195312 75.234375 516.450195312 60.5009765625 c 0xd8
242.749023438 537.35546875 m 0xd8
 242.749023438 524.887695312 246.149414062 511.2890625 252.94921875 496.555664062 c 0
 259.749023438 481.823242188 267.399414062 469.073242188 275.899414062 458.305664062 c 1
 284.965820312 461.138671875 293.041015625 464.396484375 300.124023438 468.080078125 c 0
 307.20703125 471.762695312 314.149414062 476.438476562 320.94921875 482.10546875 c 0
 327.749023438 487.771484375 332.70703125 494.85546875 335.82421875 503.35546875 c 0
 338.94140625 511.85546875 340.499023438 522.337890625 340.499023438 534.8046875 c 0
 340.499023438 552.372070312 335.116210938 565.830078125 324.348632812 575.1796875 c 0
 313.58203125 584.530273438 300.407226562 589.205078125 284.82421875 589.205078125 c 0
 269.241210938 589.205078125 258.048828125 584.387695312 251.249023438 574.754882812 c 0
 245.58203125 566.254882812 242.749023438 553.788085938 242.749023438 537.35546875 c 0xd8
173.048828125 199.055664062 m 0xe8
 173.048828125 171.85546875 180.278320312 149.473632812 194.728515625 131.90625 c 0
 209.178710938 114.33984375 227.736328125 105.556640625 250.403320312 105.556640625 c 0
 262.870117188 105.556640625 275.903320312 107.823242188 289.502929688 112.356445312 c 0
 294.036132812 114.056640625 298.994140625 116.749023438 304.376953125 120.431640625 c 0
 309.760742188 124.114257812 313.868164062 127.08984375 316.701171875 129.356445312 c 0
 319.534179688 131.624023438 323.217773438 135.306640625 327.750976562 140.40625 c 0
 332.284179688 145.506835938 335.400390625 149.048828125 337.100585938 151.03125 c 0
 338.80078125 153.014648438 341.067382812 156.131835938 343.900390625 160.381835938 c 0
 346.733398438 164.631835938 348.716796875 167.323242188 349.849609375 168.45703125 c 0
 341.916992188 185.45703125 334.266601562 200.756835938 326.900390625 214.356445312 c 0
 320.099609375 227.389648438 307.349609375 247.22265625 288.650390625 273.85546875 c 0
 269.950195312 300.489257812 256.06640625 320.888671875 247 335.055664062 c 1
 234.533203125 328.823242188 223.765625 321.456054688 214.69921875 312.956054688 c 0
 203.932617188 302.755859375 195.57421875 291.706054688 189.624023438 279.805664062 c 0
 183.673828125 267.90625 179.423828125 255.438476562 176.874023438 242.40625 c 0
 174.32421875 229.373046875 173.048828125 214.922851562 173.048828125 199.055664062 c 0xe8
EndSplineSet
Validated: 524289
EndChar

StartChar: quotesingle
Encoding: 39 39 7
Width: 550
VWidth: 941
GlyphClass: 2
Flags: W
HStem: 460.326 298.349<259.432 327.323>
VStem: 242.749 110.501<473.45 750.054>
LayerCount: 2
Fore
SplineSet
353.25 710.224609375 m 2
 353.25 675.375976562 l 2
 353.25 660.076171875 352.96484375 636.55859375 352.3984375 604.826171875 c 0
 351.265625 555.526367188 349.282226562 521.526367188 346.44921875 502.826171875 c 0
 344.182617188 488.092773438 337.94921875 477.04296875 327.749023438 469.67578125 c 0
 318.682617188 463.442382812 308.765625 460.326171875 297.998046875 460.326171875 c 0
 283.265625 460.326171875 270.232421875 464.576171875 258.899414062 473.076171875 c 0
 248.131835938 481.008789062 242.749023438 492.05859375 242.749023438 506.225585938 c 0
 242.749023438 507.92578125 243.032226562 509.342773438 243.598632812 510.475585938 c 0
 244.732421875 533.142578125 245.298828125 558.642578125 245.298828125 586.975585938 c 0
 245.298828125 627.208984375 244.44921875 669.42578125 242.749023438 713.625976562 c 2
 242.749023438 716.17578125 l 2
 242.749023438 724.109375 244.44921875 731.192382812 247.848632812 737.424804688 c 0
 251.81640625 744.224609375 257.483398438 749.325195312 264.849609375 752.724609375 c 0
 275.049804688 756.692382812 285.533203125 758.674804688 296.299804688 758.674804688 c 0
 304.799804688 758.674804688 311.599609375 757.825195312 316.700195312 756.125 c 0
 322.3671875 754.424804688 327.75 752.158203125 332.849609375 749.325195312 c 0
 339.083007812 745.924804688 343.900390625 740.541992188 347.299804688 733.174804688 c 0
 350.700195312 726.375 352.682617188 718.724609375 353.25 710.224609375 c 2
EndSplineSet
Validated: 524289
EndChar

StartChar: parenleft
Encoding: 40 40 8
Width: 550
VWidth: 901
GlyphClass: 2
Flags: W
HStem: -71.2461 92.6504<352.792 422.55> 664.004 89.2949<340.671 420.823>
VStem: 160.298 104.338<168.879 531.798>
LayerCount: 2
Fore
SplineSet
434.849609375 -27.896484375 m 0
 434.849609375 -40.36328125 430.030273438 -50.5634765625 420.397460938 -58.49609375 c 0
 410.764648438 -66.4287109375 400.564453125 -70.6787109375 389.796875 -71.24609375 c 0
 348.997070312 -71.24609375 312.447265625 -56.7958984375 280.147460938 -27.896484375 c 0
 247.84765625 1.00390625 221.780273438 40.103515625 201.947265625 89.404296875 c 0
 182.114257812 138.704101562 169.081054688 195.37109375 162.84765625 259.404296875 c 0
 161.1484375 276.970703125 160.297851562 298.788085938 160.297851562 324.854492188 c 0
 160.297851562 350.921875 161.998046875 383.504882812 165.3984375 422.604492188 c 0
 171.065429688 490.038085938 182.3984375 545.571289062 199.3984375 589.204101562 c 0
 206.764648438 609.037109375 216.681640625 628.303710938 229.149414062 647.00390625 c 0
 241.616210938 665.704101562 256.348632812 683.270507812 273.348632812 699.704101562 c 0
 289.782226562 715.571289062 308.19921875 728.603515625 328.598632812 738.803710938 c 0
 348.461914062 748.466796875 368.0703125 753.298828125 387.423828125 753.298828125 c 0
 388.5 753.298828125 389.575195312 753.284179688 390.649414062 753.25390625 c 0
 406.515625 753.25390625 418.416015625 748.436523438 426.348632812 738.803710938 c 0
 432.58203125 731.436523438 435.69921875 721.237304688 435.69921875 708.204101562 c 0
 435.69921875 692.904296875 430.881835938 681.571289062 421.249023438 674.204101562 c 0
 412.181640625 667.404296875 401.415039062 664.00390625 388.948242188 664.00390625 c 0
 376.481445312 664.00390625 364.581054688 660.037109375 353.248046875 652.103515625 c 0
 341.915039062 644.737304688 331.71484375 634.25390625 322.6484375 620.654296875 c 0
 304.514648438 593.454101562 290.915039062 559.454101562 281.84765625 518.654296875 c 0
 274.481445312 488.62109375 269.380859375 448.670898438 266.547851562 398.803710938 c 0
 265.2734375 379.25390625 264.635742188 361.298828125 264.635742188 344.936523438 c 0
 264.635742188 339.482421875 264.706054688 334.204101562 264.84765625 329.103515625 c 0
 264.84765625 308.704101562 265.415039062 290.571289062 266.547851562 274.704101562 c 0
 269.380859375 241.270507812 275.331054688 208.404296875 284.3984375 176.103515625 c 0
 293.46484375 143.803710938 304.232421875 116.603515625 316.69921875 94.50390625 c 0
 328.598632812 71.8369140625 341.348632812 53.7041015625 354.94921875 40.103515625 c 0
 367.416015625 27.63671875 379.033203125 21.404296875 389.799804688 21.404296875 c 0
 403.399414062 21.404296875 414.450195312 17.720703125 422.950195312 10.353515625 c 0
 430.8828125 2.9873046875 434.849609375 -9.7626953125 434.849609375 -27.896484375 c 0
EndSplineSet
Validated: 524289
EndChar

StartChar: parenright
Encoding: 41 41 9
Width: 550
VWidth: 901
GlyphClass: 2
Flags: W
HStem: -71.2422 92.6494<173.4 243.122> 664.009 89.335<175.176 255.895>
VStem: 331.363 104.336<171.545 530.138>
LayerCount: 2
Fore
SplineSet
206.200195312 -71.2421875 m 0
 195.432617188 -71.2421875 185.233398438 -66.9912109375 175.600585938 -58.4912109375 c 0
 165.967773438 -50.55859375 161.150390625 -40.3583984375 161.150390625 -27.8916015625 c 0
 161.150390625 -9.7587890625 165.118164062 2.9912109375 173.05078125 10.3583984375 c 0
 180.455078125 17.7626953125 190.573242188 21.4638671875 203.407226562 21.4638671875 c 0
 204.325195312 21.4638671875 205.255859375 21.4453125 206.201171875 21.4072265625 c 0
 216.400390625 21.4072265625 227.733398438 27.640625 240.201171875 40.107421875 c 0
 254.368164062 53.7080078125 267.400390625 71.8408203125 279.30078125 94.5078125 c 0
 291.201171875 117.174804688 301.967773438 144.375 311.600585938 176.107421875 c 0
 320.66796875 208.407226562 326.618164062 241.274414062 329.451171875 274.708007812 c 0
 330.725585938 287.45703125 331.36328125 301.163085938 331.36328125 315.825195312 c 0
 331.36328125 320.712890625 331.29296875 325.70703125 331.150390625 330.807617188 c 0
 331.150390625 350.640625 330.583984375 373.307617188 329.451171875 398.807617188 c 0
 326.618164062 448.674804688 321.517578125 488.625 314.150390625 518.657226562 c 0
 305.083984375 558.890625 291.483398438 592.890625 273.350585938 620.657226562 c 0
 264.850585938 634.2578125 254.650390625 644.740234375 242.750976562 652.107421875 c 0
 231.41796875 659.474609375 219.517578125 663.44140625 207.05078125 664.008789062 c 0
 194.583984375 664.008789062 183.81640625 667.408203125 174.75 674.208007812 c 0
 165.1171875 681.575195312 160.299804688 692.908203125 160.299804688 708.208007812 c 0
 160.299804688 716.708007812 161.716796875 724.358398438 164.549804688 731.158203125 c 0
 167.3828125 737.391601562 171.6328125 742.491210938 177.299804688 746.458007812 c 0
 184.439453125 751.047851562 192.7265625 753.34375 202.161132812 753.34375 c 0
 203.209960938 753.34375 204.272460938 753.315429688 205.349609375 753.258789062 c 0
 226.31640625 753.258789062 247 748.44140625 267.400390625 738.80859375 c 0
 287.799804688 728.608398438 306.216796875 715.575195312 322.650390625 699.708007812 c 0
 339.083007812 683.841796875 353.533203125 666.274414062 366 647.0078125 c 0
 378.466796875 628.307617188 388.666992188 609.041015625 396.599609375 589.208007812 c 0
 413.033203125 545.57421875 424.366210938 490.041015625 430.598632812 422.608398438 c 0
 433.999023438 383.508789062 435.69921875 350.92578125 435.69921875 324.858398438 c 0
 435.69921875 298.791015625 434.848632812 276.974609375 433.149414062 259.407226562 c 0
 426.916015625 195.375 413.8828125 138.708007812 394.049804688 89.4072265625 c 0
 374.216796875 40.107421875 347.8671875 1.0078125 315 -27.892578125 c 0
 283.266601562 -56.7919921875 247 -71.2421875 206.200195312 -71.2421875 c 0
EndSplineSet
Validated: 524289
EndChar

StartChar: asterisk
Encoding: 42 42 10
Width: 550
VWidth: 902
GlyphClass: 2
Flags: W
HStem: 297.702 101.15<88.5012 210.427 414.809 513.055> 301.951 85.8516<377.05 475.54>
LayerCount: 2
Fore
SplineSet
224.049804688 138.75 m 2x40
 215.546875 138.75 l 2
 211.580078125 138.75 206.622070312 139.3203125 200.671875 140.453125 c 0
 194.72265625 141.586914062 188.9140625 143.850585938 183.247070312 147.25 c 0
 177.580078125 150.650390625 172.48046875 155.75390625 167.947265625 162.553710938 c 0
 163.4140625 169.353515625 160.296875 177.287109375 158.59765625 186.353515625 c 2
 158.59765625 192.303710938 l 2
 158.59765625 200.803710938 160.864257812 209.583984375 165.397460938 218.651367188 c 2
 212.147460938 294.303710938 l 1
 175.314453125 292.037109375 147.264648438 290.903320312 127.997070312 290.903320312 c 0
 110.997070312 290.903320312 97.6806640625 296.5703125 88.046875 307.903320312 c 0
 79.546875 318.103515625 75.0146484375 330.00390625 74.447265625 343.603515625 c 2
 74.447265625 346.153320312 l 2
 74.447265625 357.486328125 77.564453125 368.819335938 83.796875 380.15234375 c 0
 87.7646484375 386.953125 93.7138671875 392.052734375 101.647460938 395.453125 c 0
 107.879882812 398.286132812 114.680664062 399.703125 122.046875 399.703125 c 2
 126.296875 399.703125 l 2
 148.963867188 398.002929688 180.981445312 395.736328125 222.34765625 392.90234375 c 1
 202.514648438 425.76953125 185.797851562 451.552734375 172.198242188 470.252929688 c 0
 164.264648438 483.286132812 160.297851562 496.036132812 160.297851562 508.502929688 c 0
 160.297851562 510.76953125 160.581054688 513.037109375 161.1484375 515.303710938 c 0
 162.84765625 531.170898438 169.6484375 542.220703125 181.547851562 548.453125 c 0
 188.915039062 552.986328125 197.2734375 555.25390625 206.623046875 555.25390625 c 0
 215.97265625 555.25390625 225.46484375 552.419921875 235.09765625 546.752929688 c 0
 244.731445312 541.0859375 252.380859375 532.870117188 258.047851562 522.102539062 c 0
 263.71484375 510.203125 277.315429688 483.569335938 298.84765625 442.203125 c 1
 315.28125 471.669921875 328.880859375 498.01953125 339.6484375 521.252929688 c 0
 344.748046875 532.01953125 351.831054688 540.094726562 360.8984375 545.477539062 c 0
 369.96484375 550.861328125 378.748046875 553.552734375 387.248046875 553.552734375 c 0
 396.315429688 553.552734375 404.815429688 551.286132812 412.748046875 546.752929688 c 0
 420.115234375 542.786132812 426.065429688 536.977539062 430.59765625 529.328125 c 0
 435.130859375 521.677734375 437.3984375 512.752929688 437.3984375 502.552734375 c 0
 437.3984375 491.219726562 433.998046875 480.736328125 427.198242188 471.103515625 c 0
 411.8984375 448.436523438 394.8984375 420.669921875 376.198242188 387.802734375 c 1x40
 415.297851562 388.370117188 443.630859375 391.203125 461.198242188 396.302734375 c 0
 468.565429688 398.002929688 473.381835938 398.852539062 475.6484375 398.852539062 c 0x80
 486.416015625 398.852539062 495.765625 395.169921875 503.69921875 387.802734375 c 0x40
 515.032226562 377.036132812 520.982421875 365.418945312 521.548828125 352.952148438 c 0
 521.548828125 340.485351562 518.431640625 328.584960938 512.19921875 317.251953125 c 0
 508.232421875 310.452148438 502.848632812 305.069335938 496.048828125 301.1015625 c 0
 490.94921875 298.834960938 485.565429688 297.702148438 479.8984375 297.702148438 c 0x80
 477.065429688 297.702148438 474.232421875 297.985351562 471.399414062 298.551757812 c 0
 459.594726562 300.913085938 440.315429688 302.092773438 413.560546875 302.092773438 c 0
 408.206054688 302.092773438 402.552734375 302.045898438 396.599609375 301.951171875 c 2
 377.049804688 301.951171875 l 1
 425.5 218.651367188 l 2
 431.732421875 206.184570312 434.849609375 194.8515625 434.849609375 184.651367188 c 0
 434.849609375 182.383789062 434.56640625 180.1171875 434 177.850585938 c 0
 432.299804688 164.25 426.349609375 154.6171875 416.149414062 148.950195312 c 0
 408.216796875 143.850585938 398.299804688 141.30078125 386.399414062 141.30078125 c 0
 377.333007812 141.30078125 368.265625 143.283203125 359.19921875 147.25 c 0
 347.866210938 152.350585938 340.215820312 160.850585938 336.249023438 172.75 c 0
 330.015625 191.450195312 318.682617188 217.517578125 302.25 250.950195312 c 1
 281.283203125 209.017578125 267.965820312 180.966796875 262.298828125 166.80078125 c 0
 259.465820312 157.733398438 254.5078125 150.93359375 247.424804688 146.400390625 c 0
 240.341796875 141.8671875 232.549804688 139.317382812 224.049804688 138.75 c 2x40
EndSplineSet
Validated: 524289
EndChar

StartChar: plus
Encoding: 43 43 11
Width: 550
VWidth: 909
GlyphClass: 2
Flags: W
HStem: 354.024 90.0986<138.601 252.099 341.349 459.177>
VStem: 252.099 89.25<237.896 353.173 444.973 564.475>
LayerCount: 2
Fore
SplineSet
340.5 354.875 m 1
 341.348632812 272.423828125 l 2
 341.348632812 255.991210938 337.381835938 244.374023438 329.44921875 237.57421875 c 0
 321.515625 230.20703125 311.598632812 226.240234375 299.69921875 225.672851562 c 2
 298.848632812 225.672851562 l 2
 285.249023438 225.672851562 274.765625 228.790039062 267.399414062 235.0234375 c 0
 257.19921875 242.956054688 252.098632812 255.422851562 252.098632812 272.422851562 c 2
 252.098632812 353.172851562 l 1
 176.44921875 352.323242188 l 2
 159.44921875 352.323242188 146.69921875 356.856445312 138.19921875 365.922851562 c 0
 129.131835938 374.990234375 124.598632812 386.040039062 124.598632812 399.073242188 c 2
 124.598632812 401.623046875 l 2
 124.598632812 413.5234375 128.56640625 424.005859375 136.499023438 433.073242188 c 0
 144.999023438 442.139648438 157.181640625 446.672851562 173.048828125 446.672851562 c 0
 174.181640625 446.672851562 183.249023438 446.389648438 200.249023438 445.823242188 c 0
 217.249023438 445.255859375 234.532226562 444.97265625 252.098632812 444.97265625 c 1
 252.098632812 478.40625 251.249023438 506.739257812 249.548828125 529.97265625 c 0
 249.548828125 545.838867188 254.931640625 557.456054688 265.69921875 564.823242188 c 0
 273.631835938 570.490234375 283.83203125 573.323242188 296.298828125 573.323242188 c 2
 299.69921875 573.323242188 l 2
 311.598632812 573.323242188 321.798828125 570.490234375 330.298828125 564.823242188 c 0
 339.931640625 558.0234375 344.749023438 546.97265625 344.749023438 531.672851562 c 2
 344.749023438 526.573242188 l 2
 343.048828125 497.672851562 341.916015625 470.190429688 341.348632812 444.123046875 c 1
 424.649414062 444.123046875 l 2
 441.08203125 444.123046875 452.69921875 440.15625 459.499023438 432.22265625 c 0
 466.298828125 424.290039062 470.265625 414.373046875 471.399414062 402.47265625 c 2
 471.399414062 401.623046875 l 2
 471.399414062 395.389648438 470.83203125 390.006835938 469.69921875 385.473632812 c 0
 468.56640625 380.374023438 466.298828125 375.2734375 462.899414062 370.173828125 c 0
 458.931640625 363.940429688 453.548828125 359.408203125 446.749023438 356.57421875 c 0
 441.649414062 354.875 435.982421875 354.024414062 429.749023438 354.024414062 c 2
 423.798828125 354.024414062 l 2
 415.298828125 355.158203125 403.116210938 355.724609375 387.249023438 355.724609375 c 0
 370.81640625 355.724609375 355.232421875 355.44140625 340.5 354.875 c 1
EndSplineSet
Validated: 524289
EndChar

StartChar: comma
Encoding: 44 44 12
Width: 550
VWidth: 845
GlyphClass: 2
Flags: W
VStem: 200.253 195.499
LayerCount: 2
Fore
SplineSet
273.350585938 -194.5 m 0
 264.283203125 -197.900390625 256.3515625 -199.598632812 249.551757812 -199.598632812 c 0
 242.751953125 -199.598632812 236.801757812 -198.465820312 231.702148438 -196.19921875 c 0
 224.334960938 -193.932617188 217.53515625 -189.682617188 211.301757812 -183.44921875 c 0
 205.069335938 -177.215820312 201.385742188 -169.283203125 200.252929688 -159.650390625 c 2
 200.252929688 -154.549804688 l 2
 200.252929688 -146.049804688 203.0859375 -137.549804688 208.752929688 -129.049804688 c 0
 220.0859375 -113.182617188 235.953125 -76.6328125 256.352539062 -19.400390625 c 0
 276.752929688 36.7001953125 289.502929688 76.650390625 294.602539062 100.450195312 c 0
 296.870117188 110.650390625 301.969726562 118.583007812 309.903320312 124.25 c 0
 317.8359375 130.483398438 326.619140625 133.599609375 336.251953125 133.599609375 c 2
 337.952148438 133.599609375 l 2
 344.751953125 133.599609375 351.834960938 133.033203125 359.202148438 131.900390625 c 0
 370.53515625 128.5 379.884765625 121.700195312 387.251953125 111.5 c 0
 392.918945312 103.567382812 395.751953125 94.7841796875 395.751953125 85.1513671875 c 0
 395.751953125 81.18359375 395.46875 77.7841796875 394.90234375 74.951171875 c 0
 389.235351562 47.18359375 376.768554688 4.1171875 357.500976562 -54.25 c 0
 338.234375 -113.182617188 323.500976562 -149.733398438 313.30078125 -163.900390625 c 0
 302.534179688 -178.6328125 289.217773438 -188.833007812 273.350585938 -194.5 c 0
EndSplineSet
Validated: 524289
EndChar

StartChar: hyphen
Encoding: 45 45 13
Width: 550
VWidth: 893
GlyphClass: 2
Flags: W
HStem: 238.626 95.1992<171.723 427.728> 246.277 90.0996<309.672 427.728>
VStem: 156.05 283.9<262.774 324.103>
LayerCount: 2
Fore
SplineSet
201.950195312 333.825195312 m 0xa0
 234.25 333.825195312 272.5 334.109375 316.700195312 334.67578125 c 0
 361.466796875 335.243164062 386.966796875 335.809570312 393.200195312 336.376953125 c 0
 409.6328125 336.376953125 421.25 332.41015625 428.049804688 324.4765625 c 0
 434.849609375 316.543945312 438.817382812 306.626953125 439.950195312 294.7265625 c 2
 439.950195312 293.876953125 l 2
 439.950195312 280.27734375 436.833007812 269.793945312 430.599609375 262.426757812 c 0
 422.666992188 252.2265625 410.200195312 246.84375 393.200195312 246.27734375 c 0x60
 385.833007812 246.27734375 357.215820312 245.143554688 307.349609375 242.876953125 c 0
 257.482421875 240.610351562 222.631835938 239.193359375 202.798828125 238.625976562 c 0
 189.765625 238.625976562 179.283203125 242.026367188 171.349609375 248.826171875 c 0
 161.150390625 256.758789062 156.049804688 268.942382812 156.049804688 285.375 c 2
 156.049804688 289.625 l 2
 156.049804688 305.4921875 161.150390625 317.392578125 171.349609375 325.325195312 c 0
 178.716796875 330.9921875 188.916992188 333.825195312 201.950195312 333.825195312 c 0xa0
EndSplineSet
Validated: 524289
EndChar

StartChar: period
Encoding: 46 46 14
Width: 550
VWidth: 859
GlyphClass: 2
Flags: W
HStem: -12.6475 151.331<244.324 352.341>
VStem: 218.028 158.981<13.8255 112.81>
LayerCount: 2
Fore
SplineSet
291.127929688 -12.6474609375 m 2
 271.294921875 -12.6474609375 254.579101562 -5.84765625 240.978515625 7.7529296875 c 0
 225.678710938 23.6201171875 218.028320312 42.037109375 218.028320312 63.00390625 c 0
 218.028320312 83.970703125 226.528320312 101.8203125 243.528320312 116.553710938 c 0
 260.467773438 131.306640625 279.250976562 138.68359375 299.877929688 138.68359375 c 0
 300.642578125 138.68359375 301.409179688 138.673828125 302.178710938 138.653320312 c 0
 323.711914062 138.653320312 341.561523438 131.853515625 355.728515625 118.25390625 c 0
 369.916015625 104.06640625 377.009765625 87.251953125 377.009765625 67.8095703125 c 0
 377.009765625 56.6474609375 376.46875 33.5732421875 356.578125 12.8525390625 c 0
 342.411132812 -1.314453125 323.7109375 -9.814453125 300.477539062 -12.6474609375 c 2
 291.127929688 -12.6474609375 l 2
EndSplineSet
Validated: 524289
EndChar

StartChar: slash
Encoding: 47 47 15
Width: 550
VWidth: 901
GlyphClass: 2
Flags: W
HStem: -10.9971 21G<113.795 121.728>
LayerCount: 2
Fore
SplineSet
141.5625 -5.0498046875 m 0
 133.629882812 -9.0166015625 125.694335938 -10.9970703125 117.76171875 -10.9970703125 c 0
 109.828125 -10.9970703125 102.461914062 -8.73046875 95.662109375 -4.197265625 c 0
 84.328125 2.6025390625 77.5283203125 15.6357421875 75.26171875 34.9033203125 c 0
 74.6943359375 37.736328125 74.6943359375 40.8525390625 75.26171875 44.2529296875 c 0
 75.26171875 59.552734375 79.228515625 73.7197265625 87.162109375 86.7529296875 c 0
 169.89453125 222.752929688 240.727539062 343.453125 299.661132812 448.852539062 c 1
 336.494140625 513.453125 375.59375 587.120117188 416.9609375 669.852539062 c 0
 422.627929688 680.620117188 429.995117188 688.552734375 439.061523438 693.653320312 c 0
 448.12890625 699.3203125 457.1953125 702.436523438 466.262695312 703.00390625 c 0
 475.329101562 703.00390625 484.396484375 701.020507812 493.462890625 697.053710938 c 0
 506.49609375 690.25390625 514.99609375 680.053710938 518.962890625 666.454101562 c 0
 520.096679688 662.487304688 520.663085938 658.51953125 520.663085938 654.552734375 c 0
 520.663085938 644.919921875 517.830078125 634.153320312 512.163085938 622.252929688 c 0
 497.430664062 592.786132812 456.063476562 521.668945312 388.063476562 408.90234375 c 0
 320.063476562 296.134765625 278.696289062 225.868164062 263.962890625 198.1015625 c 0
 254.896484375 180.534179688 240.163085938 150.784179688 219.763671875 108.8515625 c 0
 199.36328125 66.91796875 186.61328125 41.41796875 181.513671875 32.3515625 c 0
 170.74609375 14.7841796875 157.4296875 2.3173828125 141.5625 -5.0498046875 c 0
EndSplineSet
Validated: 524289
EndChar

StartChar: zero
Encoding: 48 48 16
Width: 550
VWidth: 902
GlyphClass: 2
Flags: W
HStem: 31.6494 91.7959<217.997 362.883> 572.246 90.1035<231.319 368.044>
VStem: 77.001 101.151<246.696 504.098> 417.284 101.718<188.819 441.346>
LayerCount: 2
Fore
SplineSet
416.151367188 441.345703125 m 1
 354.383789062 333.112304688 283.268554688 240.74609375 202.801757812 164.24609375 c 1
 218.1015625 137.612304688 243.034179688 124.012695312 277.600585938 123.4453125 c 0
 294.034179688 123.4453125 308.202148438 124.720703125 320.1015625 127.270507812 c 0
 332.001953125 129.8203125 343.334960938 133.928710938 354.1015625 139.595703125 c 0
 375.634765625 150.928710938 392.068359375 173.87890625 403.401367188 208.4453125 c 0
 405.66796875 215.24609375 408.217773438 233.520507812 411.05078125 263.270507812 c 0
 413.883789062 293.020507812 415.8671875 327.4453125 417 366.545898438 c 0
 417.189453125 375.049804688 417.284179688 383.491210938 417.284179688 391.869140625 c 0
 417.284179688 408.61328125 416.90625 425.10546875 416.151367188 441.345703125 c 1
349.8515625 562.047851562 m 0
 335.119140625 568.84765625 318.967773438 572.24609375 301.401367188 572.24609375 c 0
 270.234375 572.24609375 246.008789062 564.454101562 228.725585938 548.87109375 c 0
 211.443359375 533.288085938 197.985351562 506.795898438 188.3515625 469.395507812 c 0
 184.384765625 454.663085938 181.551757812 439.080078125 179.8515625 422.646484375 c 0
 178.71875 405.646484375 178.15234375 386.379882812 178.15234375 364.846679688 c 0
 178.15234375 330.846679688 179.000976562 291.463867188 180.701171875 246.696289062 c 1
 254.368164062 340.763671875 321.801757812 437.380859375 383.001953125 536.547851562 c 1
 373.369140625 547.314453125 362.318359375 555.814453125 349.8515625 562.047851562 c 0
514.75 469.395507812 m 2
 514.75 468.547851562 l 2
 517.583007812 435.115234375 519.001953125 401.112304688 519.001953125 366.545898438 c 0
 519.001953125 331.978515625 517.869140625 297.981445312 515.6015625 264.547851562 c 0
 513.334960938 231.115234375 509.65234375 204.765625 504.551757812 185.498046875 c 0
 494.3515625 149.231445312 481.6015625 119.764648438 466.301757812 97.09765625 c 0
 458.369140625 85.7646484375 449.443359375 76.130859375 439.52734375 68.1982421875 c 0
 429.610351562 60.265625 419.267578125 54.0322265625 408.500976562 49.4990234375 c 0
 397.16796875 44.9658203125 384.41796875 40.9990234375 370.250976562 37.5986328125 c 0
 355.517578125 34.765625 341.068359375 33.06640625 326.901367188 32.4990234375 c 0
 312.734375 31.9326171875 296.30078125 31.6494140625 277.600585938 31.6494140625 c 0
 247.000976562 31.6494140625 218.66796875 36.4658203125 192.600585938 46.0986328125 c 0
 168.234375 55.732421875 147.55078125 69.4736328125 130.55078125 87.32421875 c 0
 113.55078125 105.173828125 100.517578125 126.56640625 91.451171875 151.499023438 c 0
 82.3837890625 176.432617188 77.8505859375 203.348632812 77.8505859375 232.249023438 c 2
 77.8505859375 237.348632812 l 2
 77.8505859375 265.116210938 77.568359375 291.182617188 77.0009765625 315.549804688 c 0
 77.0009765625 333.1171875 77.42578125 354.650390625 78.2763671875 380.150390625 c 0
 79.1259765625 405.650390625 80.54296875 426.7578125 82.5263671875 443.474609375 c 0
 84.5087890625 460.19140625 87.484375 478.18359375 91.451171875 497.451171875 c 0
 95.41796875 517.284179688 100.517578125 534.56640625 106.750976562 549.299804688 c 0
 121.484375 586.1328125 146.133789062 614.182617188 180.701171875 633.450195312 c 0
 218.100585938 652.716796875 263.434570312 662.349609375 316.701171875 662.349609375 c 0
 343.333984375 662.349609375 368.267578125 658.3828125 391.5 650.450195312 c 0
 414.166992188 642.516601562 434.142578125 630.6171875 451.424804688 614.75 c 0
 468.708007812 598.8828125 482.875 578.625 493.924804688 553.974609375 c 0
 504.975585938 529.325195312 511.916992188 501.12890625 514.75 469.395507812 c 2
EndSplineSet
Validated: 524289
EndChar

StartChar: one
Encoding: 49 49 17
Width: 550
VWidth: 904
GlyphClass: 2
Flags: W
HStem: 46.4307 94.3516<81.6209 244.446 355.8 511.824>
VStem: 243.597 109.653<145.032 487.007> 253.797 104.553<380.243 526.682>
LayerCount: 2
Fore
SplineSet
525.799804688 96.5810546875 m 1xc0
 525.799804688 94.03125 l 2
 525.799804688 80.998046875 521.830078125 69.9482421875 513.897460938 60.880859375 c 0
 505.397460938 51.248046875 490.947265625 46.4306640625 470.546875 46.4306640625 c 0
 255.780273438 48.130859375 137.913085938 49.263671875 116.946289062 49.8310546875 c 0
 101.079101562 49.8310546875 89.1796875 54.3642578125 81.24609375 63.4306640625 c 0
 73.8798828125 72.498046875 70.1962890625 83.5478515625 70.1962890625 96.5810546875 c 2
 70.1962890625 99.130859375 l 2
 70.1962890625 111.59765625 73.5966796875 122.365234375 80.396484375 131.431640625 c 0
 88.3291015625 141.631835938 100.796875 146.731445312 117.795898438 146.731445312 c 0
 141.596679688 146.731445312 183.813476562 146.165039062 244.446289062 145.032226562 c 1
 244.446289062 162.032226562 244.163085938 176.198242188 243.596679688 187.532226562 c 0
 243.029296875 192.631835938 242.74609375 207.365234375 242.74609375 231.731445312 c 0
 242.74609375 253.264648438 243.029296875 270.83203125 243.596679688 284.431640625 c 0xc0
 243.596679688 299.731445312 244.729492188 330.33203125 246.99609375 376.231445312 c 0
 250.962890625 462.365234375 253.23046875 512.514648438 253.796875 526.681640625 c 1
 216.963867188 501.181640625 188.9140625 485.032226562 169.647460938 478.231445312 c 0
 162.84765625 476.532226562 158.314453125 475.681640625 156.046875 475.681640625 c 0
 145.84765625 475.681640625 135.647460938 479.931640625 125.447265625 488.431640625 c 0
 111.84765625 499.764648438 105.046875 511.381835938 105.046875 523.282226562 c 0
 105.046875 534.615234375 107.59765625 544.389648438 112.697265625 552.606445312 c 0
 117.796875 560.823242188 126.013671875 569.181640625 137.34765625 577.681640625 c 0
 153.213867188 589.58203125 174.180664062 605.448242188 200.248046875 625.282226562 c 1
 211.014648438 626.981445312 221.782226562 634.631835938 232.548828125 648.231445312 c 0
 242.181640625 655.032226562 252.098632812 661.264648438 262.298828125 666.931640625 c 0
 271.571289062 672.083007812 280.375 674.659179688 288.7109375 674.659179688 c 0
 289.544921875 674.659179688 290.374023438 674.633789062 291.19921875 674.58203125 c 0
 307.065429688 674.58203125 322.932617188 668.915039062 338.799804688 657.58203125 c 0
 347.299804688 651.348632812 353.674804688 645.681640625 357.924804688 640.58203125 c 0
 362.174804688 635.481445312 364.299804688 630.381835938 364.299804688 625.282226562 c 2
 364.299804688 624.431640625 l 2
 363.732421875 611.3984375 361.75 566.7734375 358.349609375 490.556640625 c 0xa0
 354.94921875 414.33984375 353.25 369.71484375 353.25 356.681640625 c 0
 353.25 302.282226562 353.533203125 256.948242188 354.099609375 220.681640625 c 0
 354.099609375 201.981445312 354.666992188 175.631835938 355.799804688 141.631835938 c 1
 386.399414062 141.064453125 405.94921875 140.782226562 414.44921875 140.782226562 c 0
 422.3828125 140.782226562 433.0078125 140.639648438 446.32421875 140.356445312 c 0
 459.641601562 140.073242188 468.283203125 139.931640625 472.250976562 139.931640625 c 0
 490.950195312 139.931640625 504.267578125 135.823242188 512.200195312 127.606445312 c 0
 520.133789062 119.389648438 524.666992188 109.33203125 525.799804688 97.431640625 c 2
 525.799804688 96.5810546875 l 1xc0
EndSplineSet
Validated: 524289
EndChar

StartChar: two
Encoding: 50 50 18
Width: 550
VWidth: 902
GlyphClass: 2
Flags: W
HStem: 37.3477 92.166<186.304 452.793> 42.4473 96.8994<455.516 504.232> 573.698 92.6504<232.574 376.136>
VStem: 397.452 107.1<437.124 554.868>
LayerCount: 2
Fore
SplineSet
455.25 138.5 m 1xb0
 460.916992188 145.866210938 466.870117188 146.146484375 473.102539062 139.346679688 c 0
 474.802734375 139.346679688 478.060546875 139.204101562 482.877929688 138.921875 c 0
 487.694335938 138.638671875 491.51953125 137.788085938 494.352539062 136.37109375 c 0
 497.185546875 134.954101562 500.018554688 133.396484375 502.8515625 131.696289062 c 0
 507.384765625 128.86328125 510.501953125 125.462890625 512.202148438 121.49609375 c 0
 515.6015625 114.696289062 517.301757812 106.763671875 517.301757812 97.6962890625 c 0
 517.301757812 81.263671875 513.051757812 67.3798828125 504.551757812 56.046875 c 0
 497.751953125 46.98046875 488.96875 42.447265625 478.202148438 42.447265625 c 0x70
 437.96875 42.447265625 373.369140625 40.7470703125 284.40234375 37.34765625 c 0
 254.369140625 36.2138671875 223.486328125 35.6474609375 191.752929688 35.6474609375 c 0
 162.286132812 35.6474609375 139.3359375 36.7802734375 122.903320312 39.046875 c 0
 113.8359375 40.1806640625 105.903320312 43.86328125 99.1025390625 50.0966796875 c 0
 94.0029296875 54.6298828125 90.0361328125 60.5791015625 87.203125 67.9462890625 c 0
 81.5361328125 82.6796875 78.703125 103.079101562 78.703125 129.146484375 c 0
 78.703125 155.212890625 84.0859375 181.563476562 94.8525390625 208.196289062 c 0
 105.620117188 234.829101562 121.76953125 260.471679688 143.302734375 285.12109375 c 0
 164.8359375 309.771484375 190.619140625 329.74609375 220.65234375 345.046875 c 0
 286.952148438 377.346679688 329.452148438 400.013671875 348.15234375 413.046875 c 0
 370.819335938 428.913085938 385.551757812 445.629882812 392.3515625 463.197265625 c 0
 395.751953125 473.963867188 397.452148438 487.28125 397.452148438 503.1484375 c 0
 397.452148438 528.081054688 389.801757812 545.930664062 374.501953125 556.698242188 c 0
 358.069335938 568.03125 333.418945312 573.698242188 300.551757812 573.698242188 c 0
 278.452148438 573.698242188 257.34375 567.46484375 237.2265625 554.998046875 c 0
 217.110351562 542.53125 201.384765625 528.6484375 190.051757812 513.34765625 c 0
 184.384765625 505.415039062 178.435546875 498.756835938 172.202148438 493.374023438 c 0
 165.96875 487.991210938 159.452148438 485.015625 152.65234375 484.44921875 c 0
 150.384765625 484.44921875 147.834960938 484.166015625 145.001953125 483.598632812 c 0
 139.334960938 483.598632812 129.985351562 486.431640625 116.952148438 492.098632812 c 0
 104.485351562 498.8984375 96.5517578125 508.532226562 93.15234375 520.999023438 c 0
 92.5849609375 524.3984375 92.3017578125 527.515625 92.3017578125 530.348632812 c 0
 92.3017578125 539.982421875 95.4189453125 551.598632812 101.65234375 565.19921875 c 0
 107.884765625 577.098632812 116.952148438 588.857421875 128.8515625 600.473632812 c 0
 140.751953125 612.090820312 154.3515625 622.999023438 169.65234375 633.19921875 c 0
 186.084960938 643.3984375 205.634765625 651.473632812 228.301757812 657.423828125 c 0
 250.96875 663.374023438 273.918945312 666.348632812 297.15234375 666.348632812 c 0
 366.8515625 666.348632812 418.985351562 651.8984375 453.551757812 622.999023438 c 0
 487.551757812 594.098632812 504.551757812 550.749023438 504.551757812 492.94921875 c 0
 504.551757812 445.348632812 491.801757812 406.815429688 466.301757812 377.348632812 c 0
 447.6015625 356.381835938 413.6015625 333.431640625 364.301757812 308.499023438 c 0
 351.834960938 302.265625 330.301757812 292.065429688 299.702148438 277.8984375 c 0
 274.202148438 265.999023438 252.952148438 251.407226562 235.952148438 234.124023438 c 0
 218.952148438 216.840820312 206.485351562 199.1328125 198.551757812 181 c 0
 192.319335938 165.700195312 188.069335938 149.266601562 185.801757812 131.700195312 c 1
 214.4609375 130.2421875 241.87109375 129.513671875 268.032226562 129.513671875 c 0
 272.389648438 129.513671875 276.712890625 129.534179688 281.000976562 129.575195312 c 0
 311.034179688 129.857421875 334.267578125 130.283203125 350.700195312 130.849609375 c 0
 367.700195312 131.982421875 402.55078125 134.533203125 455.25 138.5 c 1xb0
EndSplineSet
Validated: 524289
EndChar

StartChar: three
Encoding: 51 51 19
Width: 550
VWidth: 902
GlyphClass: 2
Flags: W
HStem: 31.9346 91.8145<222.493 368.931> 312.449 106.25<192.537 341.757> 573.399 92.6514<219.583 365.776>
VStem: 385.477 107.947<456.205 555.338> 406.725 105.4<158.827 272.805>
LayerCount: 2
Fore
SplineSet
502.775390625 289.923828125 m 0xf0
 509.0078125 271.506835938 512.125 249.829101562 512.125 224.896484375 c 0
 512.125 165.962890625 493.141601562 118.930664062 455.174804688 83.796875 c 0
 416.696289062 49.2216796875 361.478515625 31.9345703125 289.521484375 31.9345703125 c 0
 288.360351562 31.9345703125 287.1953125 31.939453125 286.025390625 31.9482421875 c 0
 262.791992188 31.9482421875 239.841796875 35.0654296875 217.174804688 41.2978515625 c 0
 194.5078125 47.53125 175.3828125 55.4638671875 159.799804688 65.09765625 c 0
 144.216796875 74.73046875 130.474609375 85.4970703125 118.575195312 97.3974609375 c 0
 106.674804688 109.296875 97.75 121.055664062 91.7998046875 132.671875 c 0
 85.849609375 144.2890625 82.875 155.197265625 82.875 165.397460938 c 0
 82.875 168.796875 83.4423828125 172.197265625 84.5751953125 175.59765625 c 0
 87.408203125 189.764648438 95.0576171875 199.680664062 107.525390625 205.34765625 c 0
 116.591796875 209.880859375 125.091796875 212.1484375 133.025390625 212.1484375 c 0
 150.025390625 212.1484375 165.325195312 203.081054688 178.924804688 184.948242188 c 0
 191.391601562 168.514648438 207.541992188 154.20703125 227.375 142.0234375 c 0
 247.208007812 129.840820312 268.174804688 123.749023438 290.275390625 123.749023438 c 0
 324.841796875 123.749023438 352.891601562 132.107421875 374.424804688 148.82421875 c 0
 395.958007812 165.541015625 406.724609375 186.6484375 406.724609375 212.1484375 c 0xe8
 406.724609375 228.58203125 403.891601562 242.607421875 398.224609375 254.223632812 c 0
 392.557617188 265.840820312 383.6328125 276.041015625 371.450195312 284.82421875 c 0
 359.266601562 293.607421875 341.984375 300.407226562 319.600585938 305.223632812 c 0
 297.217773438 310.041015625 269.875976562 312.44921875 237.576171875 312.44921875 c 0
 221.142578125 312.44921875 207.54296875 318.116210938 196.775390625 329.44921875 c 0
 185.442382812 340.782226562 179.775390625 353.532226562 179.775390625 367.69921875 c 0
 179.775390625 381.866210938 183.743164062 393.765625 191.67578125 403.3984375 c 0
 200.743164062 413.598632812 213.775390625 418.69921875 230.775390625 418.69921875 c 0
 280.642578125 418.69921875 319.459960938 426.916015625 347.2265625 443.348632812 c 0
 372.7265625 458.6484375 385.4765625 480.749023438 385.4765625 509.6484375 c 2
 385.4765625 512.19921875 l 1
 385.4765625 515.598632812 l 2
 385.4765625 534.866210938 377.543945312 549.033203125 361.676757812 558.099609375 c 0
 342.9765625 568.299804688 315.776367188 573.399414062 280.076171875 573.399414062 c 0
 269.309570312 573.399414062 257.692382812 571.700195312 245.225585938 568.299804688 c 0
 241.826171875 567.166992188 237.859375 565.041992188 233.326171875 561.924804688 c 0
 228.79296875 558.807617188 225.250976562 556.2578125 222.701171875 554.274414062 c 0
 220.150390625 552.291992188 216.750976562 549.033203125 212.500976562 544.500976562 c 0
 208.250976562 539.967773438 205.275390625 536.567382812 203.576171875 534.30078125 c 0
 200.17578125 523.533203125 197.05859375 519.56640625 194.225585938 522.399414062 c 1
 182.892578125 507.666992188 171.275390625 498.883789062 159.375976562 496.05078125 c 0
 155.975585938 494.91796875 152.29296875 494.350585938 148.326171875 494.350585938 c 0
 139.826171875 494.350585938 131.04296875 496.900390625 121.975585938 502.000976562 c 0
 109.508789062 508.233398438 101.859375 518.150390625 99.025390625 531.750976562 c 0
 98.458984375 535.150390625 98.17578125 538.55078125 98.17578125 541.950195312 c 0
 98.17578125 552.150390625 101.008789062 563.200195312 106.67578125 575.100585938 c 0
 118.576171875 599.467773438 136.993164062 620.150390625 161.92578125 637.150390625 c 0
 174.958984375 646.217773438 191.391601562 653.30078125 211.224609375 658.400390625 c 0
 231.057617188 663.500976562 252.590820312 666.05078125 275.82421875 666.05078125 c 0
 350.624023438 666.05078125 405.874023438 652.16796875 441.57421875 624.400390625 c 0
 476.140625 596.633789062 493.423828125 556.116210938 493.423828125 502.849609375 c 2
 493.423828125 499.450195312 l 1
 493.423828125 496.899414062 l 2
 493.423828125 481.033203125 491.015625 466.158203125 486.19921875 452.274414062 c 0
 481.381835938 438.391601562 474.865234375 426.633789062 466.6484375 417.000976562 c 0
 458.431640625 407.3671875 448.65625 398.8671875 437.323242188 391.500976562 c 0
 425.990234375 384.133789062 414.373046875 378.466796875 402.473632812 374.5 c 1
 411.540039062 371.666992188 419.756835938 368.833984375 427.124023438 366.000976562 c 0
 444.69140625 358.633789062 460.1328125 348.716796875 473.450195312 336.25 c 0
 486.766601562 323.783203125 496.541992188 308.340820312 502.775390625 289.923828125 c 0xf0
EndSplineSet
Validated: 524289
EndChar

StartChar: four
Encoding: 52 52 20
Width: 550
VWidth: 902
GlyphClass: 2
Flags: W
HStem: 238.799 76.501<187.683 359.198 445.05 502.992>
VStem: 353.25 75.6494<392.344 553.299> 359.198 92.6514<44.0773 237.95> 359.198 85.002<315.3 551.981>
LayerCount: 2
Fore
SplineSet
450.149414062 102.799804688 m 0x90
 451.283203125 96 451.849609375 89.7666015625 451.849609375 84.099609375 c 0
 451.849609375 72.7666015625 449.583007812 62.849609375 445.049804688 54.349609375 c 0
 437.682617188 40.1826171875 426.916015625 33.099609375 412.749023438 33.099609375 c 0
 400.848632812 33.099609375 389.090820312 37.4921875 377.473632812 46.275390625 c 0
 365.857421875 55.0576171875 359.764648438 64.265625 359.198242188 73.8994140625 c 0xa0
 358.630859375 80.69921875 358.348632812 91.4658203125 358.348632812 106.19921875 c 2
 358.348632812 170.798828125 l 2
 358.348632812 194.032226562 358.630859375 216.69921875 359.198242188 238.798828125 c 1x90
 320.948242188 238.798828125 l 2
 237.081054688 238.798828125 177.864257812 235.116210938 143.296875 227.749023438 c 0
 139.330078125 226.616210938 135.080078125 226.19140625 130.546875 226.473632812 c 0
 126.014648438 226.756835938 121.481445312 227.46484375 116.948242188 228.598632812 c 0
 109.015625 231.431640625 102.640625 235.823242188 97.8232421875 241.7734375 c 0
 93.005859375 247.723632812 89.3232421875 254.5234375 86.7734375 262.172851562 c 0
 84.2236328125 269.823242188 82.9482421875 277.615234375 82.9482421875 285.547851562 c 0
 82.9482421875 294.615234375 84.365234375 303.115234375 87.1982421875 311.047851562 c 0
 92.865234375 327.481445312 108.165039062 353.40625 133.098632812 388.823242188 c 0
 158.03125 424.240234375 190.8984375 468.297851562 231.698242188 520.998046875 c 0
 267.96484375 567.46484375 296.865234375 605.432617188 318.3984375 634.899414062 c 0
 326.331054688 645.666015625 335.3984375 654.024414062 345.598632812 659.973632812 c 0
 355.797851562 665.923828125 365.71484375 668.899414062 375.348632812 668.899414062 c 2
 381.297851562 668.899414062 l 2
 391.498046875 668.899414062 400.848632812 666.916015625 409.348632812 662.94921875 c 0
 420.115234375 657.282226562 426.631835938 647.649414062 428.899414062 634.048828125 c 2
 428.899414062 633.19921875 l 1xc0
 432.298828125 613.366210938 435.131835938 583.19140625 437.399414062 542.673828125 c 0
 439.666015625 502.157226562 441.083007812 467.732421875 441.649414062 439.399414062 c 0
 442.216796875 397.465820312 443.06640625 355.81640625 444.200195312 314.44921875 c 1
 452.700195312 313.881835938 462.049804688 313.598632812 472.25 313.598632812 c 0
 486.982421875 313.598632812 497.325195312 310.340820312 503.274414062 303.82421875 c 0
 509.224609375 297.307617188 512.482421875 288.94921875 513.049804688 278.749023438 c 2
 513.049804688 277.900390625 l 2
 513.049804688 266 510.216796875 256.650390625 504.549804688 249.849609375 c 0
 497.75 241.349609375 486.982421875 237.099609375 472.25 237.099609375 c 0
 462.6171875 237.099609375 453.549804688 237.3828125 445.049804688 237.950195312 c 1
 446.182617188 159.182617188 447.8828125 114.1328125 450.149414062 102.799804688 c 0x90
301.399414062 315.299804688 m 2
 359.198242188 315.299804688 l 1x90
 359.198242188 413.333007812 357.216796875 492.666015625 353.25 553.298828125 c 1xc0
 272.783203125 451.866210938 217.25 371.682617188 186.649414062 312.75 c 1
 218.3828125 314.450195312 256.6328125 315.299804688 301.399414062 315.299804688 c 2
EndSplineSet
Validated: 524289
EndChar

StartChar: five
Encoding: 53 53 21
Width: 550
VWidth: 902
GlyphClass: 2
Flags: W
HStem: 36.748 92.6504<203.488 350.991> 398.848 96.0859<234.151 387.054> 567.146 88.3984<187.424 467.402>
VStem: 83.7246 101.149<448.516 564.595> 415.223 105.401<199.306 369.924>
LayerCount: 2
Fore
SplineSet
87.974609375 528.899414062 m 0
 89.107421875 546.465820312 89.669921875 559.493164062 89.669921875 567.993164062 c 1
 83.9560546875 577.342773438 81.099609375 588.12109375 81.099609375 600.327148438 c 0
 81.099609375 611.431640625 81.5498046875 631.234375 98.1708984375 646.193359375 c 0
 106.103515625 653.560546875 115.170898438 657.243164062 125.37109375 657.243164062 c 0
 146.337890625 657.243164062 199.037109375 656.676757812 283.470703125 655.543945312 c 0
 369.037109375 654.41015625 432.220703125 653.84375 473.020507812 653.84375 c 0
 483.787109375 653.84375 492.5703125 649.310546875 499.37109375 640.243164062 c 0
 507.87109375 628.91015625 512.12109375 615.02734375 512.12109375 598.594726562 c 0
 512.12109375 581.594726562 507.303710938 570.26171875 497.670898438 564.594726562 c 0
 494.837890625 562.89453125 492.004882812 561.477539062 489.171875 560.344726562 c 0
 486.338867188 559.2109375 482.513671875 558.502929688 477.696289062 558.219726562 c 0
 472.879882812 557.9375 469.479492188 557.794921875 467.49609375 557.794921875 c 0
 465.513671875 557.794921875 462.396484375 557.9375 458.146484375 558.219726562 c 0
 453.896484375 558.502929688 451.204101562 558.645507812 450.071289062 558.645507812 c 1
 442.138671875 558.645507812 427.405273438 559.778320312 405.872070312 562.044921875 c 0
 383.205078125 563.745117188 363.23046875 565.020507812 345.947265625 565.870117188 c 0
 328.6640625 566.719726562 305.431640625 567.145507812 276.248046875 567.145507812 c 0
 247.065429688 567.145507812 217.45703125 566.294921875 187.423828125 564.594726562 c 1
 185.610351562 530.59765625 184.704101562 507.478515625 184.704101562 495.23828125 c 0
 184.704101562 492.176757812 184.760742188 489.795898438 184.874023438 488.094726562 c 0
 184.874023438 477.895507812 184.732421875 470.669921875 184.44921875 466.419921875 c 0
 184.166015625 462.169921875 184.307617188 456.078125 184.875 448.145507812 c 1
 200.174804688 459.478515625 218.591796875 469.395507812 240.125 477.895507812 c 0
 269.874023438 489.25390625 303.237304688 494.93359375 340.215820312 494.93359375 c 0
 341.9765625 494.93359375 343.747070312 494.920898438 345.524414062 494.895507812 c 0
 374.9921875 494.895507812 401.341796875 490.078125 424.575195312 480.4453125 c 0
 446.107421875 470.8125 463.815429688 457.354492188 477.69921875 440.071289062 c 0
 491.58203125 422.788085938 502.20703125 402.955078125 509.57421875 380.572265625 c 0
 516.940429688 358.188476562 520.624023438 333.963867188 520.624023438 307.896484375 c 0
 520.624023438 265.963867188 515.241210938 227.85546875 504.473632812 193.572265625 c 0
 493.70703125 159.290039062 478.264648438 130.672851562 458.1484375 107.72265625 c 0
 438.03125 84.7724609375 412.956054688 67.34765625 382.922851562 55.447265625 c 0
 352.323242188 42.98046875 319.172851562 36.748046875 283.47265625 36.748046875 c 0
 255.139648438 36.748046875 228.790039062 39.5810546875 204.422851562 45.248046875 c 0
 180.623046875 50.9150390625 161.356445312 58.28125 146.623046875 67.3486328125 c 0
 131.889648438 76.4150390625 119.422851562 86.33203125 109.22265625 97.099609375 c 0
 99.0234375 107.866210938 90.5234375 119.19921875 83.72265625 131.099609375 c 0
 77.490234375 144.69921875 74.373046875 156.31640625 74.373046875 165.94921875 c 0
 74.373046875 169.349609375 74.9404296875 172.749023438 76.0732421875 176.149414062 c 0
 78.90625 188.616210938 86.8388671875 198.249023438 99.8720703125 205.049804688 c 0
 106.671875 207.8828125 112.197265625 209.865234375 116.447265625 210.998046875 c 0
 120.697265625 212.131835938 124.379882812 212.698242188 127.497070312 212.698242188 c 0
 130.614257812 212.698242188 133.022460938 212.415039062 134.72265625 211.848632812 c 0
 142.088867188 211.28125 148.889648438 208.165039062 155.122070312 202.498046875 c 0
 160.22265625 197.96484375 165.60546875 191.731445312 171.272460938 183.798828125 c 0
 196.772460938 147.53125 231.055664062 129.3984375 274.122070312 129.3984375 c 0
 317.189453125 129.3984375 351.189453125 144.131835938 376.122070312 173.598632812 c 0
 402.189453125 204.198242188 415.22265625 245.565429688 415.22265625 297.698242188 c 0
 415.22265625 329.431640625 407.2890625 354.364257812 391.421875 372.498046875 c 0
 376.689453125 390.064453125 353.456054688 398.84765625 321.72265625 398.84765625 c 0
 306.990234375 398.84765625 291.407226562 397.147460938 274.973632812 393.748046875 c 0
 267.041015625 392.047851562 255.991210938 388.081054688 241.82421875 381.84765625 c 0
 238.423828125 380.147460938 234.032226562 377.314453125 228.649414062 373.34765625 c 0
 223.265625 369.380859375 219.723632812 366.547851562 218.024414062 364.84765625 c 0
 208.390625 356.915039062 200.458007812 350.114257812 194.224609375 344.447265625 c 0
 181.19140625 333.680664062 166.174804688 327.447265625 149.174804688 325.748046875 c 2
 143.224609375 325.748046875 l 2
 135.291992188 325.748046875 127.641601562 327.447265625 120.274414062 330.84765625 c 0
 108.375 335.947265625 99.3076171875 346.71484375 93.0751953125 363.147460938 c 0
 87.974609375 377.314453125 84.857421875 394.881835938 83.724609375 415.848632812 c 0
 83.44140625 420.381835938 83.2998046875 424.915039062 83.2998046875 429.44921875 c 0
 83.2998046875 433.982421875 83.44140625 438.515625 83.724609375 443.049804688 c 0
 83.724609375 462.8828125 85.1416015625 491.499023438 87.974609375 528.899414062 c 0
EndSplineSet
Validated: 524289
EndChar

StartChar: six
Encoding: 54 54 22
Width: 550
VWidth: 903
GlyphClass: 2
Flags: W
HStem: 34.9199 91.7969<230.535 360.105> 376.618 96.9014<225.897 389.991>
VStem: 72.751 98.5996<191.193 332.616> 418.7 104.551<187.652 347.737>
LayerCount: 2
Fore
SplineSet
510.5 360.471679688 m 0
 519 333.837890625 523.250976562 302.953125 523.250976562 267.819335938 c 0
 523.250976562 235.51953125 517.583984375 205.203125 506.250976562 176.870117188 c 0
 484.151367188 119.069335938 445.618164062 77.703125 390.651367188 52.76953125 c 0
 363.0078125 40.8447265625 333.55078125 34.8828125 302.278320312 34.8828125 c 0
 300.856445312 34.8828125 299.430664062 34.8955078125 298.000976562 34.919921875 c 0
 258.333984375 34.919921875 223.201171875 41.7197265625 192.600585938 55.3193359375 c 0
 163.701171875 69.486328125 140.609375 89.3193359375 123.326171875 114.819335938 c 0
 106.04296875 140.319335938 93.29296875 169.927734375 85.076171875 203.64453125 c 0
 76.859375 237.361328125 72.7509765625 274.336914062 72.7509765625 314.569335938 c 0
 72.7509765625 365.569335938 77.708984375 411.044921875 87.6259765625 450.995117188 c 0
 97.54296875 490.944335938 110.859375 524.377929688 127.577148438 551.294921875 c 0
 144.293945312 578.211914062 165.401367188 600.736328125 190.901367188 618.870117188 c 0
 217.53515625 637.569335938 246.434570312 651.736328125 277.6015625 661.370117188 c 0
 308.768554688 671.002929688 343.051757812 677.235351562 380.452148438 680.069335938 c 2
 389.801757812 680.069335938 l 2
 402.834960938 680.069335938 414.16796875 677.801757812 423.80078125 673.268554688 c 0
 436.833984375 667.036132812 444.484375 657.119140625 446.750976562 643.518554688 c 2
 446.750976562 640.119140625 l 2
 446.750976562 631.619140625 442.500976562 622.8359375 434.000976562 613.768554688 c 0
 424.93359375 604.702148438 414.451171875 598.46875 402.55078125 595.069335938 c 0
 395.750976562 593.369140625 385.267578125 591.244140625 371.100585938 588.694335938 c 0
 356.93359375 586.143554688 345.034179688 583.735351562 335.401367188 581.46875 c 0
 325.767578125 579.202148438 314.717773438 575.801757812 302.250976562 571.268554688 c 0
 277.318359375 562.202148438 252.100585938 544.918945312 226.600585938 519.418945312 c 0
 213.568359375 505.819335938 201.66796875 487.40234375 190.901367188 464.168945312 c 0
 185.80078125 452.268554688 181.267578125 441.21875 177.30078125 431.018554688 c 1
 192.600585938 441.786132812 209.883789062 450.286132812 229.151367188 456.518554688 c 0
 260.883789062 467.286132812 296.583984375 472.953125 336.250976562 473.51953125 c 0
 366.284179688 473.51953125 392.916992188 469.552734375 416.150390625 461.620117188 c 0
 438.25 453.686523438 457.375 441.50390625 473.525390625 425.0703125 c 0
 489.674804688 408.637695312 502 387.104492188 510.5 360.471679688 c 0
255.500976562 134.369140625 m 0
 268.534179688 129.268554688 282.416992188 126.716796875 297.150390625 126.716796875 c 2
 298.850585938 126.716796875 l 1
 299.700195312 126.716796875 l 2
 319.533203125 126.716796875 338.799804688 133.234375 357.5 146.267578125 c 0
 376.200195312 159.299804688 391.075195312 175.875 402.125 195.9921875 c 0
 413.174804688 216.109375 418.700195312 236.651367188 418.700195312 257.618164062 c 0
 418.700195312 306.3515625 409.350585938 338.651367188 390.650390625 354.517578125 c 0
 381.017578125 362.451171875 370.109375 368.118164062 357.92578125 371.517578125 c 0
 345.743164062 374.91796875 330.30078125 376.618164062 311.600585938 376.618164062 c 0
 282.701171875 376.618164062 255.784179688 370.243164062 230.850585938 357.493164062 c 0
 205.91796875 344.743164062 185.80078125 328.451171875 170.500976562 308.618164062 c 1
 170.500976562 287.084960938 170.784179688 269.235351562 171.350585938 255.068359375 c 0
 173.618164062 231.267578125 181.834960938 208.03515625 196.001953125 185.368164062 c 0
 203.369140625 174.03515625 211.869140625 163.9765625 221.501953125 155.194335938 c 0
 231.134765625 146.411132812 242.467773438 139.46875 255.500976562 134.369140625 c 0
EndSplineSet
Validated: 524289
EndChar

StartChar: seven
Encoding: 55 55 23
Width: 550
VWidth: 901
GlyphClass: 2
Flags: W
HStem: 562.675 96.0508<116.722 395.749>
LayerCount: 2
Fore
SplineSet
236.799804688 562.674804688 m 0
 180.69921875 561.541992188 144.431640625 558.994140625 127.999023438 555.02734375 c 0
 124.598632812 553.89453125 120.7734375 553.327148438 116.5234375 553.327148438 c 0
 112.2734375 553.327148438 107.881835938 554.177734375 103.348632812 555.877929688 c 0
 95.982421875 558.7109375 90.3154296875 562.9609375 86.34765625 568.627929688 c 0
 78.4150390625 578.827148438 74.1650390625 590.444335938 73.59765625 603.477539062 c 1
 73.59765625 597.810546875 73.59765625 598.09375 73.59765625 604.327148438 c 0
 73.59765625 616.2265625 76.998046875 626.143554688 83.7978515625 634.077148438 c 0
 90.59765625 642.009765625 102.21484375 647.392578125 118.6484375 650.225585938 c 0
 149.248046875 655.892578125 200.53125 658.725585938 272.498046875 658.725585938 c 0
 301.96484375 658.725585938 342.482421875 657.592773438 394.048828125 655.326171875 c 0
 442.782226562 653.625976562 468.282226562 652.776367188 470.548828125 652.776367188 c 0
 477.916015625 652.776367188 485.140625 651.217773438 492.223632812 648.100585938 c 0
 499.306640625 644.984375 505.96484375 640.026367188 512.198242188 633.225585938 c 0
 518.430664062 625.859375 521.831054688 616.225585938 522.3984375 604.326171875 c 0
 522.3984375 594.125976562 519.28125 582.79296875 513.047851562 570.326171875 c 0
 505.115234375 553.326171875 490.665039062 528.250976562 469.698242188 495.100585938 c 0
 448.731445312 461.951171875 426.630859375 428.092773438 403.3984375 393.526367188 c 0
 379.03125 358.958984375 349.28125 312.916992188 314.1484375 255.400390625 c 0
 279.014648438 197.8828125 245.865234375 139.090820312 214.698242188 79.0244140625 c 0
 206.764648438 62.5908203125 195.71484375 50.408203125 181.547851562 42.474609375 c 0
 170.78125 35.6748046875 160.581054688 32.275390625 150.948242188 32.275390625 c 0
 147.547851562 32.275390625 144.1484375 32.55859375 140.748046875 33.125 c 0
 125.448242188 36.525390625 114.680664062 45.025390625 108.448242188 58.625 c 0
 105.615234375 64.8583984375 104.198242188 71.5166015625 104.198242188 78.599609375 c 0
 104.198242188 85.6826171875 106.180664062 93.474609375 110.1484375 101.974609375 c 0
 139.047851562 158.641601562 171.065429688 215.024414062 206.198242188 271.124023438 c 0
 242.46484375 327.224609375 272.357421875 371.70703125 295.874023438 404.57421875 c 0
 319.390625 437.44140625 340.07421875 467.7578125 357.923828125 495.525390625 c 0
 375.7734375 523.291992188 388.381835938 545.674804688 395.749023438 562.674804688 c 1
 371.3828125 563.241210938 345.953125 563.524414062 319.461914062 563.524414062 c 0
 292.970703125 563.524414062 265.416015625 563.241210938 236.799804688 562.674804688 c 0
EndSplineSet
Validated: 524289
EndChar

StartChar: eight
Encoding: 56 56 24
Width: 550
VWidth: 901
GlyphClass: 2
Flags: W
HStem: 27.9492 93.5<210.543 376.659> 580.449 81.6016<227.274 351.757>
VStem: 67.5732 94.3525<164.875 280.772> 90.5234 102.853<458.86 548.025> 390.575 99.4502<455.871 543.569> 427.976 99.4482<166.506 285.924>
LayerCount: 2
Fore
SplineSet
228.225585938 134.19921875 m 0xe4
 248.05859375 125.69921875 269.30859375 121.44921875 291.975585938 121.44921875 c 0
 307.842773438 121.44921875 323.850585938 123.715820312 340.000976562 128.249023438 c 0
 356.150390625 132.782226562 370.883789062 139.298828125 384.200195312 147.798828125 c 0
 397.517578125 156.298828125 408.142578125 167.06640625 416.075195312 180.099609375 c 0
 424.008789062 193.131835938 427.975585938 207.298828125 427.975585938 222.599609375 c 0
 427.975585938 231.099609375 427.125976562 239.032226562 425.42578125 246.399414062 c 0
 423.725585938 253.765625 420.325195312 262.265625 415.225585938 271.899414062 c 0
 410.125976562 281.532226562 403.04296875 290.599609375 393.975585938 299.099609375 c 0
 384.908203125 307.599609375 372.30078125 316.381835938 356.150390625 325.44921875 c 0
 340.000976562 334.515625 320.875976562 342.733398438 298.775390625 350.099609375 c 1
 257.975585938 339.900390625 224.825195312 322.6171875 199.325195312 298.25 c 0
 174.392578125 273.8828125 161.92578125 247.81640625 161.92578125 220.048828125 c 0
 161.92578125 201.349609375 167.875976562 184.349609375 179.775390625 169.048828125 c 0
 192.80859375 153.749023438 208.958984375 142.131835938 228.225585938 134.19921875 c 0xe4
221.848632812 554.524414062 m 0
 202.866210938 537.241210938 193.375976562 518.682617188 193.375976562 498.849609375 c 0
 193.375976562 482.983398438 201.592773438 468.81640625 218.025390625 456.349609375 c 0
 235.025390625 443.31640625 263.642578125 429.999023438 303.875976562 416.399414062 c 1
 327.108398438 425.465820312 347.3671875 437.366210938 364.649414062 452.099609375 c 0
 381.932617188 466.83203125 390.575195312 479.58203125 390.575195312 490.349609375 c 0xd8
 390.575195312 504.515625 386.182617188 518.399414062 377.399414062 531.999023438 c 0
 368.6171875 545.599609375 356.291992188 557.07421875 340.424804688 566.423828125 c 0
 324.557617188 575.774414062 307.840820312 580.44921875 290.274414062 580.44921875 c 2
 288.57421875 580.44921875 l 2
 263.07421875 580.44921875 240.83203125 571.807617188 221.848632812 554.524414062 c 0
524.450195312 260.849609375 m 0
 526.432617188 250.650390625 527.423828125 239.881835938 527.423828125 228.548828125 c 0
 527.423828125 209.849609375 524.874023438 191.432617188 519.774414062 173.298828125 c 0
 514.673828125 155.166015625 506.173828125 137.173828125 494.274414062 119.32421875 c 0
 482.374023438 101.474609375 467.640625 86.0322265625 450.07421875 72.9990234375 c 0
 432.506835938 59.9658203125 409.415039062 49.19921875 380.797851562 40.69921875 c 0
 352.181640625 32.19921875 321.014648438 27.94921875 287.296875 27.94921875 c 0
 253.580078125 27.94921875 223.405273438 31.916015625 196.772460938 39.849609375 c 0
 171.272460938 47.7822265625 150.73046875 58.1240234375 135.147460938 70.8740234375 c 0
 119.564453125 83.6240234375 106.53125 98.640625 96.0478515625 115.923828125 c 0
 85.5654296875 133.20703125 78.1982421875 150.631835938 73.9482421875 168.19921875 c 0
 69.6982421875 185.765625 67.5732421875 204.182617188 67.5732421875 223.450195312 c 0xe4
 67.5732421875 242.716796875 72.6728515625 263.541992188 82.873046875 285.924804688 c 0
 93.0732421875 308.307617188 108.08984375 329.1328125 127.922851562 348.400390625 c 0
 141.5234375 362 156.255859375 372.766601562 172.123046875 380.700195312 c 1
 149.456054688 393.733398438 131.323242188 409.31640625 117.72265625 427.44921875 c 0
 99.58984375 451.249023438 90.5234375 475.616210938 90.5234375 500.548828125 c 0
 90.5234375 507.916015625 91.08984375 515.56640625 92.22265625 523.499023438 c 0
 93.3564453125 531.432617188 95.7646484375 540.782226562 99.447265625 551.548828125 c 0
 103.129882812 562.31640625 107.805664062 572.657226562 113.47265625 582.57421875 c 0
 119.139648438 592.491210938 126.931640625 602.408203125 136.84765625 612.325195312 c 0
 146.764648438 622.2421875 157.95703125 630.600585938 170.423828125 637.400390625 c 0
 184.590820312 644.767578125 201.874023438 650.717773438 222.274414062 655.250976562 c 0
 242.673828125 659.784179688 265.056640625 662.05078125 289.423828125 662.05078125 c 0
 313.791015625 662.05078125 336.173828125 659.784179688 356.57421875 655.250976562 c 0
 376.973632812 650.717773438 394.256835938 645.05078125 408.423828125 638.250976562 c 0
 422.590820312 630.883789062 434.6328125 622.2421875 444.549804688 612.325195312 c 0
 454.466796875 602.408203125 462.258789062 592.491210938 467.92578125 582.57421875 c 0
 473.592773438 572.657226562 478.125976562 562.173828125 481.525390625 551.124023438 c 0
 484.92578125 540.07421875 487.192382812 530.44140625 488.325195312 522.224609375 c 0
 489.458984375 514.006835938 490.025390625 505.932617188 490.025390625 497.999023438 c 0
 490.025390625 490.06640625 489.033203125 482.557617188 487.05078125 475.474609375 c 0
 485.067382812 468.391601562 482.659179688 462.016601562 479.826171875 456.349609375 c 0
 476.993164062 450.682617188 473.025390625 444.875 467.92578125 438.924804688 c 0
 462.825195312 432.974609375 458.151367188 428.016601562 453.901367188 424.049804688 c 0
 449.651367188 420.083007812 444.268554688 415.549804688 437.750976562 410.450195312 c 0
 431.234375 405.349609375 425.9921875 401.666992188 422.025390625 399.400390625 c 0
 418.05859375 397.1328125 412.958984375 393.733398438 406.725585938 389.200195312 c 1
 422.592773438 382.400390625 436.475585938 374.75 448.375976562 366.25 c 0
 464.80859375 354.916992188 477.983398438 343.442382812 487.900390625 331.825195312 c 0
 497.817382812 320.208007812 505.892578125 308.025390625 512.125976562 295.275390625 c 0
 518.358398438 282.525390625 522.466796875 271.049804688 524.450195312 260.849609375 c 0
EndSplineSet
Validated: 524289
EndChar

StartChar: nine
Encoding: 57 57 25
Width: 550
VWidth: 903
GlyphClass: 2
Flags: W
HStem: 243.252 96.0537<218.068 384.156> 589.205 92.6445<231.537 365.664>
VStem: 72.75 103.701<381.195 533.164> 426.352 96.8975<373.882 521.272>
LayerCount: 2
Fore
SplineSet
193.450195312 525.454101562 m 0
 182.1171875 506.1875 176.451171875 486.356445312 176.451171875 465.956054688 c 0
 176.451171875 381.5234375 216.400390625 339.305664062 296.299804688 339.305664062 c 0
 321.799804688 339.305664062 346.451171875 344.40625 370.251953125 354.606445312 c 0
 394.051757812 364.805664062 412.751953125 377.838867188 426.3515625 393.706054688 c 1
 426.3515625 401.356445312 l 2
 426.3515625 416.65625 425.501953125 436.7734375 423.801757812 461.706054688 c 0
 421.534179688 485.505859375 413.317382812 508.739257812 399.150390625 531.40625 c 0
 391.784179688 542.739257812 383.42578125 552.796875 374.076171875 561.580078125 c 0
 364.725585938 570.36328125 353.392578125 577.163085938 340.076171875 581.98046875 c 0
 326.758789062 586.796875 313.016601562 589.205078125 298.849609375 589.205078125 c 2
 296.299804688 589.205078125 l 2
 275.900390625 589.205078125 256.4921875 583.397460938 238.075195312 571.780273438 c 0
 219.658203125 560.163085938 204.783203125 544.721679688 193.450195312 525.454101562 c 0
193.450195312 35 m 0
 190.6171875 35 187.784179688 34.7216796875 184.951171875 34.154296875 c 0
 172.483398438 34.154296875 161.43359375 36.7041015625 151.80078125 41.8046875 c 0
 138.767578125 48.037109375 131.400390625 57.9541015625 129.701171875 71.5546875 c 0
 129.701171875 72.6875 129.41796875 73.537109375 128.850585938 74.1044921875 c 0
 128.850585938 83.171875 133.243164062 92.0966796875 142.025390625 100.879882812 c 0
 150.80859375 109.662109375 160.583984375 115.754882812 171.350585938 119.154296875 c 0
 178.150390625 120.854492188 189.342773438 123.12109375 204.92578125 125.954101562 c 0
 220.508789062 128.787109375 234.250976562 131.620117188 246.150390625 134.454101562 c 0
 258.05078125 137.287109375 271.083984375 140.969726562 285.250976562 145.502929688 c 0
 315.284179688 155.703125 341.633789062 171.852539062 364.30078125 193.953125 c 0
 379.034179688 209.252929688 392.350585938 226.819335938 404.250976562 246.65234375 c 0
 408.784179688 254.5859375 412.750976562 262.518554688 416.150390625 270.452148438 c 1
 403.68359375 263.65234375 390.083984375 258.268554688 375.350585938 254.301757812 c 0
 347.583984375 247.501953125 313.30078125 243.819335938 272.500976562 243.251953125 c 0
 243.600585938 243.251953125 216.118164062 249.202148438 190.05078125 261.1015625 c 0
 165.118164062 273.001953125 144.29296875 288.869140625 127.576171875 308.702148438 c 0
 110.858398438 328.53515625 97.5419921875 351.342773438 87.625 377.125976562 c 0
 77.7080078125 402.909179688 72.75 429.1171875 72.75 455.75 c 0
 72.75 488.05078125 78.275390625 518.225585938 89.3251953125 546.275390625 c 0
 100.375 574.325195312 115.391601562 598.267578125 134.375 618.100585938 c 0
 153.358398438 637.93359375 177.015625 653.516601562 205.348632812 664.849609375 c 0
 234.249023438 676.182617188 264.848632812 681.849609375 297.149414062 681.849609375 c 0
 377.048828125 681.849609375 435.131835938 654.649414062 471.399414062 600.249023438 c 0
 505.399414062 549.249023438 522.682617188 477.282226562 523.249023438 384.349609375 c 0
 523.249023438 335.616210938 517.58203125 292.549804688 506.249023438 255.149414062 c 0
 494.916015625 217.749023438 479.7578125 186.157226562 460.775390625 160.374023438 c 0
 441.791992188 134.591796875 418.416992188 112.633789062 390.650390625 94.5 c 0
 361.75 76.3671875 331.0078125 62.625 298.424804688 53.275390625 c 0
 265.841796875 43.92578125 230.849609375 37.8330078125 193.450195312 35 c 0
EndSplineSet
Validated: 524289
EndChar

StartChar: colon
Encoding: 58 58 26
Width: 550
VWidth: 887
GlyphClass: 2
Flags: W
HStem: 60.5264 153<245.427 348.751> 288.326 152.149<257.681 344.963>
VStem: 232.55 131.75<76.6232 199.31 307.22 427.652>
LayerCount: 2
Fore
SplineSet
361.75 380.975585938 m 0
 361.75 364.541992188 359.200195312 347.543945312 354.099609375 329.9765625 c 0
 350.700195312 315.809570312 343.049804688 305.04296875 331.150390625 297.67578125 c 0
 320.950195312 291.443359375 310.75 288.326171875 300.549804688 288.326171875 c 2
 298 288.326171875 l 2
 281 289.458984375 267.400390625 292.859375 257.200195312 298.526367188 c 0
 243.033203125 307.026367188 235.099609375 319.776367188 233.400390625 336.776367188 c 1
 232.266601562 346.975585938 231.700195312 357.17578125 231.700195312 367.375976562 c 0
 231.700195312 378.142578125 231.983398438 388.059570312 232.549804688 397.126953125 c 0
 233.1171875 406.193359375 235.950195312 414.126953125 241.049804688 420.926757812 c 0
 246.150390625 427.16015625 252.3828125 431.693359375 259.75 434.526367188 c 0
 267.1171875 437.359375 273.633789062 439.05859375 279.30078125 439.625976562 c 0
 284.967773438 440.193359375 289.217773438 440.475585938 292.05078125 440.475585938 c 0
 301.68359375 440.475585938 309.900390625 439.909179688 316.701171875 438.776367188 c 0
 322.93359375 437.642578125 329.166992188 435.375976562 335.400390625 431.975585938 c 0
 342.200195312 428.576171875 348.150390625 423.475585938 353.25 416.67578125 c 0
 357.783203125 409.875976562 360.333007812 401.943359375 360.900390625 392.875976562 c 0
 361.466796875 388.909179688 361.75 384.942382812 361.75 380.975585938 c 0
364.299804688 142.9765625 m 0
 364.299804688 129.376953125 362.317382812 115.494140625 358.350585938 101.327148438 c 0
 354.951171875 87.16015625 346.16796875 76.6767578125 332.000976562 69.876953125 c 0
 320.100585938 64.2099609375 308.767578125 61.0927734375 298.000976562 60.5263671875 c 0
 283.833984375 60.5263671875 269.951171875 64.7763671875 256.350585938 73.2763671875 c 0
 242.750976562 81.7763671875 235.383789062 93.67578125 234.250976562 108.975585938 c 0
 233.68359375 124.842773438 233.1171875 133.91015625 232.549804688 136.176757812 c 0
 232.549804688 138.443359375 232.833007812 143.543945312 233.400390625 151.4765625 c 0
 233.966796875 159.41015625 234.534179688 165.642578125 235.100585938 170.17578125 c 0
 235.100585938 179.243164062 237.650390625 187.17578125 242.750976562 193.975585938 c 0
 247.850585938 200.776367188 254.650390625 205.30859375 263.150390625 207.576171875 c 0
 274.484375 211.54296875 285.534179688 213.526367188 296.30078125 213.526367188 c 0
 306.500976562 213.526367188 315.567382812 212.392578125 323.500976562 210.125976562 c 0
 331.43359375 207.859375 339.3671875 202.758789062 347.299804688 194.826171875 c 0
 355.233398438 187.458984375 360.049804688 178.109375 361.75 166.776367188 c 0
 363.450195312 158.842773438 364.299804688 150.91015625 364.299804688 142.9765625 c 0
EndSplineSet
Validated: 524289
EndChar

StartChar: semicolon
Encoding: 59 59 27
Width: 550
VWidth: 864
GlyphClass: 2
Flags: W
HStem: 229.675 153.001<271.933 370.562>
VStem: 257.197 130.049<246.048 371.193>
LayerCount: 2
Fore
SplineSet
387.24609375 323.174804688 m 2
 387.24609375 306.7421875 384.6953125 289.458984375 379.595703125 271.326171875 c 0
 376.1953125 257.159179688 368.545898438 246.391601562 356.645507812 239.025390625 c 0
 346.4453125 232.791992188 336.245117188 229.674804688 326.045898438 229.674804688 c 0
 318.112304688 229.674804688 309.329101562 231.375 299.696289062 234.775390625 c 0
 290.063476562 238.174804688 281.280273438 243.275390625 273.346679688 250.075195312 c 0
 264.846679688 258.0078125 260.030273438 267.358398438 258.897460938 278.125 c 1
 257.763671875 288.325195312 257.197265625 298.80859375 257.197265625 309.575195312 c 0
 257.197265625 320.341796875 257.48046875 329.974609375 258.046875 338.474609375 c 0
 258.614257812 347.541992188 261.447265625 355.474609375 266.546875 362.275390625 c 0
 271.647460938 369.075195312 277.879882812 373.608398438 285.247070312 375.875 c 0
 297.713867188 379.841796875 309.614257812 382.109375 320.947265625 382.67578125 c 0
 329.447265625 382.67578125 336.530273438 381.826171875 342.197265625 380.125976562 c 0
 348.4296875 378.993164062 354.947265625 376.725585938 361.747070312 373.326171875 c 0
 368.546875 369.92578125 374.213867188 365.109375 378.747070312 358.875976562 c 0
 383.280273438 351.508789062 386.11328125 343.291992188 387.24609375 334.224609375 c 2
 387.24609375 323.174804688 l 2
370.245117188 81.775390625 m 2
 370.24609375 76.6748046875 l 2
 368.545898438 57.974609375 350.12890625 -16.5419921875 314.99609375 -146.875 c 0
 311.029296875 -161.041992188 303.662109375 -171.525390625 292.895507812 -178.325195312 c 0
 283.262695312 -184.557617188 273.62890625 -187.674804688 263.99609375 -187.674804688 c 0
 249.263671875 -187.674804688 235.946289062 -183.424804688 224.045898438 -174.924804688 c 0
 213.818359375 -167.388671875 208.704101562 -157.294921875 208.704101562 -144.64453125 c 0
 208.704101562 -128.515625 217.631835938 -82.0458984375 225.74609375 -41.4736328125 c 0
 237.079101562 14.6259765625 246.146484375 56.55859375 252.946289062 84.326171875 c 0
 255.212890625 93.958984375 258.330078125 102.17578125 262.296875 108.975585938 c 0
 266.830078125 115.776367188 271.9296875 120.026367188 277.596679688 121.725585938 c 0
 285.530273438 124.55859375 293.1796875 126.258789062 300.546875 126.826171875 c 0
 303.379882812 126.826171875 306.212890625 126.54296875 309.045898438 125.975585938 c 0
 320.946289062 125.975585938 333.12890625 123.142578125 345.596679688 117.475585938 c 0
 353.529296875 114.076171875 359.762695312 108.692382812 364.295898438 101.326171875 c 0
 368.262695312 95.6591796875 370.245117188 89.1416015625 370.245117188 81.775390625 c 2
EndSplineSet
Validated: 524289
EndChar

StartChar: less
Encoding: 60 60 28
Width: 550
VWidth: 902
GlyphClass: 2
Flags: W
LayerCount: 2
Fore
SplineSet
464.599609375 31.25 m 0
 455.533203125 31.25 445.333007812 33.2373046875 434 37.2041015625 c 0
 418.700195312 41.7373046875 400.283203125 51.9375 378.75 67.8046875 c 0
 357.216796875 83.671875 334.266601562 102.37109375 309.900390625 123.904296875 c 0
 285.533203125 145.4375 261.450195312 167.254882812 237.650390625 189.354492188 c 0
 213.849609375 211.454101562 188.916992188 234.12109375 162.849609375 257.354492188 c 0
 136.783203125 280.587890625 114.682617188 299.004882812 96.5498046875 312.604492188 c 0
 87.4833984375 319.404296875 81.25 328.754882812 77.849609375 340.654296875 c 0
 76.716796875 345.754882812 76.150390625 351.421875 76.150390625 357.654296875 c 0
 76.150390625 363.321289062 77 369.271484375 78.7001953125 375.504882812 c 0
 82.099609375 387.404296875 88.3330078125 395.904296875 97.400390625 401.004882812 c 0
 129.1328125 424.8046875 166.81640625 454.5546875 210.44921875 490.254882812 c 0
 253.515625 526.521484375 293.182617188 559.104492188 329.450195312 588.004882812 c 0
 365.716796875 617.471679688 398.299804688 640.704101562 427.200195312 657.704101562 c 0
 438.533203125 665.071289062 449.866210938 668.754882812 461.19921875 668.754882812 c 0
 469.69921875 668.754882812 477.06640625 666.771484375 483.298828125 662.8046875 c 0
 495.765625 655.4375 504.833007812 645.520507812 510.5 633.053710938 c 0
 513.333007812 627.38671875 514.75 621.153320312 514.75 614.353515625 c 0
 514.75 607.553710938 512.766601562 600.470703125 508.799804688 593.103515625 c 0
 502 581.770507812 488.1171875 569.020507812 467.150390625 554.853515625 c 0
 435.983398438 532.75390625 390.650390625 498.470703125 331.150390625 452.00390625 c 0
 271.650390625 405.537109375 231.416992188 374.370117188 210.450195312 358.502929688 c 1
 229.716796875 343.203125 251.817382812 324.219726562 276.75 301.552734375 c 0
 302.25 278.885742188 325.200195312 257.918945312 345.599609375 238.65234375 c 0
 366 219.384765625 388.099609375 199.551757812 411.900390625 179.15234375 c 0
 435.700195312 158.751953125 456.666992188 142.884765625 474.799804688 131.551757812 c 0
 493.5 119.65234375 506.25 108.319335938 513.049804688 97.5517578125 c 0
 517.583007812 90.751953125 519.849609375 83.6689453125 519.849609375 76.3017578125 c 0
 519.849609375 70.634765625 518.716796875 64.9677734375 516.450195312 59.30078125 c 0
 509.083007812 43.4345703125 494.349609375 34.3671875 472.25 32.1005859375 c 0
 469.983398438 31.533203125 467.432617188 31.25 464.599609375 31.25 c 0
EndSplineSet
Validated: 524289
EndChar

StartChar: equal
Encoding: 61 61 29
Width: 550
VWidth: 908
GlyphClass: 2
Flags: W
HStem: 257.95 90.9502<138.627 459.177> 427.95 90.0996<140.381 459.178>
LayerCount: 2
Fore
SplineSet
424.650390625 518.049804688 m 0
 441.083007812 518.049804688 452.700195312 514.083007812 459.5 506.150390625 c 0
 466.299804688 498.216796875 470.266601562 488.299804688 471.400390625 476.400390625 c 2
 471.400390625 475.549804688 l 2
 471.400390625 469.317382812 470.833007812 463.650390625 469.700195312 458.549804688 c 0
 468.56640625 453.450195312 466.299804688 448.349609375 462.900390625 443.25 c 0
 459.5 438.150390625 454.1171875 433.900390625 446.75 430.5 c 0
 441.650390625 428.233398438 436.266601562 427.3828125 430.599609375 427.950195312 c 2
 423.799804688 427.950195312 l 2
 403.400390625 428.516601562 382.432617188 428.799804688 360.900390625 428.799804688 c 2
 267.400390625 426.25 l 2
 227.733398438 425.1171875 198.549804688 424.549804688 179.849609375 424.549804688 c 0
 163.416992188 424.549804688 150.099609375 428.799804688 139.900390625 437.299804688 c 0
 129.700195312 445.799804688 124.599609375 456.567382812 124.599609375 469.599609375 c 2
 124.599609375 472.150390625 l 2
 124.599609375 484.049804688 128.56640625 494.817382812 136.5 504.450195312 c 0
 145 513.516601562 157.182617188 518.049804688 173.049804688 518.049804688 c 2
 176.450195312 518.049804688 l 2
 210.109375 517.030273438 246.930664062 516.520507812 286.913085938 516.520507812 c 0
 313.5703125 516.520507812 341.631835938 516.747070312 371.099609375 517.200195312 c 0
 400.56640625 517.766601562 418.416992188 518.049804688 424.650390625 518.049804688 c 0
430.599609375 261.349609375 m 2
 423.799804688 261.349609375 l 2
 410.766601562 261.916992188 398.8671875 262.200195312 388.099609375 262.200195312 c 0
 364.299804688 262.200195312 327.75 261.6328125 278.450195312 260.5 c 0
 229.150390625 258.799804688 195.716796875 257.950195312 178.150390625 257.950195312 c 0
 160.583007812 257.950195312 147.265625 262.483398438 138.19921875 271.549804688 c 0
 129.131835938 280.6171875 124.598632812 291.666992188 124.598632812 304.700195312 c 2
 124.598632812 306.400390625 l 2
 124.598632812 318.299804688 129.131835938 328.5 138.19921875 337 c 0
 147.265625 344.932617188 160.015625 348.900390625 176.44921875 348.900390625 c 2
 191.749023438 348.900390625 l 2
 203.84375 348.7109375 217.19921875 348.616210938 231.815429688 348.616210938 c 0
 261.025390625 348.616210938 295.26953125 348.994140625 334.548828125 349.749023438 c 2
 424.649414062 351.44921875 l 2
 441.08203125 351.44921875 452.69921875 347.482421875 459.499023438 339.548828125 c 0
 466.298828125 331.616210938 470.265625 321.69921875 471.399414062 309.798828125 c 2
 471.399414062 308.94921875 l 2
 471.399414062 302.715820312 470.83203125 297.333007812 469.69921875 292.799804688 c 0
 468.56640625 287.700195312 466.298828125 282.599609375 462.899414062 277.5 c 0
 459.499023438 271.833007812 454.116210938 267.299804688 446.749023438 263.900390625 c 0
 442.215820312 262.200195312 436.833007812 261.349609375 430.599609375 261.349609375 c 2
EndSplineSet
Validated: 524289
EndChar

StartChar: greater
Encoding: 62 62 30
Width: 550
VWidth: 903
GlyphClass: 2
Flags: W
LayerCount: 2
Fore
SplineSet
134.799804688 38.25 m 0
 126.8671875 38.25 119.498046875 40.2294921875 112.698242188 44.1962890625 c 0
 106.46484375 48.1630859375 100.797851562 52.6962890625 95.6982421875 57.796875 c 0
 91.1650390625 62.896484375 87.765625 68.5634765625 85.498046875 74.796875 c 0
 82.6650390625 80.4638671875 80.96484375 86.4130859375 80.3984375 92.646484375 c 0
 80.3984375 99.4462890625 82.6650390625 106.529296875 87.1982421875 113.896484375 c 0
 93.998046875 125.229492188 107.598632812 137.979492188 127.998046875 152.146484375 c 0
 159.165039062 174.247070312 204.782226562 208.529296875 264.848632812 254.997070312 c 0
 324.348632812 301.463867188 364.58203125 332.630859375 385.548828125 348.497070312 c 1
 366.282226562 363.797851562 343.899414062 382.780273438 318.399414062 405.447265625 c 0
 292.899414062 428.114257812 270.232421875 449.081054688 250.399414062 468.348632812 c 0
 229.999023438 487.615234375 207.899414062 507.448242188 184.098632812 527.848632812 c 0
 160.298828125 548.248046875 139.33203125 564.115234375 121.19921875 575.448242188 c 0
 102.499023438 587.348632812 89.7490234375 598.681640625 82.94921875 609.448242188 c 0
 78.416015625 616.248046875 76.1494140625 623.615234375 76.1494140625 631.547851562 c 0
 76.1494140625 637.21484375 77.2822265625 642.598632812 79.548828125 647.698242188 c 0
 86.916015625 663.565429688 101.649414062 672.631835938 123.749023438 674.899414062 c 0
 126.58203125 675.465820312 129.131835938 675.749023438 131.399414062 675.749023438 c 0
 140.465820312 675.749023438 150.666015625 673.765625 161.999023438 669.798828125 c 0
 177.298828125 665.265625 195.715820312 655.06640625 217.249023438 639.19921875 c 0
 238.782226562 623.33203125 261.732421875 604.631835938 286.098632812 583.098632812 c 0
 310.465820312 561.56640625 334.548828125 539.749023438 358.348632812 517.649414062 c 0
 382.149414062 495.548828125 407.08203125 472.881835938 433.149414062 449.649414062 c 0
 459.215820312 426.416015625 481.31640625 408.283203125 499.44921875 395.25 c 0
 508.515625 388.450195312 514.749023438 378.81640625 518.149414062 366.349609375 c 0
 519.282226562 361.25 519.848632812 355.583007812 519.848632812 349.349609375 c 0
 519.848632812 343.682617188 518.999023438 337.733398438 517.298828125 331.5 c 0
 513.899414062 319.599609375 507.666015625 311.099609375 498.598632812 306 c 0
 466.866210938 282.766601562 429.182617188 253.016601562 385.549804688 216.75 c 0
 342.482421875 180.483398438 302.81640625 147.900390625 266.548828125 119 c 0
 230.282226562 90.099609375 197.69921875 66.8671875 168.798828125 49.2998046875 c 0
 157.465820312 41.9326171875 146.1328125 38.25 134.799804688 38.25 c 0
EndSplineSet
Validated: 524289
EndChar

StartChar: question
Encoding: 63 63 31
Width: 550
VWidth: 903
GlyphClass: 2
Flags: W
HStem: 31.0029 151.302<225.707 332.998> 584.355 92.709<244.857 362.37>
VStem: 199.402 158.951<57.1695 156.658> 227.452 107.097<235.433 326.936> 378.782 106.217<461.381 567.451>
LayerCount: 2
Fore
SplineSet
286.950195312 223.955078125 m 0xd8
 281.849609375 223.955078125 276.469726562 224.520507812 270.802734375 225.653320312 c 0
 242.469726562 233.020507812 228.01953125 250.586914062 227.452148438 278.354492188 c 0
 227.452148438 286.287109375 228.869140625 294.787109375 231.702148438 303.854492188 c 0
 235.668945312 320.287109375 241.619140625 335.586914062 249.552734375 349.75390625 c 0
 257.485351562 363.920898438 266.268554688 376.104492188 275.901367188 386.3046875 c 0
 284.96875 396.50390625 294.6015625 405.854492188 304.801757812 414.354492188 c 0
 315.001953125 423.420898438 324.634765625 431.637695312 333.701171875 439.004882812 c 0
 342.768554688 446.372070312 350.701171875 454.022460938 357.501953125 461.955078125 c 0
 371.688476562 477.234375 378.782226562 493.038085938 378.782226562 509.3671875 c 0
 378.782226562 524.568359375 377.392578125 551.442382812 357.500976562 567.35546875 c 0
 342.896484375 578.713867188 321.838867188 584.393554688 294.326171875 584.393554688 c 0
 293.015625 584.393554688 291.690429688 584.380859375 290.350585938 584.35546875 c 0
 283.55078125 584.35546875 277.034179688 582.938476562 270.80078125 580.10546875 c 0
 264.000976562 576.705078125 257.767578125 573.022460938 252.100585938 569.0546875 c 0
 247.000976562 565.087890625 241.333984375 559.420898438 235.100585938 552.0546875 c 0
 228.868164062 544.6875 224.05078125 538.454101562 220.650390625 533.354492188 c 0
 217.250976562 528.25390625 212.717773438 522.021484375 207.05078125 514.654296875 c 0
 201.951171875 506.720703125 196.284179688 500.204101562 190.05078125 495.104492188 c 0
 184.383789062 490.00390625 178.150390625 486.887695312 171.350585938 485.75390625 c 2
 163.701171875 485.75390625 l 2
 160.868164062 485.75390625 157.467773438 486.321289062 153.500976562 487.454101562 c 0
 149.534179688 488.586914062 143.8671875 490.5703125 136.5 493.403320312 c 0
 124.033203125 500.203125 116.099609375 509.836914062 112.700195312 522.303710938 c 2
 111 532.502929688 l 2
 111 542.13671875 114.1171875 553.752929688 120.349609375 567.353515625 c 0
 126.583007812 579.8203125 134.515625 591.720703125 144.149414062 603.053710938 c 0
 153.782226562 614.953125 165.399414062 626.5703125 178.999023438 637.903320312 c 0
 192.598632812 649.803710938 208.749023438 659.436523438 227.44921875 666.803710938 c 0
 244.8125 673.643554688 263.153320312 677.064453125 282.471679688 677.064453125 c 0
 283.958007812 677.064453125 285.451171875 677.043945312 286.94921875 677.002929688 c 0
 350.982421875 677.002929688 399.999023438 661.986328125 433.999023438 631.953125 c 0
 467.999023438 601.919921875 484.999023438 556.870117188 484.999023438 496.803710938 c 0
 484.999023438 480.370117188 482.166015625 465.353515625 476.499023438 451.752929688 c 0
 471.399414062 438.153320312 464.598632812 426.252929688 456.098632812 416.053710938 c 0
 447.598632812 406.419921875 438.249023438 397.637695312 428.048828125 389.704101562 c 2
 397.44921875 365.904296875 l 2
 387.249023438 357.970703125 377.899414062 350.038085938 369.399414062 342.10546875 c 0
 360.899414062 334.171875 353.532226562 324.254882812 347.298828125 312.35546875 c 0
 341.06640625 301.022460938 336.81640625 288.272460938 334.548828125 274.10546875 c 0
 331.715820312 257.10546875 325.483398438 244.072265625 315.849609375 235.004882812 c 0
 308.483398438 227.637695312 298.849609375 223.955078125 286.950195312 223.955078125 c 0xd8
272.501953125 31.0029296875 m 2
 252.668945312 31.0029296875 235.952148438 37.802734375 222.352539062 51.40234375 c 0
 207.052734375 67.26953125 199.40234375 85.6865234375 199.40234375 106.653320312 c 0
 199.40234375 127.620117188 207.619140625 145.1875 224.052734375 159.354492188 c 0
 241.619140625 174.654296875 261.736328125 182.3046875 284.403320312 182.3046875 c 0
 305.370117188 182.3046875 322.653320312 175.50390625 336.252929688 161.904296875 c 0
 350.986328125 147.170898438 358.353515625 129.604492188 358.353515625 109.204101562 c 0xe8
 358.353515625 88.2373046875 351.270507812 70.669921875 337.103515625 56.5029296875 c 0
 322.936523438 42.3369140625 304.51953125 33.8369140625 281.852539062 31.0029296875 c 2
 272.501953125 31.0029296875 l 2
EndSplineSet
Validated: 524289
EndChar

StartChar: at
Encoding: 64 64 32
Width: 550
VWidth: 892
GlyphClass: 2
Flags: W
HStem: -77.7207 93.5<237.072 376.053> 132.23 89.249<264.644 318.687> 356.63 85.8506<272.537 361.428> 553.83 96.8984<255.51 381.698>
VStem: 68.5 94.3467<113.872 419.334> 173.05 85.8486<223.19 344.153> 327.749 89.0801<226.031 329.915> 445.048 82.4512<206.652 462.493>
LayerCount: 2
Fore
SplineSet
360.049804688 168.775390625 m 1
 343.6171875 144.408203125 320.099609375 132.23046875 289.5 132.23046875 c 0
 252.666992188 132.23046875 224.049804688 143.84765625 203.650390625 167.080078125 c 0
 183.25 190.313476562 173.049804688 224.880859375 173.049804688 270.780273438 c 0
 173.049804688 293.447265625 175.599609375 314.130859375 180.700195312 332.830078125 c 0
 185.799804688 352.09765625 192.599609375 368.530273438 201.099609375 382.130859375 c 0
 210.166992188 395.73046875 220.650390625 407.34765625 232.549804688 416.98046875 c 0
 254.083007812 433.98046875 279.299804688 442.48046875 308.200195312 442.48046875 c 0
 325.766601562 442.48046875 343.049804688 439.36328125 360.049804688 433.130859375 c 0
 374.783203125 427.463867188 386.400390625 419.530273438 394.900390625 409.330078125 c 0
 401.700195312 401.397460938 405.099609375 393.747070312 405.099609375 386.380859375 c 0
 405.099609375 382.4140625 403.966796875 378.1640625 401.700195312 373.630859375 c 0
 399.432617188 369.09765625 396.31640625 364.84765625 392.348632812 360.880859375 c 0
 388.381835938 356.9140625 383.848632812 354.080078125 378.749023438 352.380859375 c 0
 371.381835938 350.11328125 365.71484375 348.98046875 361.748046875 348.98046875 c 0
 354.948242188 348.98046875 346.731445312 350.11328125 337.098632812 352.380859375 c 0
 334.265625 352.947265625 330.015625 354.080078125 324.348632812 355.780273438 c 0
 318.115234375 356.9140625 312.165039062 357.196289062 306.498046875 356.629882812 c 0
 300.831054688 356.0625 295.1640625 354.080078125 289.497070312 350.6796875 c 0
 283.830078125 347.279296875 278.73046875 342.747070312 274.197265625 337.080078125 c 0
 269.6640625 331.413085938 265.981445312 323.762695312 263.1484375 314.129882812 c 0
 260.315429688 304.497070312 258.8984375 293.446289062 258.8984375 280.979492188 c 0
 258.8984375 274.1796875 259.46484375 267.663085938 260.598632812 261.4296875 c 0
 261.165039062 255.196289062 262.58203125 248.6796875 264.848632812 241.879882812 c 0
 269.381835938 228.279296875 276.749023438 221.479492188 286.94921875 221.479492188 c 0
 293.182617188 221.479492188 298.848632812 222.61328125 303.94921875 224.879882812 c 0
 309.048828125 227.146484375 313.015625 231.11328125 315.848632812 236.780273438 c 0
 322.649414062 249.247070312 326.616210938 270.780273438 327.749023438 301.380859375 c 0
 328.31640625 314.98046875 337.666015625 325.463867188 355.798828125 332.830078125 c 0
 365.369140625 336.859375 374.04296875 338.874023438 381.822265625 338.874023438 c 0
 382.794921875 338.874023438 383.75390625 338.842773438 384.69921875 338.779296875 c 0
 391.499023438 338.779296875 397.44921875 337.9296875 402.548828125 336.229492188 c 0
 413.881835938 331.696289062 419.83203125 323.479492188 420.399414062 311.580078125 c 0
 420.399414062 310.446289062 420.116210938 309.313476562 419.548828125 308.180664062 c 0
 417.735351562 292.315429688 416.829101562 278.444335938 416.829101562 266.567382812 c 0
 416.829101562 263.596679688 416.885742188 260.750976562 416.999023438 258.030273438 c 0
 416.999023438 242.1640625 418.416015625 229.130859375 421.249023438 218.930664062 c 0
 422.381835938 214.963867188 423.515625 212.130859375 424.6484375 210.430664062 c 0
 426.348632812 207.59765625 428.615234375 206.180664062 431.448242188 206.180664062 c 0
 432.581054688 207.313476562 433.71484375 209.013671875 434.84765625 211.280273438 c 0
 437.680664062 218.080078125 439.947265625 226.86328125 441.647460938 237.630859375 c 0
 443.9140625 258.030273438 445.047851562 276.73046875 445.047851562 293.73046875 c 0
 445.047851562 322.063476562 443.630859375 348.4140625 440.797851562 372.780273438 c 0
 438.530273438 396.580078125 435.413085938 416.98046875 431.446289062 433.98046875 c 0
 427.479492188 450.98046875 422.663085938 465.997070312 416.99609375 479.030273438 c 0
 410.762695312 492.630859375 405.379882812 503.397460938 400.846679688 511.330078125 c 0
 395.747070312 519.263671875 389.513671875 526.063476562 382.146484375 531.73046875 c 0
 374.779296875 537.397460938 368.546875 541.647460938 363.446289062 544.48046875 c 0
 358.346679688 547.313476562 352.396484375 549.296875 345.596679688 550.4296875 c 0
 338.796875 552.129882812 333.413085938 552.979492188 329.446289062 552.979492188 c 0
 326.046875 552.979492188 321.513671875 553.262695312 315.846679688 553.830078125 c 0
 295.446289062 553.830078125 276.1796875 547.3125 258.046875 534.279296875 c 0
 239.913085938 521.247070312 223.763671875 502.546875 209.596679688 478.1796875 c 0
 195.4296875 453.8125 184.096679688 423.49609375 175.596679688 387.228515625 c 0
 167.096679688 350.961914062 162.846679688 311.01171875 162.846679688 267.37890625 c 0
 162.846679688 229.412109375 165.6796875 195.412109375 171.346679688 165.37890625 c 0
 177.013671875 135.345703125 184.380859375 111.262695312 193.447265625 93.1298828125 c 0
 202.514648438 74.9970703125 212.997070312 59.9794921875 224.897460938 48.080078125 c 0
 236.797851562 36.1796875 248.4140625 27.6796875 259.747070312 22.580078125 c 0
 271.080078125 18.046875 283.547851562 15.779296875 297.147460938 15.779296875 c 0
 310.747070312 15.779296875 323.21484375 17.1962890625 334.547851562 20.029296875 c 0
 345.880859375 22.86328125 355.23046875 25.9794921875 362.59765625 29.3798828125 c 0
 369.96484375 32.779296875 376.764648438 37.5966796875 382.997070312 43.830078125 c 0
 389.797851562 50.0625 395.180664062 56.0126953125 399.147460938 61.6796875 c 0
 403.114257812 67.3466796875 407.647460938 74.146484375 412.747070312 82.080078125 c 0
 415.014648438 86.61328125 416.997070312 90.0126953125 418.697265625 92.279296875 c 0
 420.397460938 94.546875 422.6640625 97.3798828125 425.497070312 100.779296875 c 0
 427.764648438 104.1796875 430.03125 107.012695312 432.297851562 109.279296875 c 0
 434.565429688 110.979492188 437.3984375 112.6796875 440.797851562 114.379882812 c 0
 444.198242188 116.080078125 448.165039062 116.9296875 452.698242188 116.9296875 c 0
 456.665039062 116.9296875 460.915039062 116.080078125 465.448242188 114.379882812 c 0
 471.115234375 112.11328125 475.932617188 109.279296875 479.899414062 105.879882812 c 0
 483.866210938 102.479492188 486.983398438 98.2294921875 489.25 93.1298828125 c 0
 491.516601562 88.5966796875 492.3671875 83.779296875 491.799804688 78.6796875 c 0
 491.799804688 69.046875 489.25 57.4296875 484.150390625 43.830078125 c 0
 480.75 35.330078125 477.6328125 27.962890625 474.799804688 21.7294921875 c 0
 471.400390625 15.4970703125 466.8671875 7.8466796875 461.200195312 -1.220703125 c 0
 455.533203125 -10.287109375 449.299804688 -18.220703125 442.5 -25.0205078125 c 0
 435.700195312 -31.8203125 427.483398438 -38.6201171875 417.849609375 -45.419921875 c 0
 407.650390625 -52.220703125 396.599609375 -58.169921875 384.700195312 -63.2705078125 c 0
 372.799804688 -67.8037109375 359.200195312 -71.203125 343.900390625 -73.470703125 c 0
 328.599609375 -76.3037109375 312.733398438 -77.720703125 296.299804688 -77.720703125 c 2
 291.200195312 -77.720703125 l 2
 259.466796875 -77.720703125 230 -69.787109375 202.799804688 -53.919921875 c 0
 175.033203125 -38.0537109375 151.233398438 -16.5205078125 131.400390625 10.6796875 c 0
 111.56640625 37.8798828125 96.2666015625 71.029296875 85.5 110.129882812 c 0
 74.1669921875 149.229492188 68.5 191.446289062 68.5 236.779296875 c 0
 68.5 287.212890625 72.466796875 334.24609375 80.400390625 377.87890625 c 0
 88.3330078125 421.51171875 99.3828125 460.044921875 113.549804688 493.478515625 c 0
 128.283203125 526.344726562 145.56640625 554.677734375 165.399414062 578.478515625 c 0
 185.232421875 602.278320312 207.33203125 620.127929688 231.69921875 632.028320312 c 0
 256.06640625 643.927734375 282.1328125 650.161132812 309.900390625 650.728515625 c 0
 329.733398438 650.728515625 347.583007812 649.028320312 363.450195312 645.627929688 c 0
 379.8828125 642.794921875 395.75 637.6953125 411.049804688 630.328125 c 0
 426.349609375 622.39453125 439.950195312 612.1953125 451.849609375 599.728515625 c 0
 463.75 587.260742188 474.516601562 571.677734375 484.150390625 552.978515625 c 0
 493.783203125 534.278320312 501.715820312 512.4609375 507.94921875 487.528320312 c 0
 520.982421875 435.39453125 527.499023438 370.228515625 527.499023438 292.028320312 c 0
 527.499023438 248.9609375 521.265625 210.994140625 508.798828125 178.126953125 c 0
 501.999023438 160.560546875 492.08203125 146.393554688 479.048828125 135.625976562 c 0
 466.015625 124.859375 450.432617188 119.192382812 432.299804688 118.625976562 c 0
 406.233398438 118.625976562 386.400390625 127.408203125 372.799804688 144.975585938 c 0
 367.700195312 151.775390625 363.450195312 159.708984375 360.049804688 168.775390625 c 1
EndSplineSet
Validated: 524289
EndChar

StartChar: A
Encoding: 65 65 33
Width: 550
VWidth: 903
GlyphClass: 2
Flags: W
HStem: 267.275 78.1982<245.053 377.896>
LayerCount: 2
Fore
SplineSet
242.745117188 336.124023438 m 1
 292.045898438 341.223632812 337.095703125 344.340820312 377.895507812 345.473632812 c 1
 335.395507812 537.57421875 l 1
 311.028320312 496.20703125 280.145507812 429.057617188 242.745117188 336.124023438 c 1
147.549804688 95.5751953125 m 0
 141.31640625 75.1748046875 131.6796875 61.57421875 118.646484375 54.7744140625 c 0
 111.279296875 50.8076171875 104.196289062 48.826171875 97.396484375 48.826171875 c 0
 90.5966796875 48.826171875 84.0791015625 50.2412109375 77.8466796875 53.07421875 c 0
 67.646484375 57.607421875 60.279296875 64.6904296875 55.74609375 74.3232421875 c 0
 52.3466796875 81.6904296875 50.646484375 89.765625 50.646484375 98.5478515625 c 0
 50.646484375 107.331054688 51.779296875 116.823242188 54.0458984375 127.0234375 c 0
 57.4462890625 144.58984375 73.029296875 185.390625 100.795898438 249.422851562 c 1
 92.86328125 256.790039062 88.330078125 265.857421875 87.197265625 276.624023438 c 2
 87.197265625 278.32421875 l 2
 87.197265625 287.95703125 92.013671875 297.024414062 101.647460938 305.524414062 c 0
 109.580078125 312.890625 119.497070312 318.557617188 131.397460938 322.525390625 c 1
 204.497070312 477.791992188 261.1640625 581.775390625 301.397460938 634.474609375 c 0
 311.030273438 646.375 320.096679688 655.158203125 328.596679688 660.825195312 c 0
 337.096679688 667.057617188 346.73046875 670.174804688 357.497070312 670.174804688 c 2
 364.296875 670.174804688 l 2
 375.629882812 670.174804688 385.830078125 667.625 394.897460938 662.525390625 c 0
 407.364257812 655.724609375 415.013671875 644.958007812 417.846679688 630.224609375 c 0
 430.314453125 562.224609375 450.713867188 466.174804688 479.046875 342.075195312 c 0
 494.9140625 272.94140625 507.380859375 222.083984375 516.448242188 189.500976562 c 0
 525.514648438 156.91796875 532.314453125 136.942382812 536.84765625 129.576171875 c 0
 542.514648438 119.375976562 545.34765625 109.743164062 545.34765625 100.67578125 c 2
 545.34765625 95.5751953125 l 2
 544.21484375 85.375 540.672851562 76.5927734375 534.72265625 69.2255859375 c 0
 528.772460938 61.8583984375 521.831054688 56.4736328125 513.897460938 53.07421875 c 0
 504.264648438 50.2412109375 498.032226562 48.826171875 495.19921875 48.826171875 c 0
 487.83203125 48.826171875 480.46484375 50.8076171875 473.09765625 54.7744140625 c 0
 460.064453125 61.5751953125 449.58203125 74.892578125 441.6484375 94.7255859375 c 0
 433.715820312 112.858398438 418.69921875 170.375976562 396.598632812 267.275390625 c 1
 325.765625 264.442382812 261.732421875 258.775390625 204.5 250.275390625 c 1
 185.232421875 205.508789062 166.25 153.94140625 147.549804688 95.5751953125 c 0
EndSplineSet
Validated: 524289
EndChar

StartChar: B
Encoding: 66 66 34
Width: 550
VWidth: 901
GlyphClass: 2
Flags: W
HStem: 43.2471 76.6309<217.564 251.869> 293.703 81.9814<176.45 347.419> 565.703 88.3994<180.303 348.36>
VStem: 71.0498 102.851<121.248 293.703 377.002 560.653> 389.801 101.15<414.582 528.804> 421.25 105.401<182.073 247.902>
LayerCount: 2
Fore
SplineSet
73.599609375 86.2998046875 m 2xf4
 74.7333984375 102.733398438 75.5830078125 130.786132812 76.150390625 170.453125 c 0
 76.150390625 244.686523438 74.4501953125 326.853515625 71.0498046875 416.953125 c 1
 69.9169921875 453.786132812 69.349609375 478.578125 69.349609375 491.328125 c 0
 69.349609375 504.078125 69.775390625 521.078125 70.625 542.328125 c 0
 71.474609375 563.578125 71.900390625 578.453125 71.900390625 586.953125 c 0
 72.466796875 604.520507812 77.708984375 617.978515625 87.6259765625 627.328125 c 0
 97.54296875 636.678710938 109.868164062 641.353515625 124.600585938 641.353515625 c 2
 127.151367188 641.353515625 l 1
 142.451171875 645.88671875 161.43359375 649.286132812 184.100585938 651.553710938 c 0
 193.16796875 652.686523438 202.942382812 653.39453125 213.42578125 653.677734375 c 0
 223.909179688 653.9609375 231.984375 654.102539062 237.651367188 654.102539062 c 2
 256.350585938 654.102539062 l 1
 266.55078125 654.102539062 l 2
 310.18359375 654.102539062 349.284179688 647.01953125 383.850585938 632.852539062 c 0
 417.850585938 618.120117188 443.91796875 597.15234375 462.05078125 569.953125 c 0
 481.317382812 541.620117188 490.951171875 508.469726562 490.951171875 470.502929688 c 0xf8
 490.951171875 438.203125 483.017578125 410.15234375 467.151367188 386.352539062 c 0
 454.68359375 368.219726562 439.100585938 353.76953125 420.401367188 343.002929688 c 1
 432.868164062 337.3359375 445.05078125 330.818359375 456.951171875 323.452148438 c 0
 476.217773438 310.985351562 492.651367188 296.818359375 506.250976562 280.951171875 c 0
 519.850585938 265.083984375 526.651367188 249.500976562 526.651367188 234.201171875 c 2
 526.651367188 233.350585938 l 2
 526.651367188 211.250976562 520.842773438 189.434570312 509.225585938 167.901367188 c 0
 497.609375 146.368164062 480.891601562 126.67578125 459.075195312 108.826171875 c 0
 437.2578125 90.9755859375 408.215820312 75.818359375 371.94921875 63.3505859375 c 0
 335.682617188 50.8837890625 295.732421875 42.951171875 252.099609375 39.55078125 c 1
 247.171875 42.0146484375 242.190429688 43.2470703125 237.15625 43.2470703125 c 0
 230.611328125 43.2470703125 223.975585938 41.1650390625 217.249023438 37.0009765625 c 1
 187.782226562 34.734375 169.649414062 33.3173828125 162.849609375 32.75 c 0
 155.482421875 32.18359375 148.682617188 31.900390625 142.44921875 31.900390625 c 0
 136.215820312 31.900390625 129.983398438 32.466796875 123.75 33.6005859375 c 2
 122.049804688 33.6005859375 l 2
 107.8828125 33.6005859375 95.9833984375 38.4169921875 86.349609375 48.0498046875 c 0
 77.849609375 56.5498046875 73.599609375 67.6005859375 73.599609375 81.2001953125 c 2
 73.599609375 86.2998046875 l 2xf4
173.900390625 394.00390625 m 2
 173.900390625 377.001953125 l 1
 198.833007812 376.434570312 221.5 376.009765625 241.900390625 375.7265625 c 0
 243.938476562 375.698242188 245.948242188 375.684570312 247.926757812 375.684570312 c 0
 265.752929688 375.684570312 281.168945312 376.83203125 294.174804688 379.126953125 c 0
 308.625 381.676757812 320.666992188 384.934570312 330.299804688 388.90234375 c 0
 339.93359375 392.869140625 348.43359375 397.685546875 355.799804688 403.352539062 c 0
 363.166992188 409.01953125 368.833984375 414.686523438 372.80078125 420.353515625 c 0
 376.767578125 426.020507812 380.026367188 432.395507812 382.576171875 439.478515625 c 0
 385.125976562 446.561523438 386.967773438 452.936523438 388.100585938 458.603515625 c 0
 389.234375 464.270507812 389.80078125 470.220703125 389.80078125 476.453125 c 0
 389.80078125 488.920898438 386.967773438 500.395507812 381.30078125 510.87890625 c 0
 375.633789062 521.361328125 368.409179688 530.00390625 359.625976562 536.803710938 c 0
 350.842773438 543.603515625 340.78515625 549.270507812 329.452148438 553.803710938 c 0
 310.327148438 561.772460938 290.20703125 565.756835938 269.08984375 565.756835938 c 0
 267.681640625 565.756835938 266.268554688 565.739257812 264.8515625 565.703125 c 0
 235.384765625 565.703125 206.767578125 563.153320312 179.000976562 558.053710938 c 1
 178.43359375 547.853515625 177.8671875 532.553710938 177.299804688 512.153320312 c 0
 175.033203125 470.786132812 173.900390625 431.403320312 173.900390625 394.00390625 c 2
408.924804688 192.126953125 m 0
 417.141601562 202.610351562 421.25 212.104492188 421.25 220.604492188 c 0xf4
 421.25 225.137695312 418.416992188 230.520507812 412.75 236.75390625 c 0
 407.083007812 242.986328125 398.016601562 249.64453125 385.548828125 256.727539062 c 0
 373.08203125 263.810546875 355.232421875 270.752929688 331.999023438 277.552734375 c 0
 308.766601562 284.352539062 282.1328125 289.735351562 252.099609375 293.703125 c 1
 176.450195312 293.703125 l 1
 178.716796875 215.502929688 180.700195312 157.419921875 182.400390625 119.453125 c 1
 188.6328125 119.453125 197.700195312 119.594726562 209.599609375 119.877929688 c 0
 221.5 120.161132812 231.700195312 120.5859375 240.200195312 121.15234375 c 0
 267.400390625 122.286132812 292.900390625 126.536132812 316.700195312 133.90234375 c 0
 340.5 141.26953125 359.766601562 150.194335938 374.5 160.677734375 c 0
 389.233398438 171.161132812 400.708007812 181.643554688 408.924804688 192.126953125 c 0
EndSplineSet
Validated: 524289
EndChar

StartChar: C
Encoding: 67 67 35
Width: 550
VWidth: 903
GlyphClass: 2
Flags: W
HStem: 26.9014 96.9014<218.605 384.381> 473.155 209.945<437.203 519.629> 570.055 89.2461<316.154 430.066>
VStem: 58.3008 105.4<183.225 378.686> 428.902 107.949<489.399 549.739>
LayerCount: 2
Fore
SplineSet
530.049804688 641.450195312 m 0xd8
 535.150390625 619.350585938 537.702148438 595.837890625 537.702148438 570.905273438 c 0
 537.702148438 553.905273438 537.418945312 543.705078125 536.8515625 540.3046875 c 0
 536.8515625 526.138671875 531.751953125 511.830078125 521.551757812 497.379882812 c 0
 511.3515625 482.9296875 500.301757812 475.138671875 488.40234375 474.004882812 c 0
 486.134765625 473.438476562 483.584960938 473.155273438 480.751953125 473.155273438 c 0xd8
 470.551757812 473.155273438 460.3515625 476.5546875 450.15234375 483.35546875 c 0
 435.985351562 492.421875 428.90234375 504.60546875 428.90234375 519.905273438 c 0
 428.90234375 523.872070312 429.46875 534.072265625 430.6015625 550.504882812 c 1
 422.668945312 555.60546875 417.568359375 558.721679688 415.301757812 559.85546875 c 0
 413.03515625 560.98828125 409.91796875 562.688476562 405.951171875 564.955078125 c 0
 398.583984375 568.35546875 391.216796875 570.0546875 383.850585938 570.0546875 c 0
 366.850585938 570.0546875 348.150390625 564.955078125 327.75 554.754882812 c 0
 307.350585938 544.5546875 287.517578125 529.6796875 268.25 510.129882812 c 0
 248.983398438 490.580078125 231.55859375 468.197265625 215.975585938 442.98046875 c 0
 200.392578125 417.763671875 187.784179688 389.146484375 178.151367188 357.12890625 c 0
 168.517578125 325.112304688 163.701171875 292.954101562 163.701171875 260.654296875 c 0
 163.701171875 237.987304688 168.80078125 216.170898438 179.000976562 195.203125 c 0
 189.201171875 174.236328125 203.225585938 157.094726562 221.076171875 143.77734375 c 0
 238.92578125 130.4609375 257.484375 123.802734375 276.750976562 123.802734375 c 0
 296.017578125 123.802734375 314.717773438 125.64453125 332.850585938 129.328125 c 0
 350.984375 133.010742188 367.276367188 137.685546875 381.725585938 143.352539062 c 0
 396.17578125 149.01953125 408.642578125 154.828125 419.125976562 160.77734375 c 0
 429.609375 166.727539062 438.817382812 172.819335938 446.75 179.052734375 c 0
 454.68359375 184.719726562 461.766601562 188.969726562 467.999023438 191.802734375 c 0
 474.799804688 195.203125 482.307617188 196.90234375 490.524414062 196.90234375 c 0
 498.741210938 196.90234375 506.533203125 194.352539062 513.900390625 189.252929688 c 0
 526.3671875 179.619140625 532.600585938 168.14453125 532.600585938 154.828125 c 0
 532.600585938 141.510742188 525.517578125 126.918945312 511.350585938 111.051757812 c 0
 462.049804688 54.9521484375 383.283203125 26.9013671875 275.049804688 26.9013671875 c 2
 266.549804688 26.9013671875 l 2
 239.916992188 26.9013671875 214.984375 30.869140625 191.750976562 38.8017578125 c 0
 168.517578125 46.7353515625 148.967773438 57.642578125 133.100585938 71.5263671875 c 0
 117.234375 85.4091796875 103.633789062 101.133789062 92.30078125 118.701171875 c 0
 80.9677734375 136.267578125 72.4677734375 154.826171875 66.80078125 174.375976562 c 0
 61.1337890625 193.92578125 58.30078125 213.618164062 58.30078125 233.451171875 c 0
 58.30078125 274.250976562 62.693359375 313.776367188 71.4755859375 352.026367188 c 0
 80.2587890625 390.276367188 92.017578125 424.701171875 106.75 455.30078125 c 0
 121.483398438 485.901367188 138.766601562 514.234375 158.599609375 540.30078125 c 0
 180.1328125 566.368164062 202.799804688 587.901367188 226.599609375 604.901367188 c 0
 250.399414062 621.901367188 275.33203125 635.217773438 301.399414062 644.850585938 c 0
 327.466796875 654.484375 352.68359375 659.30078125 377.049804688 659.30078125 c 0xb8
 396.8828125 659.30078125 415.299804688 657.600585938 432.299804688 654.201171875 c 1
 435.700195312 660.43359375 439.950195312 665.817382812 445.049804688 670.350585938 c 0
 452.983398438 677.150390625 461.766601562 681.1171875 471.399414062 682.25 c 0
 475.366210938 682.817382812 477.6328125 683.100585938 478.200195312 683.100585938 c 2
 479.049804688 683.100585938 l 2
 488.1171875 683.100585938 497.466796875 680.267578125 507.100585938 674.600585938 c 0
 519 666.666992188 526.650390625 655.6171875 530.049804688 641.450195312 c 0xd8
EndSplineSet
Validated: 524289
EndChar

StartChar: D
Encoding: 68 68 36
Width: 550
VWidth: 901
GlyphClass: 2
Flags: W
HStem: 24.875 93.498<176.237 380.547>
VStem: 56.0488 103.255<138.841 143.022 144.199 361.635 494.887 572.757> 437.36 101.993<187.987 388.972>
LayerCount: 2
Fore
SplineSet
60.8046875 103.924804688 m 2
 61.9384765625 123.192382812 62.5087890625 153.506835938 62.5087890625 194.873046875 c 0
 62.5087890625 269.673828125 60.80859375 358.356445312 57.408203125 460.923828125 c 1
 56.841796875 491.5234375 56.4169921875 511.78125 56.1337890625 521.698242188 c 0
 56.0771484375 523.680664062 56.048828125 525.866210938 56.048828125 528.255859375 c 0
 56.048828125 537.822265625 56.501953125 550.653320312 57.408203125 566.749023438 c 0
 58.5419921875 586.866210938 59.1083984375 599.19140625 59.1083984375 603.724609375 c 1
 59.67578125 621.291015625 64.775390625 634.608398438 74.408203125 643.674804688 c 0
 84.0419921875 653.307617188 96.224609375 658.125 110.958007812 658.125 c 0
 130.224609375 658.125 155.724609375 655.291992188 187.458007812 649.625 c 0
 207.291015625 646.224609375 227.548828125 641.549804688 248.231445312 635.599609375 c 0
 268.915039062 629.650390625 291.297851562 621.291992188 315.380859375 610.525390625 c 0
 339.463867188 599.7578125 362.272460938 587.432617188 383.8046875 573.549804688 c 0
 405.337890625 559.666992188 426.021484375 541.958984375 445.854492188 520.42578125 c 0
 464.5546875 499.458984375 480.846679688 476.3671875 494.729492188 451.150390625 c 0
 508.612304688 425.932617188 519.520507812 396.182617188 527.453125 361.900390625 c 0
 535.38671875 327.6171875 539.353515625 290.641601562 539.353515625 250.974609375 c 0
 539.353515625 231.141601562 536.520507812 210.7421875 530.853515625 189.775390625 c 0
 525.186523438 168.807617188 516.686523438 148.69140625 505.353515625 129.423828125 c 0
 494.020507812 110.157226562 480.5625 92.732421875 464.979492188 77.1494140625 c 0
 449.396484375 61.56640625 429.98828125 48.9580078125 406.754882812 39.3251953125 c 0
 382.955078125 29.6923828125 357.73828125 24.875 331.10546875 24.875 c 2
 322.60546875 24.875 l 2
 294.837890625 24.875 266.788085938 26.150390625 238.455078125 28.7001953125 c 0
 210.122070312 31.25 187.455078125 34.224609375 170.455078125 37.625 c 0
 153.455078125 41.025390625 139.4296875 44.1416015625 128.379882812 46.974609375 c 0
 117.330078125 49.8076171875 110.671875 51.224609375 108.405273438 51.224609375 c 0
 94.23828125 51.224609375 82.337890625 56.0419921875 72.705078125 65.6748046875 c 0
 64.736328125 73.6435546875 60.751953125 83.6044921875 60.751953125 95.556640625 c 0
 60.751953125 96.3544921875 60.76953125 97.16015625 60.8046875 97.974609375 c 2
 60.8046875 103.924804688 l 2
240.583007812 124.322265625 m 0
 266.366210938 120.35546875 296.259765625 118.373046875 330.259765625 118.373046875 c 0
 344.993164062 118.373046875 359.018554688 123.190429688 372.334960938 132.823242188 c 0
 385.65234375 142.456054688 396.985351562 155.064453125 406.334960938 170.647460938 c 0
 415.685546875 186.23046875 423.193359375 203.655273438 428.860351562 222.922851562 c 0
 434.52734375 242.189453125 437.360351562 260.889648438 437.360351562 279.022460938 c 0
 437.360351562 381.58984375 392.02734375 460.072265625 301.360351562 514.47265625 c 0
 269.060546875 533.739257812 222.02734375 553.572265625 160.259765625 573.97265625 c 1
 159.623046875 548.048828125 159.303710938 521.6875 159.303710938 494.88671875 c 0
 159.303710938 450.216796875 160.189453125 404.328125 161.959960938 357.22265625 c 0
 163.092773438 332.85546875 164.2265625 297.297851562 165.359375 250.547851562 c 0
 166.4921875 203.797851562 167.625 167.955078125 168.758789062 143.022460938 c 1
 190.858398438 134.522460938 214.80078125 128.2890625 240.583007812 124.322265625 c 0
EndSplineSet
Validated: 524289
EndChar

StartChar: E
Encoding: 69 69 37
Width: 550
VWidth: 901
GlyphClass: 2
Flags: W
HStem: 34.2998 95.2012<175.419 467.992> 46.2002 97.75<228.961 516.93> 307.151 92.6494<171.382 343.865> 322.451 90.1006<172.913 505.522> 552.8 91.7998<175.798 519.125>
VStem: 66.8311 105.401<132.211 307.151 399.801 546.301>
LayerCount: 2
Fore
SplineSet
123.780273438 649.700195312 m 2x8c
 137.947265625 649.700195312 149.852539062 645.166015625 159.485351562 636.099609375 c 1
 208.21875 641.765625 270.833007812 644.599609375 347.333007812 644.599609375 c 0
 367.166015625 644.599609375 385.584960938 644.31640625 402.584960938 643.749023438 c 0
 437.71875 642.616210938 465.201171875 640.916015625 485.034179688 638.649414062 c 0
 500.901367188 636.94921875 512.376953125 632.557617188 519.459960938 625.474609375 c 0
 526.54296875 618.390625 530.3671875 608.899414062 530.934570312 596.999023438 c 0
 530.934570312 590.765625 530.2265625 584.958007812 528.809570312 579.575195312 c 0
 527.392578125 574.192382812 525.267578125 569.234375 522.434570312 564.701171875 c 0
 519.034179688 559.034179688 513.651367188 554.784179688 506.284179688 551.951171875 c 0
 501.184570312 549.68359375 495.801757812 548.55078125 490.134765625 548.55078125 c 0
 487.8671875 548.55078125 485.600585938 548.833984375 483.333984375 549.400390625 c 0
 450.75390625 551.76171875 416.796875 552.94140625 381.461914062 552.94140625 c 0
 374.391601562 552.94140625 367.264648438 552.89453125 360.083984375 552.799804688 c 2
 314.18359375 552.799804688 l 2
 260.350585938 551.666992188 213.600585938 548.833984375 173.93359375 544.30078125 c 1
 171.666992188 495.000976562 170.534179688 446.833984375 170.534179688 399.80078125 c 1xac
 214.166992188 400.368164062 273.099609375 402.634765625 347.333007812 406.6015625 c 0
 420.432617188 410.568359375 461.515625 412.551757812 470.58203125 412.551757812 c 0
 487.015625 412.551757812 498.774414062 408.584960938 505.857421875 400.651367188 c 0
 512.940429688 392.71875 516.482421875 382.801757812 516.482421875 370.901367188 c 0
 516.482421875 357.301757812 513.649414062 346.53515625 507.982421875 338.6015625 c 0
 500.048828125 328.401367188 487.58203125 323.018554688 470.58203125 322.451171875 c 0x1c
 460.381835938 322.451171875 416.46484375 320.184570312 338.83203125 315.651367188 c 0
 259.499023438 310.551757812 203.681640625 307.71875 171.381835938 307.151367188 c 1
 171.94921875 292.984375 172.232421875 279.243164062 172.232421875 265.92578125 c 2
 172.232421875 223.850585938 l 2
 172.798828125 185.883789062 173.931640625 159.534179688 175.631835938 144.80078125 c 0
 176.19921875 139.701171875 176.765625 135.451171875 177.333007812 132.05078125 c 0
 188.666015625 130.350585938 205.524414062 129.500976562 227.907226562 129.500976562 c 0xac
 250.290039062 129.500976562 278.482421875 130.067382812 312.482421875 131.201171875 c 0
 391.815429688 134.034179688 441.681640625 137.716796875 462.08203125 142.25 c 0
 470.58203125 143.3828125 478.374023438 143.950195312 485.45703125 143.950195312 c 0
 492.540039062 143.950195312 498.7734375 142.533203125 504.15625 139.700195312 c 0
 509.5390625 136.8671875 513.931640625 133.891601562 517.331054688 130.775390625 c 0
 520.731445312 127.658203125 523.422851562 123.833007812 525.40625 119.299804688 c 0
 527.389648438 114.766601562 528.806640625 110.799804688 529.65625 107.400390625 c 0
 530.505859375 104 530.934570312 100.317382812 530.934570312 96.349609375 c 0
 530.934570312 82.75 526.3984375 70.849609375 517.331054688 60.650390625 c 0
 508.831054688 51.0166015625 496.931640625 45.9169921875 481.630859375 45.349609375 c 1
 477.098632812 52.716796875 472.565429688 53 468.032226562 46.2001953125 c 1
 465.482421875 46.2001953125 l 2x4c
 452.44921875 46.2001953125 427.798828125 45.0673828125 391.532226562 42.7998046875 c 0
 354.131835938 40.533203125 316.024414062 38.5498046875 277.20703125 36.849609375 c 0
 238.390625 35.150390625 209.065429688 34.2998046875 189.232421875 34.2998046875 c 0
 169.96484375 34.2998046875 154.098632812 34.8671875 141.630859375 36 c 0
 125.764648438 37.1328125 110.463867188 44.5 95.7314453125 58.099609375 c 0
 80.998046875 71.7001953125 72.498046875 87.849609375 70.2314453125 106.549804688 c 0
 68.53125 120.150390625 67.3984375 143.950195312 66.8310546875 177.950195312 c 0
 66.8310546875 209.1171875 67.1142578125 240.424804688 67.681640625 271.875 c 0
 68.248046875 303.325195312 68.53125 329.958007812 68.53125 351.775390625 c 0
 68.53125 373.591796875 67.9638671875 404.049804688 66.8310546875 443.150390625 c 0
 66.2646484375 476.016601562 65.8388671875 497.974609375 65.556640625 509.025390625 c 0
 65.5 511.233398438 65.4716796875 513.62890625 65.4716796875 516.211914062 c 0
 65.4716796875 526.547851562 65.9248046875 539.877929688 66.8310546875 556.200195312 c 0
 67.9638671875 576.599609375 68.53125 589.349609375 68.53125 594.450195312 c 2
 68.53125 595.299804688 l 2
 69.0986328125 612.8671875 74.1982421875 626.325195312 83.8310546875 635.674804688 c 0
 93.4638671875 645.025390625 105.647460938 649.700195312 120.380859375 649.700195312 c 2
 123.780273438 649.700195312 l 2x8c
EndSplineSet
Validated: 524289
EndChar

StartChar: F
Encoding: 70 70 38
Width: 550
VWidth: 901
GlyphClass: 2
Flags: W
HStem: 310.372 85.4258<458.092 488.517> 318.448 90.5264<171.35 480.763> 559.425 92.7344<177.272 518.187>
VStem: 66.7998 103.486<85.5457 316.219 405.575 552.625> 70.2002 108.799<48.9484 311.167>
LayerCount: 2
Fore
SplineSet
124.599609375 659.724609375 m 0x70
 139.333007812 659.724609375 151.233398438 654.907226562 160.299804688 645.274414062 c 1
 226.087890625 649.864257812 290.26953125 652.159179688 352.84375 652.159179688 c 0
 359.798828125 652.159179688 366.734375 652.130859375 373.650390625 652.07421875 c 0
 418.983398438 652.07421875 456.099609375 650.94140625 485 648.673828125 c 0
 500.8671875 647.541015625 512.341796875 643.291015625 519.424804688 635.923828125 c 0
 526.5078125 628.556640625 530.333007812 618.923828125 530.900390625 607.024414062 c 2
 530.900390625 606.173828125 l 2
 530.900390625 593.140625 526.791992188 581.807617188 518.575195312 572.174804688 c 0
 510.358398438 562.541992188 498.033203125 557.724609375 481.599609375 557.724609375 c 2
 479.900390625 557.724609375 l 2
 456.525390625 559 432.03515625 559.637695312 406.430664062 559.637695312 c 0
 397.89453125 559.637695312 389.234375 559.56640625 380.450195312 559.424804688 c 0
 314.716796875 559.424804688 245.8671875 557.158203125 173.900390625 552.625 c 1
 173.333007812 544.125 172.765625 531.091796875 172.19921875 513.524414062 c 0
 170.923828125 488.451171875 170.286132812 464.651367188 170.286132812 442.126953125 c 0
 170.286132812 434.618164062 170.357421875 427.250976562 170.499023438 420.024414062 c 2
 170.499023438 405.575195312 l 1
 193.732421875 407.841796875 218.94921875 408.974609375 246.149414062 408.974609375 c 0x70
 253.515625 408.974609375 260.8828125 408.69140625 268.25 408.125 c 0
 309.049804688 407.557617188 345.8828125 406.140625 378.75 403.874023438 c 0
 412.182617188 401.607421875 437.2578125 398.915039062 453.974609375 395.797851562 c 0
 470.692382812 392.681640625 482.30859375 387.864257812 488.826171875 381.34765625 c 0
 495.342773438 374.830078125 499.16796875 365.905273438 500.30078125 354.572265625 c 0
 500.30078125 342.671875 497.467773438 332.189453125 491.80078125 323.122070312 c 0
 487.833984375 317.455078125 482.166992188 313.205078125 474.799804688 310.372070312 c 0xb0
 469.700195312 308.671875 464.033203125 307.822265625 457.799804688 307.822265625 c 2
 451.849609375 307.822265625 l 2
 434.283203125 310.655273438 408.783203125 313.205078125 375.349609375 315.47265625 c 0
 343.612304688 317.487304688 310.98046875 318.495117188 277.451171875 318.495117188 c 0
 273.264648438 318.495117188 269.064453125 318.479492188 264.849609375 318.448242188 c 0
 226.8828125 318.165039062 195.715820312 316.889648438 171.349609375 314.623046875 c 1
 174.182617188 240.956054688 176.732421875 163.323242188 178.999023438 81.7236328125 c 0
 177.298828125 66.4228515625 169.932617188 54.5234375 156.899414062 46.0234375 c 0
 145.56640625 38.08984375 133.381835938 33.83984375 120.349609375 33.2734375 c 0
 119.215820312 33.2734375 118.3671875 33.556640625 117.799804688 34.123046875 c 0
 103.6328125 34.123046875 91.7333984375 38.9404296875 82.099609375 48.5732421875 c 0
 74.1318359375 56.5419921875 70.146484375 66.7509765625 70.146484375 79.2021484375 c 0
 70.146484375 80.0322265625 70.1650390625 80.873046875 70.2001953125 81.7236328125 c 2
 70.2001953125 86.8232421875 l 2x68
 71.3330078125 104.390625 71.900390625 133.857421875 71.900390625 175.223632812 c 0
 71.900390625 253.423828125 70.2001953125 340.124023438 66.7998046875 435.32421875 c 0
 65.6669921875 472.157226562 65.099609375 496.94921875 65.099609375 509.69921875 c 0
 65.099609375 522.44921875 65.525390625 539.44921875 66.375 560.69921875 c 0
 67.224609375 581.94921875 67.9326171875 596.541015625 68.5 604.473632812 c 0
 69.0673828125 622.041015625 74.1669921875 635.357421875 83.7998046875 644.424804688 c 0
 93.4326171875 654.057617188 105.616210938 658.875 120.349609375 658.875 c 0
 122.616210938 659.44140625 124.033203125 659.724609375 124.599609375 659.724609375 c 0x70
EndSplineSet
Validated: 524289
EndChar

StartChar: G
Encoding: 71 71 39
Width: 550
VWidth: 901
GlyphClass: 2
Flags: W
HStem: 25.6299 96.8975<217.28 331.579> 578.13 89.249<315.574 444.475>
VStem: 56.6045 105.398<182.086 381.419>
LayerCount: 2
Fore
SplineSet
335.400390625 38.3759765625 m 0
 312.733398438 29.8759765625 290.071289062 25.6298828125 267.404296875 25.6298828125 c 0
 239.637695312 25.6298828125 213.854492188 29.5966796875 190.0546875 37.5302734375 c 0
 166.821289062 45.462890625 147.413085938 56.37109375 131.830078125 70.25390625 c 0
 116.247070312 84.13671875 102.647460938 99.8623046875 91.0302734375 117.428710938 c 0
 79.4130859375 134.99609375 70.771484375 153.553710938 65.1044921875 173.103515625 c 0
 59.4375 192.654296875 56.6044921875 212.345703125 56.6044921875 232.178710938 c 0
 56.6044921875 273.545898438 60.9970703125 313.779296875 69.779296875 352.87890625 c 0
 78.5625 391.978515625 90.3203125 427.112304688 105.053710938 458.279296875 c 0
 119.787109375 489.446289062 137.0703125 518.345703125 156.903320312 544.978515625 c 0
 178.436523438 571.045898438 201.244140625 593.00390625 225.327148438 610.853515625 c 0
 249.41015625 628.704101562 274.202148438 642.446289062 299.702148438 652.079101562 c 0
 325.76953125 662.279296875 351.551757812 667.37890625 377.051757812 667.37890625 c 0
 402.551757812 667.37890625 431.168945312 661.711914062 462.90234375 650.37890625 c 0
 493.501953125 639.045898438 513.619140625 628.5625 523.251953125 618.9296875 c 0
 533.452148438 608.729492188 538.834960938 596.546875 539.40234375 582.379882812 c 0
 539.40234375 575.580078125 537.985351562 568.212890625 535.15234375 560.280273438 c 0
 531.751953125 550.080078125 524.384765625 542.712890625 513.051757812 538.1796875 c 0
 507.384765625 535.913085938 501.71875 534.780273438 496.051757812 534.780273438 c 0
 489.818359375 534.780273438 484.435546875 535.629882812 479.90234375 537.330078125 c 0
 475.369140625 539.030273438 466.869140625 543.5625 454.40234375 550.9296875 c 0
 441.935546875 558.296875 429.185546875 564.671875 416.15234375 570.0546875 c 0
 403.119140625 575.4375 391.786132812 578.129882812 382.153320312 578.129882812 c 0
 365.153320312 578.129882812 346.453125 572.887695312 326.052734375 562.405273438 c 0
 305.653320312 551.921875 285.9609375 536.622070312 266.977539062 516.504882812 c 0
 247.995117188 496.387695312 230.5703125 473.295898438 214.703125 447.228515625 c 0
 198.8359375 421.162109375 186.0859375 391.6953125 176.453125 358.828125 c 0
 166.8203125 325.9609375 162.002929688 293.094726562 162.002929688 260.227539062 c 0
 162.002929688 237.560546875 167.102539062 215.602539062 177.302734375 194.352539062 c 0
 187.502929688 173.102539062 201.528320312 155.819335938 219.377929688 142.501953125 c 0
 237.227539062 129.185546875 256.0703125 122.52734375 275.903320312 122.52734375 c 0
 288.936523438 122.52734375 302.252929688 126.352539062 315.852539062 134.001953125 c 0
 329.453125 141.65234375 342.203125 151.709960938 354.102539062 164.177734375 c 0
 366.002929688 176.64453125 377.3359375 190.811523438 388.102539062 206.677734375 c 0
 404.536132812 231.044921875 417.569335938 255.978515625 427.202148438 281.478515625 c 1
 394.334960938 279.778320312 361.185546875 276.802734375 327.751953125 272.552734375 c 0
 294.319335938 268.302734375 271.0859375 263.061523438 258.052734375 256.828125 c 0
 251.252929688 253.427734375 244.453125 251.728515625 237.653320312 251.728515625 c 0
 230.852539062 251.728515625 224.052734375 253.7109375 217.252929688 257.677734375 c 0
 204.786132812 264.478515625 197.418945312 274.111328125 195.15234375 286.578125 c 0
 194.584960938 289.411132812 194.301757812 292.244140625 194.301757812 295.077148438 c 0
 194.301757812 306.977539062 199.119140625 317.744140625 208.751953125 327.376953125 c 0
 215.551757812 334.177734375 224.90234375 340.126953125 236.801757812 345.227539062 c 0
 255.501953125 353.727539062 294.03515625 359.959960938 352.40234375 363.927734375 c 0
 394.334960938 366.760742188 429.46875 368.177734375 457.801757812 368.177734375 c 2
 485.8515625 368.177734375 l 2
 502.284179688 367.043945312 514.184570312 363.64453125 521.551757812 357.977539062 c 0
 531.184570312 350.610351562 536.000976562 338.993164062 536.000976562 323.126953125 c 0
 536.000976562 306.126953125 529.768554688 293.943359375 517.301757812 286.576171875 c 0
 517.301757812 284.876953125 516.734375 281.4765625 515.6015625 276.376953125 c 0
 515.034179688 273.54296875 514.467773438 268.7265625 513.900390625 261.926757812 c 0
 511.067382812 237.559570312 499.734375 206.392578125 479.901367188 168.42578125 c 0
 470.268554688 150.858398438 458.368164062 133.575195312 444.201171875 116.575195312 c 0
 429.46875 99.5751953125 413.318359375 84.41796875 395.750976562 71.1005859375 c 0
 378.184570312 57.7841796875 358.067382812 46.8759765625 335.400390625 38.3759765625 c 0
EndSplineSet
Validated: 524289
EndChar

StartChar: H
Encoding: 72 72 40
Width: 550
VWidth: 901
GlyphClass: 2
Flags: W
HStem: 317.102 73.1035<185.797 389.81>
VStem: 79.5479 104.55<48.8747 317.102 390.205 604.958> 406.799 108.801<45.2183 341.512> 413.598 105.685<54.4858 341.751 408.929 643.898>
LayerCount: 2
Fore
SplineSet
74.4482421875 79.9501953125 m 2xe0
 74.4482421875 86.7548828125 l 2
 75.5810546875 102.0546875 76.1484375 140.021484375 76.1484375 200.654296875 c 0
 76.1484375 235.221679688 76.8564453125 277.296875 78.2734375 326.879882812 c 0
 79.6904296875 376.462890625 80.3984375 406.212890625 80.3984375 416.129882812 c 2
 80.3984375 445.879882812 l 2
 80.3984375 455.796875 80.255859375 472.37109375 79.97265625 495.604492188 c 0
 79.6904296875 518.837890625 79.5478515625 534.279296875 79.5478515625 541.9296875 c 0
 79.5478515625 549.579101562 79.6904296875 557.37109375 79.97265625 565.3046875 c 0
 80.255859375 573.237304688 80.3984375 578.0546875 80.3984375 579.754882812 c 0
 80.3984375 581.454101562 80.5400390625 583.721679688 80.8232421875 586.5546875 c 0
 81.1064453125 589.387695312 81.248046875 592.079101562 81.248046875 594.629882812 c 2
 81.248046875 601.4296875 l 1
 81.248046875 604.404296875 l 2
 81.8154296875 621.971679688 87.1982421875 635.286132812 97.3984375 644.352539062 c 0
 107.03125 653.986328125 119.213867188 658.802734375 133.947265625 658.802734375 c 2
 136.497070312 658.802734375 l 2
 150.09765625 658.802734375 161.713867188 654.8359375 171.34765625 646.90234375 c 0
 182.680664062 637.8359375 188.629882812 623.955078125 189.197265625 605.254882812 c 0
 189.197265625 599.022460938 188.34765625 586.555664062 186.647460938 567.85546875 c 0
 184.947265625 549.155273438 184.09765625 532.296875 184.09765625 517.280273438 c 0
 184.09765625 502.263671875 184.379882812 481.155273438 184.947265625 453.955078125 c 0
 185.514648438 426.754882812 185.796875 405.504882812 185.796875 390.205078125 c 1
 235.09765625 391.337890625 295.1640625 396.438476562 365.997070312 405.504882812 c 0
 386.963867188 408.337890625 402.831054688 410.321289062 413.59765625 411.454101562 c 0
 413.59765625 413.721679688 413.456054688 417.546875 413.172851562 422.9296875 c 0
 412.889648438 428.3125 412.607421875 440.920898438 412.32421875 460.75390625 c 0
 412.041015625 480.586914062 411.899414062 496.028320312 411.899414062 507.079101562 c 0
 411.899414062 518.12890625 412.323242188 535.553710938 413.172851562 559.353515625 c 0
 414.0234375 583.153320312 414.732421875 597.603515625 415.298828125 602.704101562 c 0
 415.866210938 620.836914062 420.965820312 634.719726562 430.598632812 644.352539062 c 0
 440.798828125 653.986328125 452.982421875 658.802734375 467.149414062 658.802734375 c 2
 469.69921875 658.802734375 l 2
 483.866210938 658.802734375 495.765625 654.8359375 505.399414062 646.90234375 c 0
 516.166015625 637.8359375 521.548828125 624.518554688 521.548828125 606.952148438 c 0
 521.548828125 596.184570312 521.265625 574.65234375 520.69921875 542.3515625 c 0
 520.131835938 502.684570312 519.70703125 467.126953125 519.423828125 435.676757812 c 0
 519.330078125 425.204101562 519.282226562 415.453125 519.282226562 406.42578125 c 0xd0
 519.282226562 388.34375 519.471679688 373.161132812 519.849609375 360.876953125 c 0
 520.416992188 342.459960938 520.69921875 325.318359375 520.69921875 309.451171875 c 0
 520.69921875 278.284179688 519.849609375 238.4765625 518.149414062 190.026367188 c 0
 516.450195312 141.576171875 515.599609375 107.717773438 515.599609375 88.451171875 c 2
 515.599609375 81.6513671875 l 2
 513.899414062 66.3515625 507.099609375 54.451171875 495.200195312 45.951171875 c 0
 483.8671875 38.0185546875 471.399414062 33.7685546875 457.799804688 33.201171875 c 0
 456.666992188 33.201171875 455.81640625 33.484375 455.25 34.05078125 c 0
 441.083007812 34.05078125 429.465820312 38.8681640625 420.399414062 48.5009765625 c 0
 411.33203125 57.0009765625 406.798828125 68.333984375 406.798828125 82.5009765625 c 2
 406.798828125 88.451171875 l 1
 412.465820312 159.8515625 415.298828125 239.184570312 415.298828125 326.451171875 c 2
 415.298828125 341.750976562 l 1
 396.598632812 340.05078125 360.473632812 335.659179688 306.923828125 328.576171875 c 0
 253.374023438 321.493164062 212.149414062 317.66796875 183.249023438 317.1015625 c 1
 183.249023438 309.451171875 l 2
 181.548828125 281.118164062 180.69921875 248.250976562 180.69921875 210.8515625 c 0
 180.69921875 173.451171875 181.548828125 130.66796875 183.249023438 82.5009765625 c 0
 181.548828125 66.6337890625 174.181640625 54.451171875 161.149414062 45.951171875 c 0
 149.815429688 38.0185546875 137.6328125 33.7685546875 124.599609375 33.201171875 c 0
 123.466796875 33.201171875 122.6171875 33.484375 122.049804688 34.05078125 c 0
 107.8828125 34.05078125 95.982421875 38.8681640625 86.349609375 48.5009765625 c 0
 78.4169921875 56.4345703125 74.4482421875 66.9169921875 74.4482421875 79.9501953125 c 2xe0
EndSplineSet
Validated: 524289
EndChar

StartChar: I
Encoding: 73 73 41
Width: 550
VWidth: 902
GlyphClass: 2
Flags: W
HStem: 42.8486 87.5498<79.1291 239.046 353.25 481.6 484.151 519.939> 562.198 93.501<85.5168 242.752>
VStem: 240.202 116.448<131.248 560.499>
LayerCount: 2
Fore
SplineSet
195.150390625 42 m 1
 157.75 40.8671875 131.967773438 40.2978515625 117.80078125 40.2978515625 c 0
 100.80078125 40.2978515625 87.767578125 43.9814453125 78.701171875 51.34765625 c 0
 69.0673828125 58.71484375 64.2509765625 68.34765625 64.2509765625 80.248046875 c 2
 64.2509765625 82.7978515625 l 2
 64.2509765625 94.130859375 68.359375 104.047851562 76.576171875 112.547851562 c 0
 84.79296875 121.047851562 97.6845703125 125.581054688 115.251953125 126.1484375 c 0
 137.918945312 127.28125 178.71875 128.4140625 237.651367188 129.546875 c 1
 241.618164062 188.48046875 243.6015625 249.680664062 243.6015625 313.147460938 c 0
 243.6015625 346.580078125 243.03515625 380.580078125 241.901367188 415.147460938 c 0
 240.768554688 439.514648438 240.202148438 465.864257812 240.202148438 494.197265625 c 2
 240.202148438 512.046875 l 2
 240.202148438 517.713867188 240.626953125 526.356445312 241.4765625 537.97265625 c 0
 242.327148438 549.58984375 242.751953125 557.665039062 242.751953125 562.198242188 c 1
 209.884765625 562.764648438 185.517578125 563.047851562 169.650390625 563.047851562 c 0
 154.91796875 563.047851562 139.900390625 562.764648438 124.600585938 562.198242188 c 2
 122.900390625 562.198242188 l 2
 107.034179688 562.198242188 94.42578125 566.165039062 85.076171875 574.09765625 c 0
 75.7255859375 582.03125 70.767578125 592.797851562 70.201171875 606.3984375 c 2
 70.201171875 608.09765625 l 2
 70.201171875 619.998046875 74.5927734375 630.481445312 83.3759765625 639.547851562 c 0
 92.1591796875 648.615234375 105.333984375 653.431640625 122.900390625 653.999023438 c 0
 171.633789062 655.131835938 218.383789062 655.69921875 263.150390625 655.69921875 c 0
 352.118164062 655.69921875 424.932617188 653.149414062 481.599609375 648.048828125 c 0
 494.6328125 646.916015625 505.118164062 643.232421875 513.05078125 637 c 0
 523.817382812 629.06640625 529.484375 618.016601562 530.051757812 603.849609375 c 2
 530.051757812 603 l 2
 530.051757812 590.533203125 526.368164062 578.916015625 519.001953125 568.149414062 c 0
 515.03515625 561.916015625 509.368164062 557.098632812 502.000976562 553.69921875 c 0
 497.467773438 551.431640625 492.368164062 550.298828125 486.701171875 550.298828125 c 0
 483.868164062 550.298828125 480.467773438 550.866210938 476.500976562 551.999023438 c 0
 460.633789062 554.265625 421.534179688 557.098632812 359.201171875 560.499023438 c 1
 359.201171875 554.265625 358.633789062 542.932617188 357.500976562 526.5 c 0
 356.93359375 510.6328125 356.650390625 498.307617188 356.650390625 489.524414062 c 2
 356.650390625 463.599609375 l 2
 356.650390625 430.166992188 356.93359375 402.541992188 357.500976562 380.724609375 c 0
 358.067382812 358.908203125 358.350585938 336.666015625 358.350585938 313.999023438 c 0
 358.350585938 291.33203125 357.642578125 259.315429688 356.225585938 217.948242188 c 0
 354.80859375 176.581054688 353.817382812 147.681640625 353.25 131.248046875 c 1
 377.049804688 131.248046875 396.599609375 130.96484375 411.900390625 130.3984375 c 2
 481.599609375 130.3984375 l 1
 481.599609375 134.931640625 481.8828125 134.931640625 482.450195312 130.3984375 c 1
 482.450195312 134.931640625 482.732421875 134.931640625 483.298828125 130.3984375 c 1
 483.298828125 134.931640625 483.583007812 134.931640625 484.150390625 130.3984375 c 1
 484.150390625 134.931640625 484.432617188 134.931640625 485 130.3984375 c 1
 501.432617188 130.3984375 513.19140625 126.573242188 520.274414062 118.922851562 c 0
 527.357421875 111.2734375 531.182617188 101.78125 531.749023438 90.4482421875 c 2
 531.749023438 89.5986328125 l 2
 531.749023438 83.931640625 531.184570312 78.548828125 530.051757812 73.44921875 c 0
 528.918945312 68.3486328125 526.932617188 63.2490234375 524.099609375 58.1494140625 c 0
 520.1328125 51.916015625 514.465820312 47.666015625 507.099609375 45.3994140625 c 0
 502.56640625 43.69921875 498.31640625 42.8486328125 494.349609375 42.8486328125 c 2
 483.298828125 42.8486328125 l 2
 467.999023438 45.1162109375 442.499023438 46.2490234375 406.798828125 46.2490234375 c 0
 369.399414062 46.2490234375 335.682617188 45.9658203125 305.649414062 45.3994140625 c 1
 290.301757812 47.7607421875 274.953125 48.94140625 259.60546875 48.94140625 c 0
 195.150390625 42 l 1
EndSplineSet
Validated: 524289
EndChar

StartChar: J
Encoding: 74 74 42
Width: 550
VWidth: 900
GlyphClass: 2
Flags: W
HStem: 20.875 107.099<203.165 284.692> 560.623 93.502<89.3288 295.452 398.3 489.968>
VStem: 62.1279 97.3242<174.058 270.348> 295.239 103.061<129.043 359.62 360.434 557.226>
LayerCount: 2
Fore
SplineSet
402.549804688 235.075195312 m 0
 392.916992188 136.474609375 372.802734375 73.0078125 342.203125 44.6748046875 c 0
 325.76953125 28.8076171875 306.219726562 20.875 283.552734375 20.875 c 0
 260.885742188 20.875 238.927734375 24.5576171875 217.677734375 31.9248046875 c 0
 196.427734375 39.2919921875 178.15234375 48.6416015625 162.852539062 59.974609375 c 0
 148.120117188 71.875 134.661132812 84.7666015625 122.478515625 98.650390625 c 0
 110.295898438 112.533203125 100.095703125 126.275390625 91.87890625 139.875 c 0
 83.6611328125 153.474609375 77.14453125 165.942382812 72.328125 177.275390625 c 0
 67.5107421875 188.608398438 64.5361328125 197.674804688 63.40234375 204.474609375 c 0
 61.703125 210.708007812 61.27734375 217.650390625 62.1279296875 225.299804688 c 0
 62.9775390625 232.950195312 64.2529296875 240.174804688 65.953125 246.974609375 c 0
 68.2197265625 254.908203125 72.7529296875 261.991210938 79.552734375 268.224609375 c 0
 86.3525390625 274.45703125 95.1357421875 278.423828125 105.90234375 280.124023438 c 0
 109.302734375 280.69140625 112.703125 280.974609375 116.102539062 280.974609375 c 0
 127.435546875 280.974609375 137.068359375 277.57421875 145.001953125 270.774414062 c 0
 154.634765625 261.70703125 159.452148438 250.08984375 159.452148438 235.923828125 c 0
 159.452148438 222.323242188 163.985351562 206.173828125 173.051757812 187.473632812 c 0
 178.71875 176.706054688 185.518554688 167.073242188 193.452148438 158.573242188 c 0
 201.384765625 150.073242188 212.15234375 142.848632812 225.751953125 136.8984375 c 0
 239.3515625 130.948242188 254.65234375 127.973632812 271.65234375 127.973632812 c 0
 272.21875 127.973632812 272.786132812 128.256835938 273.352539062 128.823242188 c 0
 277.319335938 131.65625 281.002929688 138.173828125 284.40234375 148.373046875 c 0
 292.3359375 172.740234375 296.869140625 209.573242188 298.001953125 258.873046875 c 2
 298.001953125 260.573242188 l 1
 298.001953125 277.998046875 l 2
 298.001953125 288.481445312 297.71875 316.673828125 297.15234375 362.573242188 c 0
 295.876953125 413.572265625 295.239257812 463.455078125 295.239257812 512.221679688 c 0
 295.239257812 528.479492188 295.310546875 544.61328125 295.452148438 560.623046875 c 1
 263.435546875 561.473632812 233.47265625 561.8984375 205.564453125 561.8984375 c 0
 177.65625 561.8984375 151.801757812 561.473632812 128.001953125 560.623046875 c 2
 126.301757812 560.623046875 l 2
 110.434570312 560.623046875 97.9677734375 564.58984375 88.9013671875 572.5234375 c 0
 79.833984375 580.456054688 75.017578125 591.223632812 74.4501953125 604.823242188 c 0
 74.4501953125 605.390625 74.1669921875 605.95703125 73.6005859375 606.524414062 c 0
 73.6005859375 618.423828125 78.1328125 628.907226562 87.2001953125 637.974609375 c 0
 96.267578125 647.041015625 109.583984375 651.858398438 127.151367188 652.424804688 c 0
 176.451171875 653.557617188 223.201171875 654.125 267.401367188 654.125 c 0
 355.80078125 654.125 428.333984375 651.575195312 485.000976562 646.474609375 c 0
 498.034179688 645.341796875 508.517578125 641.659179688 516.450195312 635.42578125 c 0
 527.216796875 627.493164062 533.166992188 616.16015625 534.299804688 601.426757812 c 0
 534.299804688 588.959960938 530.6171875 577.342773438 523.25 566.576171875 c 0
 519.283203125 560.342773438 513.333007812 555.525390625 505.400390625 552.125976562 c 0
 500.8671875 549.859375 495.767578125 548.725585938 490.100585938 548.725585938 c 0
 487.267578125 548.725585938 484.150390625 549.29296875 480.75 550.42578125 c 0
 463.18359375 553.258789062 435.700195312 555.525390625 398.299804688 557.225585938 c 1
 398.299804688 543.05859375 400.283203125 493.475585938 404.25 408.475585938 c 0
 405.157226562 389.88671875 405.610351562 373.655273438 405.610351562 359.782226562 c 0
 405.610351562 356.31640625 405.58203125 352.997070312 405.525390625 349.826171875 c 0
 405.2421875 333.958984375 405.100585938 324.041992188 405.100585938 320.075195312 c 0
 405.100585938 284.375 404.25 256.041992188 402.549804688 235.075195312 c 0
EndSplineSet
Validated: 524289
EndChar

StartChar: K
Encoding: 75 75 43
Width: 550
VWidth: 901
GlyphClass: 2
Flags: W
VStem: 73.6162 99.4492<114.256 282.326 437.024 647.424>
LayerCount: 2
Fore
SplineSet
122.065429688 33.275390625 m 0
 120.931640625 33.275390625 119.799804688 33.55859375 118.666992188 34.1259765625 c 0
 104.5 34.1259765625 92.8828125 37.80859375 83.81640625 45.17578125 c 0
 75.31640625 51.9755859375 71.06640625 61.04296875 71.06640625 72.3759765625 c 0
 71.06640625 74.642578125 71.3486328125 76.91015625 71.916015625 79.1767578125 c 0
 73.048828125 97.3095703125 73.6162109375 127.342773438 73.6162109375 169.275390625 c 0
 73.6162109375 250.30859375 71.916015625 339.841796875 68.515625 437.875 c 0
 67.3828125 474.141601562 66.81640625 498.791992188 66.81640625 511.825195312 c 0
 66.81640625 524.858398438 67.3828125 543.275390625 68.515625 567.075195312 c 0
 69.6494140625 591.442382812 70.2158203125 606.7421875 70.2158203125 612.974609375 c 1
 70.783203125 627.708007812 75.8828125 639.325195312 85.515625 647.825195312 c 0
 94.5068359375 655.228515625 105.717773438 658.930664062 119.151367188 658.930664062 c 0
 120.111328125 658.930664062 121.08203125 658.912109375 122.065429688 658.874023438 c 2
 124.615234375 658.874023438 l 2
 138.21484375 658.874023438 150.115234375 655.756835938 160.315429688 649.524414062 c 0
 171.108398438 642.5078125 176.504882812 631.895507812 176.504882812 617.68359375 c 0
 176.504882812 605.494140625 175.963867188 577.376953125 174.764648438 534.774414062 c 0
 173.630859375 495.107421875 172.78125 462.524414062 172.213867188 437.024414062 c 1
 193.181640625 454.024414062 223.213867188 478.390625 262.314453125 510.124023438 c 0
 346.181640625 585.491210938 395.764648438 629.408203125 411.064453125 641.875 c 0
 420.697265625 649.2421875 430.047851562 654.341796875 439.114257812 657.174804688 c 0
 444.78125 658.875 449.598632812 659.724609375 453.565429688 659.724609375 c 0
 457.532226562 659.724609375 461.21484375 659.442382812 464.615234375 658.875 c 0
 471.982421875 657.174804688 478.499023438 653.775390625 484.166015625 648.674804688 c 0
 492.098632812 641.875 496.06640625 634.5078125 496.06640625 626.575195312 c 0
 496.06640625 611.275390625 489.833007812 594.841796875 477.366210938 577.275390625 c 0
 468.866210938 566.5078125 438.265625 535.625 385.56640625 484.625 c 1
 331.166015625 437.025390625 283.283203125 395.658203125 241.916015625 360.525390625 c 1
 263.44921875 340.125 297.732421875 309.807617188 344.765625 269.575195312 c 0
 391.797851562 231.608398438 432.598632812 197.325195312 467.165039062 166.724609375 c 0
 486.431640625 148.025390625 500.598632812 133.291992188 509.666015625 122.525390625 c 0
 519.298828125 109.4921875 524.965820312 100.424804688 526.666015625 95.3251953125 c 0
 528.932617188 87.9580078125 529.783203125 80.875 529.215820312 74.0751953125 c 0
 529.215820312 69.5419921875 528.366210938 65.0087890625 526.666015625 60.4755859375 c 0
 522.69921875 52.54296875 516.181640625 46.3095703125 507.115234375 41.7763671875 c 0
 494.751953125 36.625 486.369140625 34.0498046875 481.966796875 34.0498046875 c 0
 481.526367188 34.0498046875 481.125976562 34.0751953125 480.765625 34.126953125 c 2
 479.915039062 34.126953125 l 2
 464.615234375 34.126953125 450.165039062 41.2099609375 436.565429688 55.376953125 c 0
 430.8984375 62.1767578125 409.365234375 81.7265625 371.96484375 114.026367188 c 0
 334.565429688 145.759765625 293.765625 180.892578125 249.565429688 219.42578125 c 0
 217.83203125 244.359375 192.33203125 265.326171875 173.065429688 282.326171875 c 1
 180.71484375 73.2255859375 l 2
 179.015625 60.7587890625 171.6484375 50.841796875 158.615234375 43.474609375 c 0
 147.848632812 36.6748046875 135.665039062 33.275390625 122.065429688 33.275390625 c 0
EndSplineSet
Validated: 524289
EndChar

StartChar: L
Encoding: 76 76 44
Width: 550
VWidth: 901
GlyphClass: 2
Flags: W
HStem: 39.0762 99.4463<175.604 176.441 177.292 442.638>
VStem: 66.7939 108.797<133.423 322.191> 91.7266 100.868<164.67 637.46>
LayerCount: 2
Fore
SplineSet
181.544921875 229.475585938 m 0xa0
 178.145507812 188.674804688 176.158203125 156.655273438 175.590820312 133.422851562 c 1
 175.874023438 136.822265625 176.158203125 138.522460938 176.44140625 138.522460938 c 0
 177.291992188 133.422851562 l 1
 226.024414062 133.422851562 282.974609375 136.255859375 348.141601562 141.922851562 c 0
 412.174804688 147.58984375 454.391601562 153.256835938 474.791992188 158.923828125 c 0
 477.965820312 159.830078125 481.139648438 160.283203125 484.313476562 160.283203125 c 0
 486.692382812 160.198242188 l 0
 490.659179688 159.915039062 494.626953125 158.923828125 498.59375 157.223632812 c 0
 505.959960938 154.390625 512.193359375 149.857421875 517.29296875 143.624023438 c 0
 521.260742188 137.95703125 524.09375 132.0078125 525.79296875 125.774414062 c 0
 528.060546875 118.974609375 529.193359375 113.024414062 529.193359375 107.923828125 c 0
 529.193359375 94.8916015625 525.79296875 84.408203125 518.993164062 76.4755859375 c 0
 512.193359375 68.5419921875 500.576171875 63.1591796875 484.143554688 60.326171875 c 0
 445.04296875 52.958984375 382.8515625 47.576171875 297.568359375 44.17578125 c 0
 212.28515625 40.7763671875 151.227539062 39.076171875 114.39453125 39.076171875 c 0
 100.227539062 39.076171875 88.3271484375 43.892578125 78.6943359375 53.5263671875 c 0
 70.7255859375 61.494140625 66.7412109375 71.7041015625 66.7412109375 84.1552734375 c 0
 66.7412109375 84.9853515625 66.7587890625 85.8251953125 66.7939453125 86.67578125 c 2
 66.7939453125 94.326171875 l 2xc0
 66.7939453125 97.7255859375 70.052734375 128.609375 76.5693359375 186.975585938 c 0
 83.0859375 245.342773438 87.7607421875 301.443359375 90.5947265625 355.276367188 c 0
 91.349609375 366.228515625 91.7265625 378.817382812 91.7265625 393.04296875 c 0
 91.7265625 400.161132812 91.6328125 407.688476562 91.443359375 415.625976562 c 0
 91.443359375 436.592773438 90.876953125 496.943359375 89.7431640625 596.67578125 c 2
 89.7431640625 597.526367188 l 2
 90.310546875 615.092773438 95.552734375 628.55078125 105.469726562 637.901367188 c 0
 115.385742188 647.250976562 127.427734375 651.92578125 141.594726562 651.92578125 c 2
 144.145507812 651.92578125 l 2
 157.745117188 651.92578125 169.927734375 647.958984375 180.6953125 640.026367188 c 0
 192.053710938 631.37109375 197.733398438 618.844726562 197.733398438 602.4453125 c 0
 197.733398438 601.775390625 197.725585938 577.740234375 196.844726562 535.475585938 c 0
 195.711914062 498.642578125 194.294921875 464.075195312 192.594726562 431.775390625 c 0
 190.895507812 396.075195312 189.478515625 360.375 188.344726562 324.674804688 c 0
 187.211914062 302.0078125 184.9453125 270.275390625 181.544921875 229.475585938 c 0xa0
EndSplineSet
Validated: 524289
EndChar

StartChar: M
Encoding: 77 77 45
Width: 550
VWidth: 902
GlyphClass: 2
Flags: W
VStem: 51.4961 91.7998<66.1749 360.8> 416.149 128.35<86.0938 480.495>
LayerCount: 2
Fore
SplineSet
143.295898438 106.494140625 m 2
 143.295898438 97.1435546875 l 2
 143.295898438 81.84375 138.763671875 69.09375 129.696289062 58.8935546875 c 0
 119.49609375 48.6943359375 107.313476562 43.59375 93.146484375 43.59375 c 2
 92.2958984375 43.59375 l 2
 86.0634765625 43.59375 80.396484375 44.7265625 75.2958984375 46.994140625 c 0
 67.9296875 50.3935546875 61.9794921875 56.626953125 57.4462890625 65.6943359375 c 0
 53.4794921875 75.8935546875 51.49609375 89.494140625 51.49609375 106.494140625 c 0
 51.49609375 113.861328125 52.3466796875 126.043945312 54.0458984375 143.043945312 c 0
 55.74609375 159.4765625 57.7294921875 181.293945312 59.99609375 208.494140625 c 0
 62.8291015625 237.393554688 65.9462890625 271.676757812 69.3466796875 311.34375 c 0
 72.74609375 351.577148438 75.2958984375 383.309570312 76.99609375 406.54296875 c 0
 84.36328125 488.143554688 90.8798828125 544.526367188 96.546875 575.693359375 c 0
 100.513671875 595.526367188 104.763671875 609.409179688 109.296875 617.341796875 c 0
 116.096679688 629.2421875 126.580078125 638.025390625 140.747070312 643.692382812 c 0
 152.647460938 648.225585938 164.546875 650.493164062 176.447265625 650.493164062 c 2
 181.546875 650.493164062 l 2
 195.713867188 650.493164062 207.331054688 648.508789062 216.3984375 644.541992188 c 0
 228.865234375 639.442382812 237.365234375 630.942382812 241.8984375 619.041992188 c 0
 249.264648438 594.109375 257.198242188 553.026367188 265.698242188 495.79296875 c 0
 274.198242188 438.559570312 283.264648438 373.110351562 292.8984375 299.443359375 c 0
 295.165039062 283.009765625 296.865234375 268.27734375 297.998046875 255.244140625 c 1
 301.96484375 296.043945312 305.931640625 334.010742188 309.8984375 369.143554688 c 0
 315.565429688 416.176757812 323.215820312 463.209960938 332.848632812 510.243164062 c 0
 342.481445312 557.276367188 350.69921875 593.541992188 357.499023438 619.041992188 c 0
 360.33203125 627.541992188 366.848632812 634.625976562 377.048828125 640.29296875 c 0
 386.116210938 645.393554688 395.749023438 648.509765625 405.94921875 649.643554688 c 0
 412.181640625 650.776367188 417.423828125 651.201171875 421.673828125 650.91796875 c 0
 425.923828125 650.634765625 429.465820312 650.493164062 432.298828125 650.493164062 c 2
 434.848632812 650.493164062 l 1
 448.0234375 650.493164062 l 2
 451.70703125 650.493164062 456.665039062 649.643554688 462.8984375 647.943359375 c 0
 469.130859375 646.809570312 474.373046875 645.110351562 478.623046875 642.842773438 c 0
 482.873046875 640.576171875 486.981445312 637.17578125 490.948242188 632.643554688 c 0
 494.915039062 627.54296875 497.46484375 621.592773438 498.59765625 614.79296875 c 0
 500.865234375 597.79296875 507.381835938 515.342773438 518.1484375 367.443359375 c 0
 528.916015625 220.110351562 536.565429688 136.809570312 541.098632812 117.54296875 c 0
 543.366210938 106.209960938 544.499023438 95.7265625 544.499023438 86.09375 c 0
 544.499023438 78.1611328125 542.798828125 71.361328125 539.3984375 65.6943359375 c 0
 534.866210938 57.7607421875 527.215820312 52.09375 516.44921875 48.6943359375 c 0
 510.215820312 46.994140625 503.69921875 46.001953125 496.8984375 45.71875 c 0
 490.098632812 45.435546875 483.015625 46.994140625 475.6484375 50.3935546875 c 0
 462.616210938 56.060546875 452.982421875 67.677734375 446.75 85.2451171875 c 0
 435.416992188 119.245117188 425.216796875 250.995117188 416.149414062 480.495117188 c 1
 408.782226562 436.861328125 403.682617188 395.495117188 400.849609375 356.39453125 c 0
 395.182617188 291.794921875 387.532226562 230.594726562 377.899414062 172.794921875 c 0
 368.266601562 114.995117188 360.616210938 79.578125 354.94921875 66.544921875 c 0
 346.44921875 52.9443359375 326.049804688 46.14453125 293.75 46.14453125 c 2
 289.5 46.14453125 l 2
 277.599609375 46.14453125 267.116210938 47.8447265625 258.049804688 51.2451171875 c 0
 247.282226562 55.2119140625 240.482421875 60.87890625 237.649414062 68.2451171875 c 0
 230.282226562 95.4453125 218.099609375 157.495117188 201.099609375 254.395507812 c 0
 189.766601562 320.6953125 179 385.012695312 168.799804688 447.345703125 c 1
 167.666992188 436.012695312 166.25 415.612304688 164.549804688 386.145507812 c 2
 161.149414062 341.095703125 l 1
 156.049804688 267.145507812 l 2
 154.349609375 243.912109375 152.366210938 219.545898438 150.099609375 194.045898438 c 0
 148.399414062 174.778320312 146.416992188 154.662109375 144.149414062 133.694335938 c 0
 143.583007812 121.794921875 143.295898438 112.7265625 143.295898438 106.494140625 c 2
EndSplineSet
Validated: 524289
EndChar

StartChar: N
Encoding: 78 78 46
Width: 550
VWidth: 901
GlyphClass: 2
Flags: W
VStem: 67.5752 91.7998<57.3814 464.925> 436.758 90.665<211.052 610.117>
LayerCount: 2
Fore
SplineSet
163.625 464.924804688 m 1
 164.7578125 439.424804688 165.325195312 418.177734375 165.325195312 401.177734375 c 0
 165.325195312 383.044921875 165.041992188 357.544921875 164.474609375 324.677734375 c 0
 163.908203125 292.944335938 163.057617188 253.844726562 161.924804688 207.377929688 c 0
 160.224609375 160.911132812 159.375 131.443359375 159.375 118.9765625 c 2
 159.375 96.02734375 l 1
 159.375 89.2265625 l 2
 159.375 73.9267578125 154.841796875 62.02734375 145.774414062 53.52734375 c 0
 136.141601562 45.59375 124.524414062 41.626953125 110.924804688 41.626953125 c 0
 93.357421875 41.626953125 81.4580078125 46.7265625 75.224609375 56.9267578125 c 0
 70.125 66.5595703125 67.5751953125 80.443359375 67.5751953125 98.576171875 c 0
 67.5751953125 109.909179688 68.4248046875 153.826171875 70.125 230.326171875 c 0
 72.9580078125 348.193359375 74.375 429.225585938 74.375 473.42578125 c 0
 74.375 517.059570312 73.8076171875 557.291992188 72.6748046875 594.125 c 2
 72.6748046875 601.775390625 l 2
 72.6748046875 610.275390625 74.091796875 617.924804688 76.9248046875 624.725585938 c 0
 81.4580078125 632.658203125 87.69140625 638.325195312 95.6240234375 641.725585938 c 0
 106.95703125 647.958007812 119.70703125 651.075195312 133.874023438 651.075195312 c 0
 136.70703125 651.075195312 139.82421875 650.791992188 143.223632812 650.225585938 c 0
 155.69140625 650.225585938 166.458007812 648.2421875 175.524414062 644.275390625 c 0
 187.9921875 639.174804688 196.774414062 630.674804688 201.875 618.775390625 c 0
 214.908203125 582.5078125 250.325195312 515.358398438 308.125 417.325195312 c 0
 357.424804688 334.591796875 399.924804688 265.458984375 435.625 209.92578125 c 1
 436.379882812 242.407226562 436.7578125 281.55859375 436.7578125 327.380859375 c 0
 436.7578125 350.309570312 436.663085938 374.907226562 436.473632812 401.17578125 c 0
 435.340820312 501.475585938 432.791015625 567.776367188 428.82421875 600.076171875 c 0
 428.256835938 603.475585938 427.973632812 606.875976562 427.973632812 610.276367188 c 0
 427.973632812 620.475585938 431.657226562 629.54296875 439.024414062 637.475585938 c 0
 448.090820312 646.54296875 459.991210938 651.076171875 474.723632812 651.076171875 c 0
 488.32421875 651.076171875 499.374023438 648.809570312 507.874023438 644.276367188 c 0
 512.407226562 642.008789062 515.524414062 638.609375 517.223632812 634.076171875 c 0
 518.923828125 629.54296875 520.340820312 625.576171875 521.473632812 622.17578125 c 0
 522.607421875 618.208984375 523.740234375 612.258789062 524.873046875 604.326171875 c 0
 526.573242188 594.693359375 527.422851562 549.360351562 527.422851562 468.327148438 c 2
 527.422851562 432.626953125 l 2
 527.422851562 361.793945312 526.573242188 288.693359375 524.873046875 213.327148438 c 0
 523.740234375 164.59375 521.756835938 128.327148438 518.923828125 104.52734375 c 0
 516.657226562 81.8603515625 514.107421875 67.41015625 511.274414062 61.1767578125 c 0
 503.340820312 47.5771484375 484.357421875 40.494140625 454.325195312 39.9267578125 c 2
 450.924804688 39.9267578125 l 2
 440.158203125 39.9267578125 430.524414062 41.91015625 422.024414062 45.876953125 c 0
 411.825195312 50.41015625 405.024414062 56.0771484375 401.625 62.876953125 c 0
 395.958007812 74.2099609375 381.224609375 99.142578125 357.424804688 137.67578125 c 0
 332.4921875 177.909179688 307.841796875 216.442382812 283.474609375 253.275390625 c 0
 257.974609375 295.208007812 231.057617188 341.958007812 202.724609375 393.525390625 c 0
 187.424804688 419.025390625 174.391601562 442.825195312 163.625 464.924804688 c 1
EndSplineSet
Validated: 524289
EndChar

StartChar: O
Encoding: 79 79 47
Width: 550
VWidth: 902
GlyphClass: 2
Flags: W
HStem: 31.6543 91.7998<214.338 353.666> 572.256 90.0957<243.234 372.924>
VStem: 69.3555 102.85<176.648 476.162> 424.654 102.054<196.161 515.156>
LayerCount: 2
Fore
SplineSet
231.705078125 131.955078125 m 0
 241.904296875 126.288085938 253.521484375 123.454101562 266.5546875 123.454101562 c 0
 298.854492188 123.454101562 327.471679688 130.538085938 352.404296875 144.704101562 c 0
 365.4375 151.504882812 377.0546875 160.99609375 387.254882812 173.1796875 c 0
 397.455078125 185.362304688 405.387695312 199.387695312 411.0546875 215.254882812 c 0
 413.321289062 221.487304688 415.729492188 237.212890625 418.279296875 262.4296875 c 0
 420.830078125 287.646484375 422.955078125 317.821289062 424.654296875 352.954101562 c 0
 424.938476562 358.0546875 425.080078125 363.154296875 425.080078125 368.254882812 c 0
 425.080078125 373.354492188 424.938476562 378.454101562 424.654296875 383.5546875 c 0
 424.654296875 407.921875 423.521484375 432.288085938 421.254882812 456.655273438 c 0
 417.854492188 490.088867188 405.671875 517.85546875 384.705078125 539.955078125 c 0
 364.3046875 561.48828125 339.229492188 572.255859375 309.479492188 572.255859375 c 0
 279.729492188 572.255859375 254.654296875 562.622070312 234.254882812 543.35546875 c 0
 213.288085938 522.955078125 197.98828125 494.622070312 188.354492188 458.35546875 c 0
 177.587890625 417.555664062 172.205078125 370.805664062 172.205078125 318.10546875 c 0
 172.205078125 285.23828125 173.904296875 256.338867188 177.3046875 231.405273438 c 0
 179.571289062 217.23828125 183.254882812 203.213867188 188.354492188 189.330078125 c 0
 193.455078125 175.447265625 199.404296875 163.830078125 206.205078125 154.48046875 c 0
 213.004882812 145.130859375 221.504882812 137.622070312 231.705078125 131.955078125 c 0
522.404296875 460.05078125 m 0
 525.2734375 424.668945312 526.708007812 389.647460938 526.708007812 354.984375 c 0
 526.708007812 328.024414062 525.83984375 301.282226562 524.104492188 274.755859375 c 0
 521.837890625 241.322265625 517.87109375 215.5390625 512.204101562 197.40625 c 0
 504.836914062 170.7734375 495.487304688 147.823242188 484.154296875 128.556640625 c 0
 472.821289062 109.2890625 460.212890625 93.421875 446.330078125 80.955078125 c 0
 432.446289062 68.48828125 415.588867188 58.5712890625 395.755859375 51.2041015625 c 0
 375.922851562 43.837890625 355.947265625 38.7373046875 335.831054688 35.904296875 c 0
 315.713867188 33.0712890625 292.622070312 31.654296875 266.5546875 31.654296875 c 0
 226.321289062 32.2216796875 190.338867188 42.98828125 158.60546875 63.955078125 c 0
 129.138671875 85.48828125 106.755859375 113.821289062 91.4560546875 148.954101562 c 0
 76.72265625 182.954101562 69.35546875 219.788085938 69.35546875 259.454101562 c 2
 69.35546875 263.704101562 l 1
 69.35546875 278.154296875 l 2
 69.35546875 303.087890625 69.4970703125 322.920898438 69.7802734375 337.653320312 c 0
 70.0634765625 352.38671875 71.0556640625 372.219726562 72.755859375 397.153320312 c 0
 76.1552734375 445.885742188 86.072265625 491.21875 102.505859375 533.15234375 c 1
 102.505859375 534.000976562 l 1
 117.805664062 571.967773438 144.438476562 602.8515625 182.405273438 626.651367188 c 0
 223.206054688 650.451171875 269.388671875 662.3515625 320.956054688 662.3515625 c 0
 347.022460938 662.3515625 371.956054688 657.534179688 395.755859375 647.901367188 c 0
 419.555664062 638.833984375 440.23828125 625.942382812 457.805664062 609.225585938 c 0
 475.372070312 592.508789062 489.822265625 571.400390625 501.155273438 545.900390625 c 0
 512.48828125 520.400390625 519.571289062 491.783203125 522.404296875 460.05078125 c 0
EndSplineSet
Validated: 524289
EndChar

StartChar: P
Encoding: 80 80 48
Width: 550
VWidth: 901
GlyphClass: 2
Flags: W
HStem: 237.2 90.0303<187.923 365.852> 566.153 90.0996<191.006 380.327>
VStem: 85.4951 99.4502<79.2502 244 330.923 561.434> 89.7461 110.499<49.7263 242.485> 420.396 98.5957<379.586 529.548>
LayerCount: 2
Fore
SplineSet
194.29296875 144.55078125 m 0xe8
 198.259765625 103.75 200.245117188 81.9365234375 200.245117188 79.103515625 c 0
 200.245117188 64.9365234375 193.162109375 54.169921875 178.995117188 46.802734375 c 0
 167.662109375 39.435546875 155.478515625 35.7529296875 142.446289062 35.7529296875 c 0
 126.579101562 35.7529296875 113.545898438 40.2861328125 103.345703125 49.3525390625 c 0
 94.279296875 57.2861328125 89.74609375 67.76953125 89.74609375 80.8017578125 c 0
 89.74609375 83.0693359375 90.029296875 86.751953125 90.595703125 91.8525390625 c 0
 91.1630859375 99.78515625 91.4462890625 113.384765625 91.4462890625 132.65234375 c 0
 91.4462890625 164.384765625 90.87890625 208.018554688 89.74609375 263.55078125 c 0xd8
 87.478515625 357.618164062 86.0615234375 413.435546875 85.4951171875 431.001953125 c 0
 85.3056640625 445.931640625 85.2119140625 461.208007812 85.2119140625 476.831054688 c 0
 85.2119140625 508.053710938 85.5888671875 540.66015625 86.34375 574.65234375 c 1
 85.77734375 570.119140625 85.2099609375 570.685546875 84.6435546875 576.352539062 c 1
 84.6435546875 571.8203125 84.3603515625 571.8203125 83.79296875 576.352539062 c 0
 78.693359375 583.719726562 76.4267578125 591.086914062 76.9931640625 598.454101562 c 2
 76.9931640625 605.25390625 l 2
 78.693359375 613.75390625 82.66015625 621.403320312 88.8935546875 628.204101562 c 0
 95.1259765625 635.00390625 102.209960938 639.25390625 110.142578125 640.954101562 c 0
 131.109375 645.486328125 162.276367188 649.169921875 203.643554688 652.002929688 c 0
 247.276367188 654.8359375 277.875976562 656.252929688 295.443359375 656.252929688 c 0
 339.643554688 656.252929688 379.026367188 649.453125 413.59375 635.852539062 c 0
 445.326171875 621.685546875 470.684570312 600.293945312 489.66796875 571.676757812 c 0
 508.650390625 543.060546875 518.42578125 509.202148438 518.9921875 470.102539062 c 1
 518.9921875 438.369140625 513.609375 408.194335938 502.842773438 379.577148438 c 0
 492.075195312 350.959960938 477.342773438 326.16796875 458.642578125 305.201171875 c 0
 439.942382812 284.234375 415.859375 267.517578125 386.392578125 255.05078125 c 0
 357.666015625 243.125976562 326.865234375 237.163085938 293.990234375 237.163085938 c 0
 292.495117188 237.163085938 290.99609375 237.17578125 289.4921875 237.200195312 c 0
 248.125976562 237.200195312 213.842773438 239.467773438 186.642578125 244 c 1
 188.342773438 211.700195312 190.892578125 178.55078125 194.29296875 144.55078125 c 0xe8
184.094726562 335.803710938 m 1
 204.354492188 330.08984375 227.712890625 327.23046875 254.163085938 327.23046875 c 0
 256.56640625 327.23046875 258.995117188 327.25390625 261.450195312 327.30078125 c 0
 278.450195312 327.30078125 294.033203125 328.434570312 308.200195312 330.701171875 c 0
 322.3671875 332.967773438 334.549804688 335.80078125 344.75 339.201171875 c 0
 354.950195312 342.6015625 363.875 347.134765625 371.525390625 352.80078125 c 0
 379.174804688 358.467773438 385.692382812 364.134765625 391.075195312 369.801757812 c 0
 396.458007812 375.46875 400.991210938 382.126953125 404.673828125 389.77734375 c 0
 408.357421875 397.426757812 411.190429688 404.369140625 413.173828125 410.602539062 c 0
 415.15625 416.834960938 416.71484375 424.342773438 417.84765625 433.125976562 c 0
 418.98046875 441.909179688 419.688476562 449.134765625 419.971679688 454.80078125 c 0
 420.254882812 460.467773438 420.396484375 466.985351562 420.396484375 474.352539062 c 0
 420.396484375 488.518554688 417.563476562 500.986328125 411.896484375 511.752929688 c 0
 406.229492188 522.51953125 399.146484375 531.162109375 390.646484375 537.678710938 c 0
 382.146484375 544.1953125 372.088867188 549.720703125 360.471679688 554.25390625 c 0
 348.854492188 558.787109375 337.663085938 561.903320312 326.895507812 563.603515625 c 0
 316.12890625 565.303710938 305.645507812 566.153320312 295.446289062 566.153320312 c 0
 275.61328125 566.153320312 240.196289062 564.170898438 189.196289062 560.204101562 c 1
 186.928710938 492.204101562 185.51171875 446.586914062 184.9453125 423.353515625 c 0xe8
 184.377929688 392.186523438 184.094726562 363.00390625 184.094726562 335.803710938 c 1
EndSplineSet
Validated: 524289
EndChar

StartChar: Q
Encoding: 81 81 49
Width: 550
VWidth: 887
GlyphClass: 2
Flags: W
HStem: 558.15 90.0996<239.012 369.986>
VStem: 65.0977 102.809<166.567 458.332> 245.297 90.1006<149.54 216.819> 423.797 100.424<147.301 493.138>
LayerCount: 2
Fore
SplineSet
505.399414062 -135.450195312 m 0
 498.033203125 -139.983398438 490.09765625 -142.25 481.59765625 -142.25 c 0
 477.630859375 -142.25 473.09765625 -141.682617188 467.998046875 -140.549804688 c 0
 454.96484375 -137.150390625 444.482421875 -130.067382812 436.548828125 -119.299804688 c 0
 427.482421875 -108.533203125 412.889648438 -89.5498046875 392.7734375 -62.349609375 c 0
 372.65625 -35.150390625 353.248046875 -7.6669921875 334.547851562 20.099609375 c 1
 319.815429688 18.400390625 303.948242188 17.5498046875 286.948242188 17.5498046875 c 0
 258.047851562 17.5498046875 231.415039062 21.7998046875 207.047851562 30.2998046875 c 0
 182.680664062 38.2333984375 162.28125 49.56640625 145.84765625 64.298828125 c 0
 129.415039062 79.0322265625 115.248046875 96.0322265625 103.34765625 115.298828125 c 0
 80.6806640625 152.69921875 68.2138671875 197.465820312 65.947265625 249.599609375 c 0
 65.3798828125 264.33203125 65.09765625 278.499023438 65.09765625 292.099609375 c 0
 65.09765625 381.06640625 76.7138671875 455.583007812 99.947265625 515.650390625 c 1
 115.247070312 553.6171875 142.1640625 585.349609375 180.697265625 610.849609375 c 0
 221.497070312 635.783203125 267.114257812 648.25 317.546875 648.25 c 0
 371.379882812 648.25 416.430664062 632.099609375 452.697265625 599.799804688 c 0
 470.264648438 583.932617188 484.856445312 562.825195312 496.47265625 536.474609375 c 0
 508.08984375 510.125 515.881835938 479.950195312 519.848632812 445.950195312 c 0
 522.762695312 419.72265625 524.220703125 389.748046875 524.220703125 356.02734375 c 0
 524.220703125 350.40625 524.1796875 344.6796875 524.098632812 338.849609375 c 0
 524.098632812 266.8828125 520.416015625 213.333007812 513.048828125 178.200195312 c 0
 501.1484375 120.400390625 474.798828125 77.900390625 433.999023438 50.7001953125 c 1
 452.131835938 25.7666015625 474.232421875 -2.849609375 500.298828125 -35.150390625 c 0
 516.166015625 -54.9833984375 524.098632812 -65.1826171875 524.098632812 -65.75 c 0
 528.631835938 -72.5498046875 530.8984375 -79.6328125 530.8984375 -87 c 0
 530.8984375 -89.2666015625 530.616210938 -91.25 530.048828125 -92.9501953125 c 0
 528.916015625 -101.450195312 526.083007812 -109.666992188 521.549804688 -117.599609375 c 0
 516.450195312 -125.533203125 511.06640625 -131.483398438 505.399414062 -135.450195312 c 0
254.6484375 134.849609375 m 0
 248.415039062 149.583007812 245.296875 162.900390625 245.296875 174.799804688 c 0
 245.296875 192.932617188 252.6640625 207.099609375 267.397460938 217.299804688 c 0
 275.897460938 223.533203125 284.963867188 226.932617188 294.59765625 227.5 c 0
 302.530273438 227.5 310.180664062 224.950195312 317.546875 219.849609375 c 0
 324.9140625 214.75 330.864257812 206.817382812 335.397460938 196.049804688 c 0
 345.030273438 171.1171875 358.629882812 144.200195312 376.197265625 115.299804688 c 1
 394.897460938 130.033203125 407.647460938 151.849609375 414.447265625 180.75 c 0
 416.147460938 188.682617188 417.989257812 205.400390625 419.97265625 230.900390625 c 0
 421.955078125 256.400390625 423.23046875 288.416992188 423.796875 326.950195312 c 2
 423.796875 340.549804688 l 2
 423.796875 373.983398438 421.814453125 406 417.84765625 436.599609375 c 0
 412.747070312 474.567382812 400.280273438 504.599609375 380.447265625 526.700195312 c 0
 361.180664062 547.666992188 336.388671875 558.150390625 306.071289062 558.150390625 c 0
 275.754882812 558.150390625 250.396484375 548.233398438 229.99609375 528.400390625 c 0
 209.029296875 508 193.729492188 478.817382812 184.096679688 440.849609375 c 0
 173.303710938 399.295898438 167.90625 355.942382812 167.90625 310.790039062 c 0
 167.90625 308.53125 167.919921875 306.267578125 167.947265625 304 c 0
 167.947265625 287 168.514648438 269.432617188 169.647460938 251.299804688 c 1
 171.9140625 220.1328125 178.430664062 192.224609375 189.198242188 167.575195312 c 0
 199.96484375 142.924804688 213.84765625 123.516601562 230.84765625 109.349609375 c 0
 245.014648438 98.0166015625 260.59765625 91.5 277.59765625 89.7998046875 c 1
 267.3984375 107.932617188 259.748046875 122.950195312 254.6484375 134.849609375 c 0
EndSplineSet
Validated: 524289
EndChar

